<?xml version="1.0" encoding="utf-8" standalone="no"?>
<!DOCTYPE svg PUBLIC "-//W3C//DTD SVG 1.1//EN"
  "http://www.w3.org/Graphics/SVG/1.1/DTD/svg11.dtd">
<svg xmlns:xlink="http://www.w3.org/1999/xlink" width="864pt" height="576pt" viewBox="0 0 864 576" xmlns="http://www.w3.org/2000/svg" version="1.1">
 <metadata>
  <rdf:RDF xmlns:dc="http://purl.org/dc/elements/1.1/" xmlns:cc="http://creativecommons.org/ns#" xmlns:rdf="http://www.w3.org/1999/02/22-rdf-syntax-ns#">
   <cc:Work>
    <dc:type rdf:resource="http://purl.org/dc/dcmitype/StillImage"/>
    <dc:date>2025-03-28T12:55:52.440790</dc:date>
    <dc:format>image/svg+xml</dc:format>
    <dc:creator>
     <cc:Agent>
      <dc:title>Matplotlib v3.10.1, https://matplotlib.org/</dc:title>
     </cc:Agent>
    </dc:creator>
   </cc:Work>
  </rdf:RDF>
 </metadata>
 <defs>
  <style type="text/css">*{stroke-linejoin: round; stroke-linecap: butt}</style>
 </defs>
 <g id="figure_1">
  <g id="patch_1">
   <path d="M 0 576 
L 864 576 
L 864 0 
L 0 0 
z
" style="fill: #ffffff"/>
  </g>
  <g id="axes_1">
   <g id="patch_2">
    <path d="M 47.72 524.45536 
L 853.2 524.45536 
L 853.2 26.88 
L 47.72 26.88 
z
" style="fill: #ffffff"/>
   </g>
   <g id="matplotlib.axis_1">
    <g id="xtick_1">
     <g id="line2d_1">
      <defs>
       <path id="ma36a0ab18c" d="M 0 0 
L 0 3.5 
" style="stroke: #000000; stroke-width: 0.8"/>
      </defs>
      <g>
       <use xlink:href="#ma36a0ab18c" x="450.46" y="524.45536" style="stroke: #000000; stroke-width: 0.8"/>
      </g>
     </g>
     <g id="text_1">
      <!-- s, 0 -->
      <g transform="translate(446.072623 549.505366) rotate(-45) scale(0.1 -0.1)">
       <defs>
        <path id="DejaVuSans-73" d="M 2834 3397 
L 2834 2853 
Q 2591 2978 2328 3040 
Q 2066 3103 1784 3103 
Q 1356 3103 1142 2972 
Q 928 2841 928 2578 
Q 928 2378 1081 2264 
Q 1234 2150 1697 2047 
L 1894 2003 
Q 2506 1872 2764 1633 
Q 3022 1394 3022 966 
Q 3022 478 2636 193 
Q 2250 -91 1575 -91 
Q 1294 -91 989 -36 
Q 684 19 347 128 
L 347 722 
Q 666 556 975 473 
Q 1284 391 1588 391 
Q 1994 391 2212 530 
Q 2431 669 2431 922 
Q 2431 1156 2273 1281 
Q 2116 1406 1581 1522 
L 1381 1569 
Q 847 1681 609 1914 
Q 372 2147 372 2553 
Q 372 3047 722 3315 
Q 1072 3584 1716 3584 
Q 2034 3584 2315 3537 
Q 2597 3491 2834 3397 
z
" transform="scale(0.015625)"/>
        <path id="DejaVuSans-2c" d="M 750 794 
L 1409 794 
L 1409 256 
L 897 -744 
L 494 -744 
L 750 256 
L 750 794 
z
" transform="scale(0.015625)"/>
        <path id="DejaVuSans-20" transform="scale(0.015625)"/>
        <path id="DejaVuSans-30" d="M 2034 4250 
Q 1547 4250 1301 3770 
Q 1056 3291 1056 2328 
Q 1056 1369 1301 889 
Q 1547 409 2034 409 
Q 2525 409 2770 889 
Q 3016 1369 3016 2328 
Q 3016 3291 2770 3770 
Q 2525 4250 2034 4250 
z
M 2034 4750 
Q 2819 4750 3233 4129 
Q 3647 3509 3647 2328 
Q 3647 1150 3233 529 
Q 2819 -91 2034 -91 
Q 1250 -91 836 529 
Q 422 1150 422 2328 
Q 422 3509 836 4129 
Q 1250 4750 2034 4750 
z
" transform="scale(0.015625)"/>
       </defs>
       <use xlink:href="#DejaVuSans-73"/>
       <use xlink:href="#DejaVuSans-2c" transform="translate(52.099609 0)"/>
       <use xlink:href="#DejaVuSans-20" transform="translate(83.886719 0)"/>
       <use xlink:href="#DejaVuSans-30" transform="translate(115.673828 0)"/>
      </g>
     </g>
    </g>
    <g id="text_2">
     <!-- Group (Reactor, Destination) -->
     <g transform="translate(378.667031 562.574364) scale(0.1 -0.1)">
      <defs>
       <path id="DejaVuSans-47" d="M 3809 666 
L 3809 1919 
L 2778 1919 
L 2778 2438 
L 4434 2438 
L 4434 434 
Q 4069 175 3628 42 
Q 3188 -91 2688 -91 
Q 1594 -91 976 548 
Q 359 1188 359 2328 
Q 359 3472 976 4111 
Q 1594 4750 2688 4750 
Q 3144 4750 3555 4637 
Q 3966 4525 4313 4306 
L 4313 3634 
Q 3963 3931 3569 4081 
Q 3175 4231 2741 4231 
Q 1884 4231 1454 3753 
Q 1025 3275 1025 2328 
Q 1025 1384 1454 906 
Q 1884 428 2741 428 
Q 3075 428 3337 486 
Q 3600 544 3809 666 
z
" transform="scale(0.015625)"/>
       <path id="DejaVuSans-72" d="M 2631 2963 
Q 2534 3019 2420 3045 
Q 2306 3072 2169 3072 
Q 1681 3072 1420 2755 
Q 1159 2438 1159 1844 
L 1159 0 
L 581 0 
L 581 3500 
L 1159 3500 
L 1159 2956 
Q 1341 3275 1631 3429 
Q 1922 3584 2338 3584 
Q 2397 3584 2469 3576 
Q 2541 3569 2628 3553 
L 2631 2963 
z
" transform="scale(0.015625)"/>
       <path id="DejaVuSans-6f" d="M 1959 3097 
Q 1497 3097 1228 2736 
Q 959 2375 959 1747 
Q 959 1119 1226 758 
Q 1494 397 1959 397 
Q 2419 397 2687 759 
Q 2956 1122 2956 1747 
Q 2956 2369 2687 2733 
Q 2419 3097 1959 3097 
z
M 1959 3584 
Q 2709 3584 3137 3096 
Q 3566 2609 3566 1747 
Q 3566 888 3137 398 
Q 2709 -91 1959 -91 
Q 1206 -91 779 398 
Q 353 888 353 1747 
Q 353 2609 779 3096 
Q 1206 3584 1959 3584 
z
" transform="scale(0.015625)"/>
       <path id="DejaVuSans-75" d="M 544 1381 
L 544 3500 
L 1119 3500 
L 1119 1403 
Q 1119 906 1312 657 
Q 1506 409 1894 409 
Q 2359 409 2629 706 
Q 2900 1003 2900 1516 
L 2900 3500 
L 3475 3500 
L 3475 0 
L 2900 0 
L 2900 538 
Q 2691 219 2414 64 
Q 2138 -91 1772 -91 
Q 1169 -91 856 284 
Q 544 659 544 1381 
z
M 1991 3584 
L 1991 3584 
z
" transform="scale(0.015625)"/>
       <path id="DejaVuSans-70" d="M 1159 525 
L 1159 -1331 
L 581 -1331 
L 581 3500 
L 1159 3500 
L 1159 2969 
Q 1341 3281 1617 3432 
Q 1894 3584 2278 3584 
Q 2916 3584 3314 3078 
Q 3713 2572 3713 1747 
Q 3713 922 3314 415 
Q 2916 -91 2278 -91 
Q 1894 -91 1617 61 
Q 1341 213 1159 525 
z
M 3116 1747 
Q 3116 2381 2855 2742 
Q 2594 3103 2138 3103 
Q 1681 3103 1420 2742 
Q 1159 2381 1159 1747 
Q 1159 1113 1420 752 
Q 1681 391 2138 391 
Q 2594 391 2855 752 
Q 3116 1113 3116 1747 
z
" transform="scale(0.015625)"/>
       <path id="DejaVuSans-28" d="M 1984 4856 
Q 1566 4138 1362 3434 
Q 1159 2731 1159 2009 
Q 1159 1288 1364 580 
Q 1569 -128 1984 -844 
L 1484 -844 
Q 1016 -109 783 600 
Q 550 1309 550 2009 
Q 550 2706 781 3412 
Q 1013 4119 1484 4856 
L 1984 4856 
z
" transform="scale(0.015625)"/>
       <path id="DejaVuSans-52" d="M 2841 2188 
Q 3044 2119 3236 1894 
Q 3428 1669 3622 1275 
L 4263 0 
L 3584 0 
L 2988 1197 
Q 2756 1666 2539 1819 
Q 2322 1972 1947 1972 
L 1259 1972 
L 1259 0 
L 628 0 
L 628 4666 
L 2053 4666 
Q 2853 4666 3247 4331 
Q 3641 3997 3641 3322 
Q 3641 2881 3436 2590 
Q 3231 2300 2841 2188 
z
M 1259 4147 
L 1259 2491 
L 2053 2491 
Q 2509 2491 2742 2702 
Q 2975 2913 2975 3322 
Q 2975 3731 2742 3939 
Q 2509 4147 2053 4147 
L 1259 4147 
z
" transform="scale(0.015625)"/>
       <path id="DejaVuSans-65" d="M 3597 1894 
L 3597 1613 
L 953 1613 
Q 991 1019 1311 708 
Q 1631 397 2203 397 
Q 2534 397 2845 478 
Q 3156 559 3463 722 
L 3463 178 
Q 3153 47 2828 -22 
Q 2503 -91 2169 -91 
Q 1331 -91 842 396 
Q 353 884 353 1716 
Q 353 2575 817 3079 
Q 1281 3584 2069 3584 
Q 2775 3584 3186 3129 
Q 3597 2675 3597 1894 
z
M 3022 2063 
Q 3016 2534 2758 2815 
Q 2500 3097 2075 3097 
Q 1594 3097 1305 2825 
Q 1016 2553 972 2059 
L 3022 2063 
z
" transform="scale(0.015625)"/>
       <path id="DejaVuSans-61" d="M 2194 1759 
Q 1497 1759 1228 1600 
Q 959 1441 959 1056 
Q 959 750 1161 570 
Q 1363 391 1709 391 
Q 2188 391 2477 730 
Q 2766 1069 2766 1631 
L 2766 1759 
L 2194 1759 
z
M 3341 1997 
L 3341 0 
L 2766 0 
L 2766 531 
Q 2569 213 2275 61 
Q 1981 -91 1556 -91 
Q 1019 -91 701 211 
Q 384 513 384 1019 
Q 384 1609 779 1909 
Q 1175 2209 1959 2209 
L 2766 2209 
L 2766 2266 
Q 2766 2663 2505 2880 
Q 2244 3097 1772 3097 
Q 1472 3097 1187 3025 
Q 903 2953 641 2809 
L 641 3341 
Q 956 3463 1253 3523 
Q 1550 3584 1831 3584 
Q 2591 3584 2966 3190 
Q 3341 2797 3341 1997 
z
" transform="scale(0.015625)"/>
       <path id="DejaVuSans-63" d="M 3122 3366 
L 3122 2828 
Q 2878 2963 2633 3030 
Q 2388 3097 2138 3097 
Q 1578 3097 1268 2742 
Q 959 2388 959 1747 
Q 959 1106 1268 751 
Q 1578 397 2138 397 
Q 2388 397 2633 464 
Q 2878 531 3122 666 
L 3122 134 
Q 2881 22 2623 -34 
Q 2366 -91 2075 -91 
Q 1284 -91 818 406 
Q 353 903 353 1747 
Q 353 2603 823 3093 
Q 1294 3584 2113 3584 
Q 2378 3584 2631 3529 
Q 2884 3475 3122 3366 
z
" transform="scale(0.015625)"/>
       <path id="DejaVuSans-74" d="M 1172 4494 
L 1172 3500 
L 2356 3500 
L 2356 3053 
L 1172 3053 
L 1172 1153 
Q 1172 725 1289 603 
Q 1406 481 1766 481 
L 2356 481 
L 2356 0 
L 1766 0 
Q 1100 0 847 248 
Q 594 497 594 1153 
L 594 3053 
L 172 3053 
L 172 3500 
L 594 3500 
L 594 4494 
L 1172 4494 
z
" transform="scale(0.015625)"/>
       <path id="DejaVuSans-44" d="M 1259 4147 
L 1259 519 
L 2022 519 
Q 2988 519 3436 956 
Q 3884 1394 3884 2338 
Q 3884 3275 3436 3711 
Q 2988 4147 2022 4147 
L 1259 4147 
z
M 628 4666 
L 1925 4666 
Q 3281 4666 3915 4102 
Q 4550 3538 4550 2338 
Q 4550 1131 3912 565 
Q 3275 0 1925 0 
L 628 0 
L 628 4666 
z
" transform="scale(0.015625)"/>
       <path id="DejaVuSans-69" d="M 603 3500 
L 1178 3500 
L 1178 0 
L 603 0 
L 603 3500 
z
M 603 4863 
L 1178 4863 
L 1178 4134 
L 603 4134 
L 603 4863 
z
" transform="scale(0.015625)"/>
       <path id="DejaVuSans-6e" d="M 3513 2113 
L 3513 0 
L 2938 0 
L 2938 2094 
Q 2938 2591 2744 2837 
Q 2550 3084 2163 3084 
Q 1697 3084 1428 2787 
Q 1159 2491 1159 1978 
L 1159 0 
L 581 0 
L 581 3500 
L 1159 3500 
L 1159 2956 
Q 1366 3272 1645 3428 
Q 1925 3584 2291 3584 
Q 2894 3584 3203 3211 
Q 3513 2838 3513 2113 
z
" transform="scale(0.015625)"/>
       <path id="DejaVuSans-29" d="M 513 4856 
L 1013 4856 
Q 1481 4119 1714 3412 
Q 1947 2706 1947 2009 
Q 1947 1309 1714 600 
Q 1481 -109 1013 -844 
L 513 -844 
Q 928 -128 1133 580 
Q 1338 1288 1338 2009 
Q 1338 2731 1133 3434 
Q 928 4138 513 4856 
z
" transform="scale(0.015625)"/>
      </defs>
      <use xlink:href="#DejaVuSans-47"/>
      <use xlink:href="#DejaVuSans-72" transform="translate(77.490234 0)"/>
      <use xlink:href="#DejaVuSans-6f" transform="translate(116.353516 0)"/>
      <use xlink:href="#DejaVuSans-75" transform="translate(177.535156 0)"/>
      <use xlink:href="#DejaVuSans-70" transform="translate(240.914062 0)"/>
      <use xlink:href="#DejaVuSans-20" transform="translate(304.390625 0)"/>
      <use xlink:href="#DejaVuSans-28" transform="translate(336.177734 0)"/>
      <use xlink:href="#DejaVuSans-52" transform="translate(375.191406 0)"/>
      <use xlink:href="#DejaVuSans-65" transform="translate(440.173828 0)"/>
      <use xlink:href="#DejaVuSans-61" transform="translate(501.697266 0)"/>
      <use xlink:href="#DejaVuSans-63" transform="translate(562.976562 0)"/>
      <use xlink:href="#DejaVuSans-74" transform="translate(617.957031 0)"/>
      <use xlink:href="#DejaVuSans-6f" transform="translate(657.166016 0)"/>
      <use xlink:href="#DejaVuSans-72" transform="translate(718.347656 0)"/>
      <use xlink:href="#DejaVuSans-2c" transform="translate(759.460938 0)"/>
      <use xlink:href="#DejaVuSans-20" transform="translate(791.248047 0)"/>
      <use xlink:href="#DejaVuSans-44" transform="translate(823.035156 0)"/>
      <use xlink:href="#DejaVuSans-65" transform="translate(900.037109 0)"/>
      <use xlink:href="#DejaVuSans-73" transform="translate(961.560547 0)"/>
      <use xlink:href="#DejaVuSans-74" transform="translate(1013.660156 0)"/>
      <use xlink:href="#DejaVuSans-69" transform="translate(1052.869141 0)"/>
      <use xlink:href="#DejaVuSans-6e" transform="translate(1080.652344 0)"/>
      <use xlink:href="#DejaVuSans-61" transform="translate(1144.03125 0)"/>
      <use xlink:href="#DejaVuSans-74" transform="translate(1205.310547 0)"/>
      <use xlink:href="#DejaVuSans-69" transform="translate(1244.519531 0)"/>
      <use xlink:href="#DejaVuSans-6f" transform="translate(1272.302734 0)"/>
      <use xlink:href="#DejaVuSans-6e" transform="translate(1333.484375 0)"/>
      <use xlink:href="#DejaVuSans-29" transform="translate(1396.863281 0)"/>
     </g>
    </g>
   </g>
   <g id="matplotlib.axis_2">
    <g id="ytick_1">
     <g id="line2d_2">
      <defs>
       <path id="md087e232d0" d="M 0 0 
L -3.5 0 
" style="stroke: #000000; stroke-width: 0.8"/>
      </defs>
      <g>
       <use xlink:href="#md087e232d0" x="47.72" y="501.838362" style="stroke: #000000; stroke-width: 0.8"/>
      </g>
     </g>
     <g id="text_3">
      <!-- 0.0 -->
      <g transform="translate(24.816875 505.63758) scale(0.1 -0.1)">
       <defs>
        <path id="DejaVuSans-2e" d="M 684 794 
L 1344 794 
L 1344 0 
L 684 0 
L 684 794 
z
" transform="scale(0.015625)"/>
       </defs>
       <use xlink:href="#DejaVuSans-30"/>
       <use xlink:href="#DejaVuSans-2e" transform="translate(63.623047 0)"/>
       <use xlink:href="#DejaVuSans-30" transform="translate(95.410156 0)"/>
      </g>
     </g>
    </g>
    <g id="ytick_2">
     <g id="line2d_3">
      <g>
       <use xlink:href="#md087e232d0" x="47.72" y="424.441646" style="stroke: #000000; stroke-width: 0.8"/>
      </g>
     </g>
     <g id="text_4">
      <!-- 0.5 -->
      <g transform="translate(24.816875 428.240864) scale(0.1 -0.1)">
       <defs>
        <path id="DejaVuSans-35" d="M 691 4666 
L 3169 4666 
L 3169 4134 
L 1269 4134 
L 1269 2991 
Q 1406 3038 1543 3061 
Q 1681 3084 1819 3084 
Q 2600 3084 3056 2656 
Q 3513 2228 3513 1497 
Q 3513 744 3044 326 
Q 2575 -91 1722 -91 
Q 1428 -91 1123 -41 
Q 819 9 494 109 
L 494 744 
Q 775 591 1075 516 
Q 1375 441 1709 441 
Q 2250 441 2565 725 
Q 2881 1009 2881 1497 
Q 2881 1984 2565 2268 
Q 2250 2553 1709 2553 
Q 1456 2553 1204 2497 
Q 953 2441 691 2322 
L 691 4666 
z
" transform="scale(0.015625)"/>
       </defs>
       <use xlink:href="#DejaVuSans-30"/>
       <use xlink:href="#DejaVuSans-2e" transform="translate(63.623047 0)"/>
       <use xlink:href="#DejaVuSans-35" transform="translate(95.410156 0)"/>
      </g>
     </g>
    </g>
    <g id="ytick_3">
     <g id="line2d_4">
      <g>
       <use xlink:href="#md087e232d0" x="47.72" y="347.04493" style="stroke: #000000; stroke-width: 0.8"/>
      </g>
     </g>
     <g id="text_5">
      <!-- 1.0 -->
      <g transform="translate(24.816875 350.844148) scale(0.1 -0.1)">
       <defs>
        <path id="DejaVuSans-31" d="M 794 531 
L 1825 531 
L 1825 4091 
L 703 3866 
L 703 4441 
L 1819 4666 
L 2450 4666 
L 2450 531 
L 3481 531 
L 3481 0 
L 794 0 
L 794 531 
z
" transform="scale(0.015625)"/>
       </defs>
       <use xlink:href="#DejaVuSans-31"/>
       <use xlink:href="#DejaVuSans-2e" transform="translate(63.623047 0)"/>
       <use xlink:href="#DejaVuSans-30" transform="translate(95.410156 0)"/>
      </g>
     </g>
    </g>
    <g id="ytick_4">
     <g id="line2d_5">
      <g>
       <use xlink:href="#md087e232d0" x="47.72" y="269.648214" style="stroke: #000000; stroke-width: 0.8"/>
      </g>
     </g>
     <g id="text_6">
      <!-- 1.5 -->
      <g transform="translate(24.816875 273.447432) scale(0.1 -0.1)">
       <use xlink:href="#DejaVuSans-31"/>
       <use xlink:href="#DejaVuSans-2e" transform="translate(63.623047 0)"/>
       <use xlink:href="#DejaVuSans-35" transform="translate(95.410156 0)"/>
      </g>
     </g>
    </g>
    <g id="ytick_5">
     <g id="line2d_6">
      <g>
       <use xlink:href="#md087e232d0" x="47.72" y="192.251498" style="stroke: #000000; stroke-width: 0.8"/>
      </g>
     </g>
     <g id="text_7">
      <!-- 2.0 -->
      <g transform="translate(24.816875 196.050716) scale(0.1 -0.1)">
       <defs>
        <path id="DejaVuSans-32" d="M 1228 531 
L 3431 531 
L 3431 0 
L 469 0 
L 469 531 
Q 828 903 1448 1529 
Q 2069 2156 2228 2338 
Q 2531 2678 2651 2914 
Q 2772 3150 2772 3378 
Q 2772 3750 2511 3984 
Q 2250 4219 1831 4219 
Q 1534 4219 1204 4116 
Q 875 4013 500 3803 
L 500 4441 
Q 881 4594 1212 4672 
Q 1544 4750 1819 4750 
Q 2544 4750 2975 4387 
Q 3406 4025 3406 3419 
Q 3406 3131 3298 2873 
Q 3191 2616 2906 2266 
Q 2828 2175 2409 1742 
Q 1991 1309 1228 531 
z
" transform="scale(0.015625)"/>
       </defs>
       <use xlink:href="#DejaVuSans-32"/>
       <use xlink:href="#DejaVuSans-2e" transform="translate(63.623047 0)"/>
       <use xlink:href="#DejaVuSans-30" transform="translate(95.410156 0)"/>
      </g>
     </g>
    </g>
    <g id="ytick_6">
     <g id="line2d_7">
      <g>
       <use xlink:href="#md087e232d0" x="47.72" y="114.854782" style="stroke: #000000; stroke-width: 0.8"/>
      </g>
     </g>
     <g id="text_8">
      <!-- 2.5 -->
      <g transform="translate(24.816875 118.654001) scale(0.1 -0.1)">
       <use xlink:href="#DejaVuSans-32"/>
       <use xlink:href="#DejaVuSans-2e" transform="translate(63.623047 0)"/>
       <use xlink:href="#DejaVuSans-35" transform="translate(95.410156 0)"/>
      </g>
     </g>
    </g>
    <g id="ytick_7">
     <g id="line2d_8">
      <g>
       <use xlink:href="#md087e232d0" x="47.72" y="37.458066" style="stroke: #000000; stroke-width: 0.8"/>
      </g>
     </g>
     <g id="text_9">
      <!-- 3.0 -->
      <g transform="translate(24.816875 41.257285) scale(0.1 -0.1)">
       <defs>
        <path id="DejaVuSans-33" d="M 2597 2516 
Q 3050 2419 3304 2112 
Q 3559 1806 3559 1356 
Q 3559 666 3084 287 
Q 2609 -91 1734 -91 
Q 1441 -91 1130 -33 
Q 819 25 488 141 
L 488 750 
Q 750 597 1062 519 
Q 1375 441 1716 441 
Q 2309 441 2620 675 
Q 2931 909 2931 1356 
Q 2931 1769 2642 2001 
Q 2353 2234 1838 2234 
L 1294 2234 
L 1294 2753 
L 1863 2753 
Q 2328 2753 2575 2939 
Q 2822 3125 2822 3475 
Q 2822 3834 2567 4026 
Q 2313 4219 1838 4219 
Q 1578 4219 1281 4162 
Q 984 4106 628 3988 
L 628 4550 
Q 988 4650 1302 4700 
Q 1616 4750 1894 4750 
Q 2613 4750 3031 4423 
Q 3450 4097 3450 3541 
Q 3450 3153 3228 2886 
Q 3006 2619 2597 2516 
z
" transform="scale(0.015625)"/>
       </defs>
       <use xlink:href="#DejaVuSans-33"/>
       <use xlink:href="#DejaVuSans-2e" transform="translate(63.623047 0)"/>
       <use xlink:href="#DejaVuSans-30" transform="translate(95.410156 0)"/>
      </g>
     </g>
    </g>
    <g id="text_10">
     <!-- Lag -->
     <g transform="translate(18.737188 284.691899) rotate(-90) scale(0.1 -0.1)">
      <defs>
       <path id="DejaVuSans-4c" d="M 628 4666 
L 1259 4666 
L 1259 531 
L 3531 531 
L 3531 0 
L 628 0 
L 628 4666 
z
" transform="scale(0.015625)"/>
       <path id="DejaVuSans-67" d="M 2906 1791 
Q 2906 2416 2648 2759 
Q 2391 3103 1925 3103 
Q 1463 3103 1205 2759 
Q 947 2416 947 1791 
Q 947 1169 1205 825 
Q 1463 481 1925 481 
Q 2391 481 2648 825 
Q 2906 1169 2906 1791 
z
M 3481 434 
Q 3481 -459 3084 -895 
Q 2688 -1331 1869 -1331 
Q 1566 -1331 1297 -1286 
Q 1028 -1241 775 -1147 
L 775 -588 
Q 1028 -725 1275 -790 
Q 1522 -856 1778 -856 
Q 2344 -856 2625 -561 
Q 2906 -266 2906 331 
L 2906 616 
Q 2728 306 2450 153 
Q 2172 0 1784 0 
Q 1141 0 747 490 
Q 353 981 353 1791 
Q 353 2603 747 3093 
Q 1141 3584 1784 3584 
Q 2172 3584 2450 3431 
Q 2728 3278 2906 2969 
L 2906 3500 
L 3481 3500 
L 3481 434 
z
" transform="scale(0.015625)"/>
      </defs>
      <use xlink:href="#DejaVuSans-4c"/>
      <use xlink:href="#DejaVuSans-61" transform="translate(55.712891 0)"/>
      <use xlink:href="#DejaVuSans-67" transform="translate(116.992188 0)"/>
     </g>
    </g>
    <g id="text_11">
     <!-- 1e9 -->
     <g transform="translate(47.72 23.88) scale(0.1 -0.1)">
      <defs>
       <path id="DejaVuSans-39" d="M 703 97 
L 703 672 
Q 941 559 1184 500 
Q 1428 441 1663 441 
Q 2288 441 2617 861 
Q 2947 1281 2994 2138 
Q 2813 1869 2534 1725 
Q 2256 1581 1919 1581 
Q 1219 1581 811 2004 
Q 403 2428 403 3163 
Q 403 3881 828 4315 
Q 1253 4750 1959 4750 
Q 2769 4750 3195 4129 
Q 3622 3509 3622 2328 
Q 3622 1225 3098 567 
Q 2575 -91 1691 -91 
Q 1453 -91 1209 -44 
Q 966 3 703 97 
z
M 1959 2075 
Q 2384 2075 2632 2365 
Q 2881 2656 2881 3163 
Q 2881 3666 2632 3958 
Q 2384 4250 1959 4250 
Q 1534 4250 1286 3958 
Q 1038 3666 1038 3163 
Q 1038 2656 1286 2365 
Q 1534 2075 1959 2075 
z
" transform="scale(0.015625)"/>
      </defs>
      <use xlink:href="#DejaVuSans-31"/>
      <use xlink:href="#DejaVuSans-65" transform="translate(63.623047 0)"/>
      <use xlink:href="#DejaVuSans-39" transform="translate(125.146484 0)"/>
     </g>
    </g>
   </g>
   <g id="patch_3">
    <path d="M 47.72 524.45536 
L 47.72 26.88 
" style="fill: none; stroke: #000000; stroke-width: 0.8; stroke-linejoin: miter; stroke-linecap: square"/>
   </g>
   <g id="patch_4">
    <path d="M 853.2 524.45536 
L 853.2 26.88 
" style="fill: none; stroke: #000000; stroke-width: 0.8; stroke-linejoin: miter; stroke-linecap: square"/>
   </g>
   <g id="patch_5">
    <path d="M 47.72 524.45536 
L 853.2 524.45536 
" style="fill: none; stroke: #000000; stroke-width: 0.8; stroke-linejoin: miter; stroke-linecap: square"/>
   </g>
   <g id="patch_6">
    <path d="M 47.72 26.88 
L 853.2 26.88 
" style="fill: none; stroke: #000000; stroke-width: 0.8; stroke-linejoin: miter; stroke-linecap: square"/>
   </g>
   <g id="PathCollection_1">
    <defs>
     <path id="C0_0_54c6da50e2" d="M 0 3.5 
C 0.928211 3.5 1.81853 3.131218 2.474874 2.474874 
C 3.131218 1.81853 3.5 0.928211 3.5 -0 
C 3.5 -0.928211 3.131218 -1.81853 2.474874 -2.474874 
C 1.81853 -3.131218 0.928211 -3.5 0 -3.5 
C -0.928211 -3.5 -1.81853 -3.131218 -2.474874 -2.474874 
C -3.131218 -1.81853 -3.5 -0.928211 -3.5 0 
C -3.5 0.928211 -3.131218 1.81853 -2.474874 2.474874 
C -1.81853 3.131218 -0.928211 3.5 0 3.5 
z
"/>
    </defs>
    <g clip-path="url(#p2832054e87)">
     <use xlink:href="#C0_0_54c6da50e2" x="245.757093" y="102.13327" style="fill: #e5715e"/>
    </g>
    <g clip-path="url(#p2832054e87)">
     <use xlink:href="#C0_0_54c6da50e2" x="262.338053" y="421.044944" style="fill: #e5715e"/>
    </g>
    <g clip-path="url(#p2832054e87)">
     <use xlink:href="#C0_0_54c6da50e2" x="258.216416" y="103.680384" style="fill: #e5715e"/>
    </g>
    <g clip-path="url(#p2832054e87)">
     <use xlink:href="#C0_0_54c6da50e2" x="232.776188" y="131.545318" style="fill: #e5715e"/>
    </g>
    <g clip-path="url(#p2832054e87)">
     <use xlink:href="#C0_0_54c6da50e2" x="214.530388" y="49.497062" style="fill: #e5715e"/>
    </g>
    <g clip-path="url(#p2832054e87)">
     <use xlink:href="#C0_0_54c6da50e2" x="211.334421" y="261.589195" style="fill: #e5715e"/>
    </g>
    <g clip-path="url(#p2832054e87)">
     <use xlink:href="#C0_0_54c6da50e2" x="261.466793" y="315.772405" style="fill: #e5715e"/>
    </g>
    <g clip-path="url(#p2832054e87)">
     <use xlink:href="#C0_0_54c6da50e2" x="257.161078" y="154.769409" style="fill: #e5715e"/>
    </g>
    <g clip-path="url(#p2832054e87)">
     <use xlink:href="#C0_0_54c6da50e2" x="256.163339" y="342.090829" style="fill: #e5715e"/>
    </g>
    <g clip-path="url(#p2832054e87)">
     <use xlink:href="#C0_0_54c6da50e2" x="209.910183" y="260.041785" style="fill: #e5715e"/>
    </g>
    <g clip-path="url(#p2832054e87)">
     <use xlink:href="#C0_0_54c6da50e2" x="229.990403" y="128.451527" style="fill: #e5715e"/>
    </g>
    <g clip-path="url(#p2832054e87)">
     <use xlink:href="#C0_0_54c6da50e2" x="260.549223" y="287.907575" style="fill: #e5715e"/>
    </g>
    <g clip-path="url(#p2832054e87)">
     <use xlink:href="#C0_0_54c6da50e2" x="257.114866" y="75.815179" style="fill: #e5715e"/>
    </g>
    <g clip-path="url(#p2832054e87)">
     <use xlink:href="#C0_0_54c6da50e2" x="238.882219" y="365.314697" style="fill: #e5715e"/>
    </g>
    <g clip-path="url(#p2832054e87)">
     <use xlink:href="#C0_0_54c6da50e2" x="219.579405" y="235.271058" style="fill: #e5715e"/>
    </g>
    <g clip-path="url(#p2832054e87)">
     <use xlink:href="#C0_0_54c6da50e2" x="211.38131" y="394.726787" style="fill: #e5715e"/>
    </g>
    <g clip-path="url(#p2832054e87)">
     <use xlink:href="#C0_0_54c6da50e2" x="253.171847" y="184.18154" style="fill: #e5715e"/>
    </g>
    <g clip-path="url(#p2832054e87)">
     <use xlink:href="#C0_0_54c6da50e2" x="216.039799" y="105.227189" style="fill: #e5715e"/>
    </g>
    <g clip-path="url(#p2832054e87)">
     <use xlink:href="#C0_0_54c6da50e2" x="248.783423" y="207.405537" style="fill: #e5715e"/>
    </g>
    <g clip-path="url(#p2832054e87)">
     <use xlink:href="#C0_0_54c6da50e2" x="234.042001" y="210.499875" style="fill: #e5715e"/>
    </g>
    <g clip-path="url(#p2832054e87)">
     <use xlink:href="#C0_0_54c6da50e2" x="225.705487" y="236.817851" style="fill: #e5715e"/>
    </g>
    <g clip-path="url(#p2832054e87)">
     <use xlink:href="#C0_0_54c6da50e2" x="243.317535" y="340.544053" style="fill: #e5715e"/>
    </g>
    <g clip-path="url(#p2832054e87)">
     <use xlink:href="#C0_0_54c6da50e2" x="255.772813" y="157.86369" style="fill: #e5715e"/>
    </g>
    <g clip-path="url(#p2832054e87)">
     <use xlink:href="#C0_0_54c6da50e2" x="226.109149" y="286.360105" style="fill: #e5715e"/>
    </g>
    <g clip-path="url(#p2832054e87)">
     <use xlink:href="#C0_0_54c6da50e2" x="259.456717" y="181.087566" style="fill: #e5715e"/>
    </g>
    <g clip-path="url(#p2832054e87)">
     <use xlink:href="#C0_0_54c6da50e2" x="210.211974" y="289.454007" style="fill: #e5715e"/>
    </g>
    <g clip-path="url(#p2832054e87)">
     <use xlink:href="#C0_0_54c6da50e2" x="213.430326" y="208.953067" style="fill: #e5715e"/>
    </g>
    <g clip-path="url(#p2832054e87)">
     <use xlink:href="#C0_0_54c6da50e2" x="251.422406" y="314.225844" style="fill: #e5715e"/>
    </g>
    <g clip-path="url(#p2832054e87)">
     <use xlink:href="#C0_0_54c6da50e2" x="218.008994" y="419.498621" style="fill: #e5715e"/>
    </g>
    <g clip-path="url(#p2832054e87)">
     <use xlink:href="#C0_0_54c6da50e2" x="249.306746" y="338.996603" style="fill: #e5715e"/>
    </g>
    <g clip-path="url(#p2832054e87)">
     <use xlink:href="#C0_0_54c6da50e2" x="222.32496" y="444.270713" style="fill: #e5715e"/>
    </g>
    <g clip-path="url(#p2832054e87)">
     <use xlink:href="#C0_0_54c6da50e2" x="232.543684" y="263.136014" style="fill: #e5715e"/>
    </g>
    <g clip-path="url(#p2832054e87)">
     <use xlink:href="#C0_0_54c6da50e2" x="243.918759" y="472.137332" style="fill: #e5715e"/>
    </g>
    <g clip-path="url(#p2832054e87)">
     <use xlink:href="#C0_0_54c6da50e2" x="229.944434" y="312.678543" style="fill: #e5715e"/>
    </g>
    <g clip-path="url(#p2832054e87)">
     <use xlink:href="#C0_0_54c6da50e2" x="218.199284" y="233.723639" style="fill: #e5715e"/>
    </g>
    <g clip-path="url(#p2832054e87)">
     <use xlink:href="#C0_0_54c6da50e2" x="224.420679" y="182.63503" style="fill: #e5715e"/>
    </g>
    <g clip-path="url(#p2832054e87)">
     <use xlink:href="#C0_0_54c6da50e2" x="211.122627" y="78.909144" style="fill: #e5715e"/>
    </g>
    <g clip-path="url(#p2832054e87)">
     <use xlink:href="#C0_0_54c6da50e2" x="215.595203" y="368.408651" style="fill: #e5715e"/>
    </g>
    <g clip-path="url(#p2832054e87)">
     <use xlink:href="#C0_0_54c6da50e2" x="214.750879" y="156.316865" style="fill: #e5715e"/>
    </g>
    <g clip-path="url(#p2832054e87)">
     <use xlink:href="#C0_0_54c6da50e2" x="219.038233" y="447.364159" style="fill: #e5715e"/>
    </g>
    <g clip-path="url(#p2832054e87)">
     <use xlink:href="#C0_0_54c6da50e2" x="219.720513" y="445.81789" style="fill: #e5715e"/>
    </g>
    <g clip-path="url(#p2832054e87)">
     <use xlink:href="#C0_0_54c6da50e2" x="220.701387" y="473.683434" style="fill: #e5715e"/>
    </g>
    <g clip-path="url(#p2832054e87)">
     <use xlink:href="#C0_0_54c6da50e2" x="230.181757" y="77.362634" style="fill: #e5715e"/>
    </g>
    <g clip-path="url(#p2832054e87)">
     <use xlink:href="#C0_0_54c6da50e2" x="220.849329" y="470.590263" style="fill: #e5715e"/>
    </g>
    <g clip-path="url(#p2832054e87)">
     <use xlink:href="#C0_0_54c6da50e2" x="259.891307" y="417.951223" style="fill: #e5715e"/>
    </g>
    <g clip-path="url(#p2832054e87)">
     <use xlink:href="#C0_0_54c6da50e2" x="212.959727" y="129.998782" style="fill: #e5715e"/>
    </g>
    <g clip-path="url(#p2832054e87)">
     <use xlink:href="#C0_0_54c6da50e2" x="213.652075" y="366.862106" style="fill: #e5715e"/>
    </g>
    <g clip-path="url(#p2832054e87)">
     <use xlink:href="#C0_0_54c6da50e2" x="260.340565" y="391.632742" style="fill: #e5715e"/>
    </g>
    <g clip-path="url(#p2832054e87)">
     <use xlink:href="#C0_0_54c6da50e2" x="249.471059" y="393.180172" style="fill: #e5715e"/>
    </g>
   </g>
   <g id="PathCollection_2">
    <defs>
     <path id="C1_0_391b828ada" d="M 0 3.5 
C 0.928211 3.5 1.81853 3.131218 2.474874 2.474874 
C 3.131218 1.81853 3.5 0.928211 3.5 -0 
C 3.5 -0.928211 3.131218 -1.81853 2.474874 -2.474874 
C 1.81853 -3.131218 0.928211 -3.5 0 -3.5 
C -0.928211 -3.5 -1.81853 -3.131218 -2.474874 -2.474874 
C -3.131218 -1.81853 -3.5 -0.928211 -3.5 0 
C -3.5 0.928211 -3.131218 1.81853 -2.474874 2.474874 
C -1.81853 3.131218 -0.928211 3.5 0 3.5 
z
"/>
    </defs>
    <g clip-path="url(#p2832054e87)">
     <use xlink:href="#C1_0_391b828ada" x="435.785572" y="501.83827" style="fill: #c14168"/>
    </g>
    <g clip-path="url(#p2832054e87)">
     <use xlink:href="#C1_0_391b828ada" x="465.242069" y="501.838244" style="fill: #c14168"/>
    </g>
    <g clip-path="url(#p2832054e87)">
     <use xlink:href="#C1_0_391b828ada" x="427.408637" y="501.83827" style="fill: #c14168"/>
    </g>
    <g clip-path="url(#p2832054e87)">
     <use xlink:href="#C1_0_391b828ada" x="444.160936" y="501.838244" style="fill: #c14168"/>
    </g>
    <g clip-path="url(#p2832054e87)">
     <use xlink:href="#C1_0_391b828ada" x="428.62929" y="501.83827" style="fill: #c14168"/>
    </g>
    <g clip-path="url(#p2832054e87)">
     <use xlink:href="#C1_0_391b828ada" x="455.816098" y="501.838281" style="fill: #c14168"/>
    </g>
    <g clip-path="url(#p2832054e87)">
     <use xlink:href="#C1_0_391b828ada" x="467.904536" y="501.838293" style="fill: #c14168"/>
    </g>
    <g clip-path="url(#p2832054e87)">
     <use xlink:href="#C1_0_391b828ada" x="437.482557" y="501.838258" style="fill: #c14168"/>
    </g>
    <g clip-path="url(#p2832054e87)">
     <use xlink:href="#C1_0_391b828ada" x="461.71211" y="501.838276" style="fill: #c14168"/>
    </g>
    <g clip-path="url(#p2832054e87)">
     <use xlink:href="#C1_0_391b828ada" x="443.514576" y="501.838235" style="fill: #c14168"/>
    </g>
    <g clip-path="url(#p2832054e87)">
     <use xlink:href="#C1_0_391b828ada" x="466.248325" y="501.838293" style="fill: #c14168"/>
    </g>
    <g clip-path="url(#p2832054e87)">
     <use xlink:href="#C1_0_391b828ada" x="470.652329" y="501.541872" style="fill: #c14168"/>
    </g>
    <g clip-path="url(#p2832054e87)">
     <use xlink:href="#C1_0_391b828ada" x="469.347875" y="501.838256" style="fill: #c14168"/>
    </g>
    <g clip-path="url(#p2832054e87)">
     <use xlink:href="#C1_0_391b828ada" x="475.99884" y="501.838253" style="fill: #c14168"/>
    </g>
    <g clip-path="url(#p2832054e87)">
     <use xlink:href="#C1_0_391b828ada" x="469.368982" y="501.838244" style="fill: #c14168"/>
    </g>
    <g clip-path="url(#p2832054e87)">
     <use xlink:href="#C1_0_391b828ada" x="453.241225" y="501.83829" style="fill: #c14168"/>
    </g>
    <g clip-path="url(#p2832054e87)">
     <use xlink:href="#C1_0_391b828ada" x="444.281746" y="501.838198" style="fill: #c14168"/>
    </g>
    <g clip-path="url(#p2832054e87)">
     <use xlink:href="#C1_0_391b828ada" x="426.48517" y="501.838278" style="fill: #c14168"/>
    </g>
    <g clip-path="url(#p2832054e87)">
     <use xlink:href="#C1_0_391b828ada" x="435.981744" y="501.838278" style="fill: #c14168"/>
    </g>
    <g clip-path="url(#p2832054e87)">
     <use xlink:href="#C1_0_391b828ada" x="428.437088" y="501.83827" style="fill: #c14168"/>
    </g>
    <g clip-path="url(#p2832054e87)">
     <use xlink:href="#C1_0_391b828ada" x="427.824577" y="501.838287" style="fill: #c14168"/>
    </g>
    <g clip-path="url(#p2832054e87)">
     <use xlink:href="#C1_0_391b828ada" x="460.119333" y="501.838227" style="fill: #c14168"/>
    </g>
    <g clip-path="url(#p2832054e87)">
     <use xlink:href="#C1_0_391b828ada" x="469.892649" y="501.838258" style="fill: #c14168"/>
    </g>
    <g clip-path="url(#p2832054e87)">
     <use xlink:href="#C1_0_391b828ada" x="428.831421" y="501.838256" style="fill: #c14168"/>
    </g>
    <g clip-path="url(#p2832054e87)">
     <use xlink:href="#C1_0_391b828ada" x="458.118844" y="501.838267" style="fill: #c14168"/>
    </g>
    <g clip-path="url(#p2832054e87)">
     <use xlink:href="#C1_0_391b828ada" x="457.584849" y="501.83825" style="fill: #c14168"/>
    </g>
    <g clip-path="url(#p2832054e87)">
     <use xlink:href="#C1_0_391b828ada" x="443.721581" y="501.838184" style="fill: #c14168"/>
    </g>
    <g clip-path="url(#p2832054e87)">
     <use xlink:href="#C1_0_391b828ada" x="426.214372" y="501.838273" style="fill: #c14168"/>
    </g>
    <g clip-path="url(#p2832054e87)">
     <use xlink:href="#C1_0_391b828ada" x="448.419077" y="501.541952" style="fill: #c14168"/>
    </g>
    <g clip-path="url(#p2832054e87)">
     <use xlink:href="#C1_0_391b828ada" x="462.836848" y="501.838253" style="fill: #c14168"/>
    </g>
    <g clip-path="url(#p2832054e87)">
     <use xlink:href="#C1_0_391b828ada" x="426.054796" y="501.838235" style="fill: #c14168"/>
    </g>
    <g clip-path="url(#p2832054e87)">
     <use xlink:href="#C1_0_391b828ada" x="445.704581" y="501.838278" style="fill: #c14168"/>
    </g>
    <g clip-path="url(#p2832054e87)">
     <use xlink:href="#C1_0_391b828ada" x="445.523987" y="501.83825" style="fill: #c14168"/>
    </g>
    <g clip-path="url(#p2832054e87)">
     <use xlink:href="#C1_0_391b828ada" x="476.523131" y="501.838264" style="fill: #c14168"/>
    </g>
    <g clip-path="url(#p2832054e87)">
     <use xlink:href="#C1_0_391b828ada" x="471.423455" y="501.838278" style="fill: #c14168"/>
    </g>
    <g clip-path="url(#p2832054e87)">
     <use xlink:href="#C1_0_391b828ada" x="424.325957" y="501.83827" style="fill: #c14168"/>
    </g>
    <g clip-path="url(#p2832054e87)">
     <use xlink:href="#C1_0_391b828ada" x="463.821139" y="501.838278" style="fill: #c14168"/>
    </g>
    <g clip-path="url(#p2832054e87)">
     <use xlink:href="#C1_0_391b828ada" x="468.258121" y="501.838253" style="fill: #c14168"/>
    </g>
    <g clip-path="url(#p2832054e87)">
     <use xlink:href="#C1_0_391b828ada" x="442.501894" y="501.838299" style="fill: #c14168"/>
    </g>
    <g clip-path="url(#p2832054e87)">
     <use xlink:href="#C1_0_391b828ada" x="472.922697" y="501.838241" style="fill: #c14168"/>
    </g>
    <g clip-path="url(#p2832054e87)">
     <use xlink:href="#C1_0_391b828ada" x="426.495395" y="501.838276" style="fill: #c14168"/>
    </g>
    <g clip-path="url(#p2832054e87)">
     <use xlink:href="#C1_0_391b828ada" x="444.183855" y="501.838258" style="fill: #c14168"/>
    </g>
    <g clip-path="url(#p2832054e87)">
     <use xlink:href="#C1_0_391b828ada" x="427.837686" y="501.838293" style="fill: #c14168"/>
    </g>
    <g clip-path="url(#p2832054e87)">
     <use xlink:href="#C1_0_391b828ada" x="455.519257" y="501.838253" style="fill: #c14168"/>
    </g>
    <g clip-path="url(#p2832054e87)">
     <use xlink:href="#C1_0_391b828ada" x="448.317742" y="501.838235" style="fill: #c14168"/>
    </g>
    <g clip-path="url(#p2832054e87)">
     <use xlink:href="#C1_0_391b828ada" x="453.924164" y="501.838284" style="fill: #c14168"/>
    </g>
    <g clip-path="url(#p2832054e87)">
     <use xlink:href="#C1_0_391b828ada" x="452.819741" y="501.838284" style="fill: #c14168"/>
    </g>
    <g clip-path="url(#p2832054e87)">
     <use xlink:href="#C1_0_391b828ada" x="448.533132" y="501.838258" style="fill: #c14168"/>
    </g>
    <g clip-path="url(#p2832054e87)">
     <use xlink:href="#C1_0_391b828ada" x="432.210842" y="501.838284" style="fill: #c14168"/>
    </g>
    <g clip-path="url(#p2832054e87)">
     <use xlink:href="#C1_0_391b828ada" x="425.883365" y="501.838278" style="fill: #c14168"/>
    </g>
   </g>
   <g id="PathCollection_3">
    <defs>
     <path id="C2_0_9114c18d3a" d="M 0 3.5 
C 0.928211 3.5 1.81853 3.131218 2.474874 2.474874 
C 3.131218 1.81853 3.5 0.928211 3.5 -0 
C 3.5 -0.928211 3.131218 -1.81853 2.474874 -2.474874 
C 1.81853 -3.131218 0.928211 -3.5 0 -3.5 
C -0.928211 -3.5 -1.81853 -3.131218 -2.474874 -2.474874 
C -3.131218 -1.81853 -3.5 -0.928211 -3.5 0 
C -3.5 0.928211 -3.131218 1.81853 -2.474874 2.474874 
C -1.81853 3.131218 -0.928211 3.5 0 3.5 
z
"/>
    </defs>
    <g clip-path="url(#p2832054e87)">
     <use xlink:href="#C2_0_9114c18d3a" x="683.306637" y="501.838235" style="fill: #863071"/>
    </g>
    <g clip-path="url(#p2832054e87)">
     <use xlink:href="#C2_0_9114c18d3a" x="653.097498" y="501.838258" style="fill: #863071"/>
    </g>
    <g clip-path="url(#p2832054e87)">
     <use xlink:href="#C2_0_9114c18d3a" x="646.112919" y="501.838278" style="fill: #863071"/>
    </g>
    <g clip-path="url(#p2832054e87)">
     <use xlink:href="#C2_0_9114c18d3a" x="683.705042" y="501.838264" style="fill: #863071"/>
    </g>
    <g clip-path="url(#p2832054e87)">
     <use xlink:href="#C2_0_9114c18d3a" x="691.201089" y="501.838235" style="fill: #863071"/>
    </g>
    <g clip-path="url(#p2832054e87)">
     <use xlink:href="#C2_0_9114c18d3a" x="684.724779" y="501.838244" style="fill: #863071"/>
    </g>
    <g clip-path="url(#p2832054e87)">
     <use xlink:href="#C2_0_9114c18d3a" x="661.394335" y="501.838241" style="fill: #863071"/>
    </g>
    <g clip-path="url(#p2832054e87)">
     <use xlink:href="#C2_0_9114c18d3a" x="649.135926" y="501.838298" style="fill: #863071"/>
    </g>
    <g clip-path="url(#p2832054e87)">
     <use xlink:href="#C2_0_9114c18d3a" x="669.422292" y="501.838258" style="fill: #863071"/>
    </g>
    <g clip-path="url(#p2832054e87)">
     <use xlink:href="#C2_0_9114c18d3a" x="687.389206" y="501.83823" style="fill: #863071"/>
    </g>
    <g clip-path="url(#p2832054e87)">
     <use xlink:href="#C2_0_9114c18d3a" x="645.805947" y="501.536216" style="fill: #863071"/>
    </g>
    <g clip-path="url(#p2832054e87)">
     <use xlink:href="#C2_0_9114c18d3a" x="656.300362" y="501.838258" style="fill: #863071"/>
    </g>
    <g clip-path="url(#p2832054e87)">
     <use xlink:href="#C2_0_9114c18d3a" x="650.88075" y="501.838253" style="fill: #863071"/>
    </g>
    <g clip-path="url(#p2832054e87)">
     <use xlink:href="#C2_0_9114c18d3a" x="674.741805" y="501.838258" style="fill: #863071"/>
    </g>
    <g clip-path="url(#p2832054e87)">
     <use xlink:href="#C2_0_9114c18d3a" x="677.130691" y="501.838278" style="fill: #863071"/>
    </g>
    <g clip-path="url(#p2832054e87)">
     <use xlink:href="#C2_0_9114c18d3a" x="687.150098" y="501.838241" style="fill: #863071"/>
    </g>
    <g clip-path="url(#p2832054e87)">
     <use xlink:href="#C2_0_9114c18d3a" x="640.921526" y="501.838258" style="fill: #863071"/>
    </g>
    <g clip-path="url(#p2832054e87)">
     <use xlink:href="#C2_0_9114c18d3a" x="662.760727" y="501.838293" style="fill: #863071"/>
    </g>
    <g clip-path="url(#p2832054e87)">
     <use xlink:href="#C2_0_9114c18d3a" x="678.778194" y="501.838253" style="fill: #863071"/>
    </g>
    <g clip-path="url(#p2832054e87)">
     <use xlink:href="#C2_0_9114c18d3a" x="673.183568" y="501.838247" style="fill: #863071"/>
    </g>
    <g clip-path="url(#p2832054e87)">
     <use xlink:href="#C2_0_9114c18d3a" x="667.266544" y="501.838273" style="fill: #863071"/>
    </g>
    <g clip-path="url(#p2832054e87)">
     <use xlink:href="#C2_0_9114c18d3a" x="682.293483" y="501.838253" style="fill: #863071"/>
    </g>
    <g clip-path="url(#p2832054e87)">
     <use xlink:href="#C2_0_9114c18d3a" x="667.029812" y="501.83827" style="fill: #863071"/>
    </g>
    <g clip-path="url(#p2832054e87)">
     <use xlink:href="#C2_0_9114c18d3a" x="683.185626" y="501.83827" style="fill: #863071"/>
    </g>
    <g clip-path="url(#p2832054e87)">
     <use xlink:href="#C2_0_9114c18d3a" x="643.202084" y="501.838244" style="fill: #863071"/>
    </g>
    <g clip-path="url(#p2832054e87)">
     <use xlink:href="#C2_0_9114c18d3a" x="668.496051" y="501.838276" style="fill: #863071"/>
    </g>
    <g clip-path="url(#p2832054e87)">
     <use xlink:href="#C2_0_9114c18d3a" x="673.497605" y="501.838276" style="fill: #863071"/>
    </g>
    <g clip-path="url(#p2832054e87)">
     <use xlink:href="#C2_0_9114c18d3a" x="665.416031" y="501.83827" style="fill: #863071"/>
    </g>
    <g clip-path="url(#p2832054e87)">
     <use xlink:href="#C2_0_9114c18d3a" x="670.718174" y="501.838276" style="fill: #863071"/>
    </g>
    <g clip-path="url(#p2832054e87)">
     <use xlink:href="#C2_0_9114c18d3a" x="656.57369" y="501.83825" style="fill: #863071"/>
    </g>
    <g clip-path="url(#p2832054e87)">
     <use xlink:href="#C2_0_9114c18d3a" x="689.749682" y="501.838256" style="fill: #863071"/>
    </g>
    <g clip-path="url(#p2832054e87)">
     <use xlink:href="#C2_0_9114c18d3a" x="649.799836" y="501.838255" style="fill: #863071"/>
    </g>
    <g clip-path="url(#p2832054e87)">
     <use xlink:href="#C2_0_9114c18d3a" x="691.826074" y="501.838256" style="fill: #863071"/>
    </g>
    <g clip-path="url(#p2832054e87)">
     <use xlink:href="#C2_0_9114c18d3a" x="673.853113" y="501.838247" style="fill: #863071"/>
    </g>
    <g clip-path="url(#p2832054e87)">
     <use xlink:href="#C2_0_9114c18d3a" x="659.414298" y="501.838258" style="fill: #863071"/>
    </g>
    <g clip-path="url(#p2832054e87)">
     <use xlink:href="#C2_0_9114c18d3a" x="667.27154" y="501.838278" style="fill: #863071"/>
    </g>
    <g clip-path="url(#p2832054e87)">
     <use xlink:href="#C2_0_9114c18d3a" x="671.014382" y="501.838264" style="fill: #863071"/>
    </g>
    <g clip-path="url(#p2832054e87)">
     <use xlink:href="#C2_0_9114c18d3a" x="668.70202" y="501.838267" style="fill: #863071"/>
    </g>
    <g clip-path="url(#p2832054e87)">
     <use xlink:href="#C2_0_9114c18d3a" x="645.314741" y="501.838264" style="fill: #863071"/>
    </g>
    <g clip-path="url(#p2832054e87)">
     <use xlink:href="#C2_0_9114c18d3a" x="645.533266" y="501.838287" style="fill: #863071"/>
    </g>
    <g clip-path="url(#p2832054e87)">
     <use xlink:href="#C2_0_9114c18d3a" x="673.189474" y="501.838253" style="fill: #863071"/>
    </g>
    <g clip-path="url(#p2832054e87)">
     <use xlink:href="#C2_0_9114c18d3a" x="656.301224" y="501.536345" style="fill: #863071"/>
    </g>
    <g clip-path="url(#p2832054e87)">
     <use xlink:href="#C2_0_9114c18d3a" x="653.947813" y="501.838267" style="fill: #863071"/>
    </g>
    <g clip-path="url(#p2832054e87)">
     <use xlink:href="#C2_0_9114c18d3a" x="689.201734" y="501.838261" style="fill: #863071"/>
    </g>
    <g clip-path="url(#p2832054e87)">
     <use xlink:href="#C2_0_9114c18d3a" x="662.548738" y="501.838278" style="fill: #863071"/>
    </g>
    <g clip-path="url(#p2832054e87)">
     <use xlink:href="#C2_0_9114c18d3a" x="671.387175" y="501.838296" style="fill: #863071"/>
    </g>
    <g clip-path="url(#p2832054e87)">
     <use xlink:href="#C2_0_9114c18d3a" x="652.351316" y="501.838273" style="fill: #863071"/>
    </g>
    <g clip-path="url(#p2832054e87)">
     <use xlink:href="#C2_0_9114c18d3a" x="664.156391" y="501.838293" style="fill: #863071"/>
    </g>
    <g clip-path="url(#p2832054e87)">
     <use xlink:href="#C2_0_9114c18d3a" x="671.927781" y="501.838276" style="fill: #863071"/>
    </g>
    <g clip-path="url(#p2832054e87)">
     <use xlink:href="#C2_0_9114c18d3a" x="653.871461" y="501.838287" style="fill: #863071"/>
    </g>
   </g>
   <g id="line2d_9"/>
   <g id="line2d_10"/>
   <g id="line2d_11"/>
   <g id="text_12">
    <!-- Timing Accuracy: DY vs. STATIC (LB, EGS) -->
    <g transform="translate(326.663125 20.88) scale(0.12 -0.12)">
     <defs>
      <path id="DejaVuSans-54" d="M -19 4666 
L 3928 4666 
L 3928 4134 
L 2272 4134 
L 2272 0 
L 1638 0 
L 1638 4134 
L -19 4134 
L -19 4666 
z
" transform="scale(0.015625)"/>
      <path id="DejaVuSans-6d" d="M 3328 2828 
Q 3544 3216 3844 3400 
Q 4144 3584 4550 3584 
Q 5097 3584 5394 3201 
Q 5691 2819 5691 2113 
L 5691 0 
L 5113 0 
L 5113 2094 
Q 5113 2597 4934 2840 
Q 4756 3084 4391 3084 
Q 3944 3084 3684 2787 
Q 3425 2491 3425 1978 
L 3425 0 
L 2847 0 
L 2847 2094 
Q 2847 2600 2669 2842 
Q 2491 3084 2119 3084 
Q 1678 3084 1418 2786 
Q 1159 2488 1159 1978 
L 1159 0 
L 581 0 
L 581 3500 
L 1159 3500 
L 1159 2956 
Q 1356 3278 1631 3431 
Q 1906 3584 2284 3584 
Q 2666 3584 2933 3390 
Q 3200 3197 3328 2828 
z
" transform="scale(0.015625)"/>
      <path id="DejaVuSans-41" d="M 2188 4044 
L 1331 1722 
L 3047 1722 
L 2188 4044 
z
M 1831 4666 
L 2547 4666 
L 4325 0 
L 3669 0 
L 3244 1197 
L 1141 1197 
L 716 0 
L 50 0 
L 1831 4666 
z
" transform="scale(0.015625)"/>
      <path id="DejaVuSans-79" d="M 2059 -325 
Q 1816 -950 1584 -1140 
Q 1353 -1331 966 -1331 
L 506 -1331 
L 506 -850 
L 844 -850 
Q 1081 -850 1212 -737 
Q 1344 -625 1503 -206 
L 1606 56 
L 191 3500 
L 800 3500 
L 1894 763 
L 2988 3500 
L 3597 3500 
L 2059 -325 
z
" transform="scale(0.015625)"/>
      <path id="DejaVuSans-3a" d="M 750 794 
L 1409 794 
L 1409 0 
L 750 0 
L 750 794 
z
M 750 3309 
L 1409 3309 
L 1409 2516 
L 750 2516 
L 750 3309 
z
" transform="scale(0.015625)"/>
      <path id="DejaVuSans-59" d="M -13 4666 
L 666 4666 
L 1959 2747 
L 3244 4666 
L 3922 4666 
L 2272 2222 
L 2272 0 
L 1638 0 
L 1638 2222 
L -13 4666 
z
" transform="scale(0.015625)"/>
      <path id="DejaVuSans-76" d="M 191 3500 
L 800 3500 
L 1894 563 
L 2988 3500 
L 3597 3500 
L 2284 0 
L 1503 0 
L 191 3500 
z
" transform="scale(0.015625)"/>
      <path id="DejaVuSans-53" d="M 3425 4513 
L 3425 3897 
Q 3066 4069 2747 4153 
Q 2428 4238 2131 4238 
Q 1616 4238 1336 4038 
Q 1056 3838 1056 3469 
Q 1056 3159 1242 3001 
Q 1428 2844 1947 2747 
L 2328 2669 
Q 3034 2534 3370 2195 
Q 3706 1856 3706 1288 
Q 3706 609 3251 259 
Q 2797 -91 1919 -91 
Q 1588 -91 1214 -16 
Q 841 59 441 206 
L 441 856 
Q 825 641 1194 531 
Q 1563 422 1919 422 
Q 2459 422 2753 634 
Q 3047 847 3047 1241 
Q 3047 1584 2836 1778 
Q 2625 1972 2144 2069 
L 1759 2144 
Q 1053 2284 737 2584 
Q 422 2884 422 3419 
Q 422 4038 858 4394 
Q 1294 4750 2059 4750 
Q 2388 4750 2728 4690 
Q 3069 4631 3425 4513 
z
" transform="scale(0.015625)"/>
      <path id="DejaVuSans-49" d="M 628 4666 
L 1259 4666 
L 1259 0 
L 628 0 
L 628 4666 
z
" transform="scale(0.015625)"/>
      <path id="DejaVuSans-43" d="M 4122 4306 
L 4122 3641 
Q 3803 3938 3442 4084 
Q 3081 4231 2675 4231 
Q 1875 4231 1450 3742 
Q 1025 3253 1025 2328 
Q 1025 1406 1450 917 
Q 1875 428 2675 428 
Q 3081 428 3442 575 
Q 3803 722 4122 1019 
L 4122 359 
Q 3791 134 3420 21 
Q 3050 -91 2638 -91 
Q 1578 -91 968 557 
Q 359 1206 359 2328 
Q 359 3453 968 4101 
Q 1578 4750 2638 4750 
Q 3056 4750 3426 4639 
Q 3797 4528 4122 4306 
z
" transform="scale(0.015625)"/>
      <path id="DejaVuSans-42" d="M 1259 2228 
L 1259 519 
L 2272 519 
Q 2781 519 3026 730 
Q 3272 941 3272 1375 
Q 3272 1813 3026 2020 
Q 2781 2228 2272 2228 
L 1259 2228 
z
M 1259 4147 
L 1259 2741 
L 2194 2741 
Q 2656 2741 2882 2914 
Q 3109 3088 3109 3444 
Q 3109 3797 2882 3972 
Q 2656 4147 2194 4147 
L 1259 4147 
z
M 628 4666 
L 2241 4666 
Q 2963 4666 3353 4366 
Q 3744 4066 3744 3513 
Q 3744 3084 3544 2831 
Q 3344 2578 2956 2516 
Q 3422 2416 3680 2098 
Q 3938 1781 3938 1306 
Q 3938 681 3513 340 
Q 3088 0 2303 0 
L 628 0 
L 628 4666 
z
" transform="scale(0.015625)"/>
      <path id="DejaVuSans-45" d="M 628 4666 
L 3578 4666 
L 3578 4134 
L 1259 4134 
L 1259 2753 
L 3481 2753 
L 3481 2222 
L 1259 2222 
L 1259 531 
L 3634 531 
L 3634 0 
L 628 0 
L 628 4666 
z
" transform="scale(0.015625)"/>
     </defs>
     <use xlink:href="#DejaVuSans-54"/>
     <use xlink:href="#DejaVuSans-69" transform="translate(57.958984 0)"/>
     <use xlink:href="#DejaVuSans-6d" transform="translate(85.742188 0)"/>
     <use xlink:href="#DejaVuSans-69" transform="translate(183.154297 0)"/>
     <use xlink:href="#DejaVuSans-6e" transform="translate(210.9375 0)"/>
     <use xlink:href="#DejaVuSans-67" transform="translate(274.316406 0)"/>
     <use xlink:href="#DejaVuSans-20" transform="translate(337.792969 0)"/>
     <use xlink:href="#DejaVuSans-41" transform="translate(369.580078 0)"/>
     <use xlink:href="#DejaVuSans-63" transform="translate(436.238281 0)"/>
     <use xlink:href="#DejaVuSans-63" transform="translate(491.21875 0)"/>
     <use xlink:href="#DejaVuSans-75" transform="translate(546.199219 0)"/>
     <use xlink:href="#DejaVuSans-72" transform="translate(609.578125 0)"/>
     <use xlink:href="#DejaVuSans-61" transform="translate(650.691406 0)"/>
     <use xlink:href="#DejaVuSans-63" transform="translate(711.970703 0)"/>
     <use xlink:href="#DejaVuSans-79" transform="translate(766.951172 0)"/>
     <use xlink:href="#DejaVuSans-3a" transform="translate(818.880859 0)"/>
     <use xlink:href="#DejaVuSans-20" transform="translate(852.572266 0)"/>
     <use xlink:href="#DejaVuSans-44" transform="translate(884.359375 0)"/>
     <use xlink:href="#DejaVuSans-59" transform="translate(955.861328 0)"/>
     <use xlink:href="#DejaVuSans-20" transform="translate(1016.945312 0)"/>
     <use xlink:href="#DejaVuSans-76" transform="translate(1048.732422 0)"/>
     <use xlink:href="#DejaVuSans-73" transform="translate(1107.912109 0)"/>
     <use xlink:href="#DejaVuSans-2e" transform="translate(1160.011719 0)"/>
     <use xlink:href="#DejaVuSans-20" transform="translate(1191.798828 0)"/>
     <use xlink:href="#DejaVuSans-53" transform="translate(1223.585938 0)"/>
     <use xlink:href="#DejaVuSans-54" transform="translate(1287.0625 0)"/>
     <use xlink:href="#DejaVuSans-41" transform="translate(1340.396484 0)"/>
     <use xlink:href="#DejaVuSans-54" transform="translate(1401.054688 0)"/>
     <use xlink:href="#DejaVuSans-49" transform="translate(1462.138672 0)"/>
     <use xlink:href="#DejaVuSans-43" transform="translate(1491.630859 0)"/>
     <use xlink:href="#DejaVuSans-20" transform="translate(1561.455078 0)"/>
     <use xlink:href="#DejaVuSans-28" transform="translate(1593.242188 0)"/>
     <use xlink:href="#DejaVuSans-4c" transform="translate(1632.255859 0)"/>
     <use xlink:href="#DejaVuSans-42" transform="translate(1687.96875 0)"/>
     <use xlink:href="#DejaVuSans-2c" transform="translate(1756.572266 0)"/>
     <use xlink:href="#DejaVuSans-20" transform="translate(1788.359375 0)"/>
     <use xlink:href="#DejaVuSans-45" transform="translate(1820.146484 0)"/>
     <use xlink:href="#DejaVuSans-47" transform="translate(1883.330078 0)"/>
     <use xlink:href="#DejaVuSans-53" transform="translate(1960.820312 0)"/>
     <use xlink:href="#DejaVuSans-29" transform="translate(2024.296875 0)"/>
    </g>
   </g>
   <g id="legend_1">
    <g id="patch_7">
     <path d="M 793.784375 93.5925 
L 846.2 93.5925 
Q 848.2 93.5925 848.2 91.5925 
L 848.2 33.88 
Q 848.2 31.88 846.2 31.88 
L 793.784375 31.88 
Q 791.784375 31.88 791.784375 33.88 
L 791.784375 91.5925 
Q 791.784375 93.5925 793.784375 93.5925 
z
" style="fill: #ffffff; opacity: 0.8; stroke: #cccccc; stroke-linejoin: miter"/>
    </g>
    <g id="text_13">
     <!-- Dataset -->
     <g transform="translate(800.4125 43.478437) scale(0.1 -0.1)">
      <use xlink:href="#DejaVuSans-44"/>
      <use xlink:href="#DejaVuSans-61" transform="translate(77.001953 0)"/>
      <use xlink:href="#DejaVuSans-74" transform="translate(138.28125 0)"/>
      <use xlink:href="#DejaVuSans-61" transform="translate(177.490234 0)"/>
      <use xlink:href="#DejaVuSans-73" transform="translate(238.769531 0)"/>
      <use xlink:href="#DejaVuSans-65" transform="translate(290.869141 0)"/>
      <use xlink:href="#DejaVuSans-74" transform="translate(352.392578 0)"/>
     </g>
    </g>
    <g id="line2d_12">
     <defs>
      <path id="m2a2de74964" d="M 0 3.5 
C 0.928211 3.5 1.81853 3.131218 2.474874 2.474874 
C 3.131218 1.81853 3.5 0.928211 3.5 0 
C 3.5 -0.928211 3.131218 -1.81853 2.474874 -2.474874 
C 1.81853 -3.131218 0.928211 -3.5 0 -3.5 
C -0.928211 -3.5 -1.81853 -3.131218 -2.474874 -2.474874 
C -3.131218 -1.81853 -3.5 -0.928211 -3.5 0 
C -3.5 0.928211 -3.131218 1.81853 -2.474874 2.474874 
C -1.81853 3.131218 -0.928211 3.5 0 3.5 
z
"/>
     </defs>
     <g>
      <use xlink:href="#m2a2de74964" x="805.784375" y="54.656562" style="fill: #e5715e"/>
     </g>
    </g>
    <g id="text_14">
     <!-- DY -->
     <g transform="translate(823.784375 58.156562) scale(0.1 -0.1)">
      <use xlink:href="#DejaVuSans-44"/>
      <use xlink:href="#DejaVuSans-59" transform="translate(71.501953 0)"/>
     </g>
    </g>
    <g id="line2d_13">
     <defs>
      <path id="m7ddb09efce" d="M 0 3.5 
C 0.928211 3.5 1.81853 3.131218 2.474874 2.474874 
C 3.131218 1.81853 3.5 0.928211 3.5 0 
C 3.5 -0.928211 3.131218 -1.81853 2.474874 -2.474874 
C 1.81853 -3.131218 0.928211 -3.5 0 -3.5 
C -0.928211 -3.5 -1.81853 -3.131218 -2.474874 -2.474874 
C -3.131218 -1.81853 -3.5 -0.928211 -3.5 0 
C -3.5 0.928211 -3.131218 1.81853 -2.474874 2.474874 
C -1.81853 3.131218 -0.928211 3.5 0 3.5 
z
"/>
     </defs>
     <g>
      <use xlink:href="#m7ddb09efce" x="805.784375" y="69.334687" style="fill: #c14168"/>
     </g>
    </g>
    <g id="text_15">
     <!-- LB -->
     <g transform="translate(823.784375 72.834687) scale(0.1 -0.1)">
      <use xlink:href="#DejaVuSans-4c"/>
      <use xlink:href="#DejaVuSans-42" transform="translate(55.712891 0)"/>
     </g>
    </g>
    <g id="line2d_14">
     <defs>
      <path id="m8a25d81c1f" d="M 0 3.5 
C 0.928211 3.5 1.81853 3.131218 2.474874 2.474874 
C 3.131218 1.81853 3.5 0.928211 3.5 0 
C 3.5 -0.928211 3.131218 -1.81853 2.474874 -2.474874 
C 1.81853 -3.131218 0.928211 -3.5 0 -3.5 
C -0.928211 -3.5 -1.81853 -3.131218 -2.474874 -2.474874 
C -3.131218 -1.81853 -3.5 -0.928211 -3.5 0 
C -3.5 0.928211 -3.131218 1.81853 -2.474874 2.474874 
C -1.81853 3.131218 -0.928211 3.5 0 3.5 
z
"/>
     </defs>
     <g>
      <use xlink:href="#m8a25d81c1f" x="805.784375" y="84.012812" style="fill: #863071"/>
     </g>
    </g>
    <g id="text_16">
     <!-- EGS -->
     <g transform="translate(823.784375 87.512812) scale(0.1 -0.1)">
      <use xlink:href="#DejaVuSans-45"/>
      <use xlink:href="#DejaVuSans-47" transform="translate(63.183594 0)"/>
      <use xlink:href="#DejaVuSans-53" transform="translate(140.673828 0)"/>
     </g>
    </g>
   </g>
  </g>
 </g>
 <defs>
  <clipPath id="p2832054e87">
   <rect x="47.72" y="26.88" width="805.48" height="497.57536"/>
  </clipPath>
 </defs>
</svg>
