<?xml version="1.0" encoding="utf-8" standalone="no"?>
<!DOCTYPE svg PUBLIC "-//W3C//DTD SVG 1.1//EN"
  "http://www.w3.org/Graphics/SVG/1.1/DTD/svg11.dtd">
<svg xmlns:xlink="http://www.w3.org/1999/xlink" width="864pt" height="576pt" viewBox="0 0 864 576" xmlns="http://www.w3.org/2000/svg" version="1.1">
 <metadata>
  <rdf:RDF xmlns:dc="http://purl.org/dc/elements/1.1/" xmlns:cc="http://creativecommons.org/ns#" xmlns:rdf="http://www.w3.org/1999/02/22-rdf-syntax-ns#">
   <cc:Work>
    <dc:type rdf:resource="http://purl.org/dc/dcmitype/StillImage"/>
    <dc:date>2025-03-28T12:55:51.546677</dc:date>
    <dc:format>image/svg+xml</dc:format>
    <dc:creator>
     <cc:Agent>
      <dc:title>Matplotlib v3.10.1, https://matplotlib.org/</dc:title>
     </cc:Agent>
    </dc:creator>
   </cc:Work>
  </rdf:RDF>
 </metadata>
 <defs>
  <style type="text/css">*{stroke-linejoin: round; stroke-linecap: butt}</style>
 </defs>
 <g id="figure_1">
  <g id="patch_1">
   <path d="M 0 576 
L 864 576 
L 864 0 
L 0 0 
z
" style="fill: #ffffff"/>
  </g>
  <g id="axes_1">
   <g id="patch_2">
    <path d="M 63.47 486.780711 
L 853.2 486.780711 
L 853.2 26.88 
L 63.47 26.88 
z
" style="fill: #ffffff"/>
   </g>
   <g id="patch_3">
    <path d="M 142.443 473.694582 
L 142.443 473.694582 
L 142.443 473.694582 
L 142.443 473.694582 
z
" clip-path="url(#p981ef99f90)" style="fill: #d47d6f; stroke: #373737; stroke-linejoin: miter"/>
   </g>
   <g id="patch_4">
    <path d="M 142.443 473.694582 
L 142.443 473.694582 
L 142.443 473.694582 
L 142.443 473.694582 
z
" clip-path="url(#p981ef99f90)" style="fill: #b1516e; stroke: #373737; stroke-linejoin: miter"/>
   </g>
   <g id="patch_5">
    <path d="M 142.443 473.694582 
L 142.443 473.694582 
L 142.443 473.694582 
L 142.443 473.694582 
z
" clip-path="url(#p981ef99f90)" style="fill: #7b3b6b; stroke: #373737; stroke-linejoin: miter"/>
   </g>
   <g id="matplotlib.axis_1">
    <g id="xtick_1">
     <g id="line2d_1">
      <defs>
       <path id="m207093593b" d="M 0 0 
L 0 3.5 
" style="stroke: #000000; stroke-width: 0.8"/>
      </defs>
      <g>
       <use xlink:href="#m207093593b" x="142.443" y="486.780711" style="stroke: #000000; stroke-width: 0.8"/>
      </g>
     </g>
     <g id="text_1">
      <!-- worker0, 0 -->
      <g transform="translate(125.591762 536.75844) rotate(-45) scale(0.1 -0.1)">
       <defs>
        <path id="DejaVuSans-77" d="M 269 3500 
L 844 3500 
L 1563 769 
L 2278 3500 
L 2956 3500 
L 3675 769 
L 4391 3500 
L 4966 3500 
L 4050 0 
L 3372 0 
L 2619 2869 
L 1863 0 
L 1184 0 
L 269 3500 
z
" transform="scale(0.015625)"/>
        <path id="DejaVuSans-6f" d="M 1959 3097 
Q 1497 3097 1228 2736 
Q 959 2375 959 1747 
Q 959 1119 1226 758 
Q 1494 397 1959 397 
Q 2419 397 2687 759 
Q 2956 1122 2956 1747 
Q 2956 2369 2687 2733 
Q 2419 3097 1959 3097 
z
M 1959 3584 
Q 2709 3584 3137 3096 
Q 3566 2609 3566 1747 
Q 3566 888 3137 398 
Q 2709 -91 1959 -91 
Q 1206 -91 779 398 
Q 353 888 353 1747 
Q 353 2609 779 3096 
Q 1206 3584 1959 3584 
z
" transform="scale(0.015625)"/>
        <path id="DejaVuSans-72" d="M 2631 2963 
Q 2534 3019 2420 3045 
Q 2306 3072 2169 3072 
Q 1681 3072 1420 2755 
Q 1159 2438 1159 1844 
L 1159 0 
L 581 0 
L 581 3500 
L 1159 3500 
L 1159 2956 
Q 1341 3275 1631 3429 
Q 1922 3584 2338 3584 
Q 2397 3584 2469 3576 
Q 2541 3569 2628 3553 
L 2631 2963 
z
" transform="scale(0.015625)"/>
        <path id="DejaVuSans-6b" d="M 581 4863 
L 1159 4863 
L 1159 1991 
L 2875 3500 
L 3609 3500 
L 1753 1863 
L 3688 0 
L 2938 0 
L 1159 1709 
L 1159 0 
L 581 0 
L 581 4863 
z
" transform="scale(0.015625)"/>
        <path id="DejaVuSans-65" d="M 3597 1894 
L 3597 1613 
L 953 1613 
Q 991 1019 1311 708 
Q 1631 397 2203 397 
Q 2534 397 2845 478 
Q 3156 559 3463 722 
L 3463 178 
Q 3153 47 2828 -22 
Q 2503 -91 2169 -91 
Q 1331 -91 842 396 
Q 353 884 353 1716 
Q 353 2575 817 3079 
Q 1281 3584 2069 3584 
Q 2775 3584 3186 3129 
Q 3597 2675 3597 1894 
z
M 3022 2063 
Q 3016 2534 2758 2815 
Q 2500 3097 2075 3097 
Q 1594 3097 1305 2825 
Q 1016 2553 972 2059 
L 3022 2063 
z
" transform="scale(0.015625)"/>
        <path id="DejaVuSans-30" d="M 2034 4250 
Q 1547 4250 1301 3770 
Q 1056 3291 1056 2328 
Q 1056 1369 1301 889 
Q 1547 409 2034 409 
Q 2525 409 2770 889 
Q 3016 1369 3016 2328 
Q 3016 3291 2770 3770 
Q 2525 4250 2034 4250 
z
M 2034 4750 
Q 2819 4750 3233 4129 
Q 3647 3509 3647 2328 
Q 3647 1150 3233 529 
Q 2819 -91 2034 -91 
Q 1250 -91 836 529 
Q 422 1150 422 2328 
Q 422 3509 836 4129 
Q 1250 4750 2034 4750 
z
" transform="scale(0.015625)"/>
        <path id="DejaVuSans-2c" d="M 750 794 
L 1409 794 
L 1409 256 
L 897 -744 
L 494 -744 
L 750 256 
L 750 794 
z
" transform="scale(0.015625)"/>
        <path id="DejaVuSans-20" transform="scale(0.015625)"/>
       </defs>
       <use xlink:href="#DejaVuSans-77"/>
       <use xlink:href="#DejaVuSans-6f" transform="translate(81.787109 0)"/>
       <use xlink:href="#DejaVuSans-72" transform="translate(142.96875 0)"/>
       <use xlink:href="#DejaVuSans-6b" transform="translate(184.082031 0)"/>
       <use xlink:href="#DejaVuSans-65" transform="translate(238.367188 0)"/>
       <use xlink:href="#DejaVuSans-72" transform="translate(299.890625 0)"/>
       <use xlink:href="#DejaVuSans-30" transform="translate(341.003906 0)"/>
       <use xlink:href="#DejaVuSans-2c" transform="translate(404.626953 0)"/>
       <use xlink:href="#DejaVuSans-20" transform="translate(436.414062 0)"/>
       <use xlink:href="#DejaVuSans-30" transform="translate(468.201172 0)"/>
      </g>
     </g>
    </g>
    <g id="xtick_2">
     <g id="line2d_2">
      <g>
       <use xlink:href="#m207093593b" x="300.389" y="486.780711" style="stroke: #000000; stroke-width: 0.8"/>
      </g>
     </g>
     <g id="text_2">
      <!-- worker1, 0 -->
      <g transform="translate(283.537762 536.75844) rotate(-45) scale(0.1 -0.1)">
       <defs>
        <path id="DejaVuSans-31" d="M 794 531 
L 1825 531 
L 1825 4091 
L 703 3866 
L 703 4441 
L 1819 4666 
L 2450 4666 
L 2450 531 
L 3481 531 
L 3481 0 
L 794 0 
L 794 531 
z
" transform="scale(0.015625)"/>
       </defs>
       <use xlink:href="#DejaVuSans-77"/>
       <use xlink:href="#DejaVuSans-6f" transform="translate(81.787109 0)"/>
       <use xlink:href="#DejaVuSans-72" transform="translate(142.96875 0)"/>
       <use xlink:href="#DejaVuSans-6b" transform="translate(184.082031 0)"/>
       <use xlink:href="#DejaVuSans-65" transform="translate(238.367188 0)"/>
       <use xlink:href="#DejaVuSans-72" transform="translate(299.890625 0)"/>
       <use xlink:href="#DejaVuSans-31" transform="translate(341.003906 0)"/>
       <use xlink:href="#DejaVuSans-2c" transform="translate(404.626953 0)"/>
       <use xlink:href="#DejaVuSans-20" transform="translate(436.414062 0)"/>
       <use xlink:href="#DejaVuSans-30" transform="translate(468.201172 0)"/>
      </g>
     </g>
    </g>
    <g id="xtick_3">
     <g id="line2d_3">
      <g>
       <use xlink:href="#m207093593b" x="458.335" y="486.780711" style="stroke: #000000; stroke-width: 0.8"/>
      </g>
     </g>
     <g id="text_3">
      <!-- loopOpener, 1 -->
      <g transform="translate(435.163442 549.399079) rotate(-45) scale(0.1 -0.1)">
       <defs>
        <path id="DejaVuSans-6c" d="M 603 4863 
L 1178 4863 
L 1178 0 
L 603 0 
L 603 4863 
z
" transform="scale(0.015625)"/>
        <path id="DejaVuSans-70" d="M 1159 525 
L 1159 -1331 
L 581 -1331 
L 581 3500 
L 1159 3500 
L 1159 2969 
Q 1341 3281 1617 3432 
Q 1894 3584 2278 3584 
Q 2916 3584 3314 3078 
Q 3713 2572 3713 1747 
Q 3713 922 3314 415 
Q 2916 -91 2278 -91 
Q 1894 -91 1617 61 
Q 1341 213 1159 525 
z
M 3116 1747 
Q 3116 2381 2855 2742 
Q 2594 3103 2138 3103 
Q 1681 3103 1420 2742 
Q 1159 2381 1159 1747 
Q 1159 1113 1420 752 
Q 1681 391 2138 391 
Q 2594 391 2855 752 
Q 3116 1113 3116 1747 
z
" transform="scale(0.015625)"/>
        <path id="DejaVuSans-4f" d="M 2522 4238 
Q 1834 4238 1429 3725 
Q 1025 3213 1025 2328 
Q 1025 1447 1429 934 
Q 1834 422 2522 422 
Q 3209 422 3611 934 
Q 4013 1447 4013 2328 
Q 4013 3213 3611 3725 
Q 3209 4238 2522 4238 
z
M 2522 4750 
Q 3503 4750 4090 4092 
Q 4678 3434 4678 2328 
Q 4678 1225 4090 567 
Q 3503 -91 2522 -91 
Q 1538 -91 948 565 
Q 359 1222 359 2328 
Q 359 3434 948 4092 
Q 1538 4750 2522 4750 
z
" transform="scale(0.015625)"/>
        <path id="DejaVuSans-6e" d="M 3513 2113 
L 3513 0 
L 2938 0 
L 2938 2094 
Q 2938 2591 2744 2837 
Q 2550 3084 2163 3084 
Q 1697 3084 1428 2787 
Q 1159 2491 1159 1978 
L 1159 0 
L 581 0 
L 581 3500 
L 1159 3500 
L 1159 2956 
Q 1366 3272 1645 3428 
Q 1925 3584 2291 3584 
Q 2894 3584 3203 3211 
Q 3513 2838 3513 2113 
z
" transform="scale(0.015625)"/>
       </defs>
       <use xlink:href="#DejaVuSans-6c"/>
       <use xlink:href="#DejaVuSans-6f" transform="translate(27.783203 0)"/>
       <use xlink:href="#DejaVuSans-6f" transform="translate(88.964844 0)"/>
       <use xlink:href="#DejaVuSans-70" transform="translate(150.146484 0)"/>
       <use xlink:href="#DejaVuSans-4f" transform="translate(213.623047 0)"/>
       <use xlink:href="#DejaVuSans-70" transform="translate(292.333984 0)"/>
       <use xlink:href="#DejaVuSans-65" transform="translate(355.810547 0)"/>
       <use xlink:href="#DejaVuSans-6e" transform="translate(417.333984 0)"/>
       <use xlink:href="#DejaVuSans-65" transform="translate(480.712891 0)"/>
       <use xlink:href="#DejaVuSans-72" transform="translate(542.236328 0)"/>
       <use xlink:href="#DejaVuSans-2c" transform="translate(583.349609 0)"/>
       <use xlink:href="#DejaVuSans-20" transform="translate(615.136719 0)"/>
       <use xlink:href="#DejaVuSans-31" transform="translate(646.923828 0)"/>
      </g>
     </g>
    </g>
    <g id="xtick_4">
     <g id="line2d_4">
      <g>
       <use xlink:href="#m207093593b" x="616.281" y="486.780711" style="stroke: #000000; stroke-width: 0.8"/>
      </g>
     </g>
     <g id="text_4">
      <!-- loopOpener, 0 -->
      <g transform="translate(593.109442 549.399079) rotate(-45) scale(0.1 -0.1)">
       <use xlink:href="#DejaVuSans-6c"/>
       <use xlink:href="#DejaVuSans-6f" transform="translate(27.783203 0)"/>
       <use xlink:href="#DejaVuSans-6f" transform="translate(88.964844 0)"/>
       <use xlink:href="#DejaVuSans-70" transform="translate(150.146484 0)"/>
       <use xlink:href="#DejaVuSans-4f" transform="translate(213.623047 0)"/>
       <use xlink:href="#DejaVuSans-70" transform="translate(292.333984 0)"/>
       <use xlink:href="#DejaVuSans-65" transform="translate(355.810547 0)"/>
       <use xlink:href="#DejaVuSans-6e" transform="translate(417.333984 0)"/>
       <use xlink:href="#DejaVuSans-65" transform="translate(480.712891 0)"/>
       <use xlink:href="#DejaVuSans-72" transform="translate(542.236328 0)"/>
       <use xlink:href="#DejaVuSans-2c" transform="translate(583.349609 0)"/>
       <use xlink:href="#DejaVuSans-20" transform="translate(615.136719 0)"/>
       <use xlink:href="#DejaVuSans-30" transform="translate(646.923828 0)"/>
      </g>
     </g>
    </g>
    <g id="xtick_5">
     <g id="line2d_5">
      <g>
       <use xlink:href="#m207093593b" x="774.227" y="486.780711" style="stroke: #000000; stroke-width: 0.8"/>
      </g>
     </g>
     <g id="text_5">
      <!-- worker2, 0 -->
      <g transform="translate(757.375762 536.75844) rotate(-45) scale(0.1 -0.1)">
       <defs>
        <path id="DejaVuSans-32" d="M 1228 531 
L 3431 531 
L 3431 0 
L 469 0 
L 469 531 
Q 828 903 1448 1529 
Q 2069 2156 2228 2338 
Q 2531 2678 2651 2914 
Q 2772 3150 2772 3378 
Q 2772 3750 2511 3984 
Q 2250 4219 1831 4219 
Q 1534 4219 1204 4116 
Q 875 4013 500 3803 
L 500 4441 
Q 881 4594 1212 4672 
Q 1544 4750 1819 4750 
Q 2544 4750 2975 4387 
Q 3406 4025 3406 3419 
Q 3406 3131 3298 2873 
Q 3191 2616 2906 2266 
Q 2828 2175 2409 1742 
Q 1991 1309 1228 531 
z
" transform="scale(0.015625)"/>
       </defs>
       <use xlink:href="#DejaVuSans-77"/>
       <use xlink:href="#DejaVuSans-6f" transform="translate(81.787109 0)"/>
       <use xlink:href="#DejaVuSans-72" transform="translate(142.96875 0)"/>
       <use xlink:href="#DejaVuSans-6b" transform="translate(184.082031 0)"/>
       <use xlink:href="#DejaVuSans-65" transform="translate(238.367188 0)"/>
       <use xlink:href="#DejaVuSans-72" transform="translate(299.890625 0)"/>
       <use xlink:href="#DejaVuSans-32" transform="translate(341.003906 0)"/>
       <use xlink:href="#DejaVuSans-2c" transform="translate(404.626953 0)"/>
       <use xlink:href="#DejaVuSans-20" transform="translate(436.414062 0)"/>
       <use xlink:href="#DejaVuSans-30" transform="translate(468.201172 0)"/>
      </g>
     </g>
    </g>
    <g id="text_6">
     <!-- Group (Reactor, Destination) -->
     <g transform="translate(386.542031 562.468078) scale(0.1 -0.1)">
      <defs>
       <path id="DejaVuSans-47" d="M 3809 666 
L 3809 1919 
L 2778 1919 
L 2778 2438 
L 4434 2438 
L 4434 434 
Q 4069 175 3628 42 
Q 3188 -91 2688 -91 
Q 1594 -91 976 548 
Q 359 1188 359 2328 
Q 359 3472 976 4111 
Q 1594 4750 2688 4750 
Q 3144 4750 3555 4637 
Q 3966 4525 4313 4306 
L 4313 3634 
Q 3963 3931 3569 4081 
Q 3175 4231 2741 4231 
Q 1884 4231 1454 3753 
Q 1025 3275 1025 2328 
Q 1025 1384 1454 906 
Q 1884 428 2741 428 
Q 3075 428 3337 486 
Q 3600 544 3809 666 
z
" transform="scale(0.015625)"/>
       <path id="DejaVuSans-75" d="M 544 1381 
L 544 3500 
L 1119 3500 
L 1119 1403 
Q 1119 906 1312 657 
Q 1506 409 1894 409 
Q 2359 409 2629 706 
Q 2900 1003 2900 1516 
L 2900 3500 
L 3475 3500 
L 3475 0 
L 2900 0 
L 2900 538 
Q 2691 219 2414 64 
Q 2138 -91 1772 -91 
Q 1169 -91 856 284 
Q 544 659 544 1381 
z
M 1991 3584 
L 1991 3584 
z
" transform="scale(0.015625)"/>
       <path id="DejaVuSans-28" d="M 1984 4856 
Q 1566 4138 1362 3434 
Q 1159 2731 1159 2009 
Q 1159 1288 1364 580 
Q 1569 -128 1984 -844 
L 1484 -844 
Q 1016 -109 783 600 
Q 550 1309 550 2009 
Q 550 2706 781 3412 
Q 1013 4119 1484 4856 
L 1984 4856 
z
" transform="scale(0.015625)"/>
       <path id="DejaVuSans-52" d="M 2841 2188 
Q 3044 2119 3236 1894 
Q 3428 1669 3622 1275 
L 4263 0 
L 3584 0 
L 2988 1197 
Q 2756 1666 2539 1819 
Q 2322 1972 1947 1972 
L 1259 1972 
L 1259 0 
L 628 0 
L 628 4666 
L 2053 4666 
Q 2853 4666 3247 4331 
Q 3641 3997 3641 3322 
Q 3641 2881 3436 2590 
Q 3231 2300 2841 2188 
z
M 1259 4147 
L 1259 2491 
L 2053 2491 
Q 2509 2491 2742 2702 
Q 2975 2913 2975 3322 
Q 2975 3731 2742 3939 
Q 2509 4147 2053 4147 
L 1259 4147 
z
" transform="scale(0.015625)"/>
       <path id="DejaVuSans-61" d="M 2194 1759 
Q 1497 1759 1228 1600 
Q 959 1441 959 1056 
Q 959 750 1161 570 
Q 1363 391 1709 391 
Q 2188 391 2477 730 
Q 2766 1069 2766 1631 
L 2766 1759 
L 2194 1759 
z
M 3341 1997 
L 3341 0 
L 2766 0 
L 2766 531 
Q 2569 213 2275 61 
Q 1981 -91 1556 -91 
Q 1019 -91 701 211 
Q 384 513 384 1019 
Q 384 1609 779 1909 
Q 1175 2209 1959 2209 
L 2766 2209 
L 2766 2266 
Q 2766 2663 2505 2880 
Q 2244 3097 1772 3097 
Q 1472 3097 1187 3025 
Q 903 2953 641 2809 
L 641 3341 
Q 956 3463 1253 3523 
Q 1550 3584 1831 3584 
Q 2591 3584 2966 3190 
Q 3341 2797 3341 1997 
z
" transform="scale(0.015625)"/>
       <path id="DejaVuSans-63" d="M 3122 3366 
L 3122 2828 
Q 2878 2963 2633 3030 
Q 2388 3097 2138 3097 
Q 1578 3097 1268 2742 
Q 959 2388 959 1747 
Q 959 1106 1268 751 
Q 1578 397 2138 397 
Q 2388 397 2633 464 
Q 2878 531 3122 666 
L 3122 134 
Q 2881 22 2623 -34 
Q 2366 -91 2075 -91 
Q 1284 -91 818 406 
Q 353 903 353 1747 
Q 353 2603 823 3093 
Q 1294 3584 2113 3584 
Q 2378 3584 2631 3529 
Q 2884 3475 3122 3366 
z
" transform="scale(0.015625)"/>
       <path id="DejaVuSans-74" d="M 1172 4494 
L 1172 3500 
L 2356 3500 
L 2356 3053 
L 1172 3053 
L 1172 1153 
Q 1172 725 1289 603 
Q 1406 481 1766 481 
L 2356 481 
L 2356 0 
L 1766 0 
Q 1100 0 847 248 
Q 594 497 594 1153 
L 594 3053 
L 172 3053 
L 172 3500 
L 594 3500 
L 594 4494 
L 1172 4494 
z
" transform="scale(0.015625)"/>
       <path id="DejaVuSans-44" d="M 1259 4147 
L 1259 519 
L 2022 519 
Q 2988 519 3436 956 
Q 3884 1394 3884 2338 
Q 3884 3275 3436 3711 
Q 2988 4147 2022 4147 
L 1259 4147 
z
M 628 4666 
L 1925 4666 
Q 3281 4666 3915 4102 
Q 4550 3538 4550 2338 
Q 4550 1131 3912 565 
Q 3275 0 1925 0 
L 628 0 
L 628 4666 
z
" transform="scale(0.015625)"/>
       <path id="DejaVuSans-73" d="M 2834 3397 
L 2834 2853 
Q 2591 2978 2328 3040 
Q 2066 3103 1784 3103 
Q 1356 3103 1142 2972 
Q 928 2841 928 2578 
Q 928 2378 1081 2264 
Q 1234 2150 1697 2047 
L 1894 2003 
Q 2506 1872 2764 1633 
Q 3022 1394 3022 966 
Q 3022 478 2636 193 
Q 2250 -91 1575 -91 
Q 1294 -91 989 -36 
Q 684 19 347 128 
L 347 722 
Q 666 556 975 473 
Q 1284 391 1588 391 
Q 1994 391 2212 530 
Q 2431 669 2431 922 
Q 2431 1156 2273 1281 
Q 2116 1406 1581 1522 
L 1381 1569 
Q 847 1681 609 1914 
Q 372 2147 372 2553 
Q 372 3047 722 3315 
Q 1072 3584 1716 3584 
Q 2034 3584 2315 3537 
Q 2597 3491 2834 3397 
z
" transform="scale(0.015625)"/>
       <path id="DejaVuSans-69" d="M 603 3500 
L 1178 3500 
L 1178 0 
L 603 0 
L 603 3500 
z
M 603 4863 
L 1178 4863 
L 1178 4134 
L 603 4134 
L 603 4863 
z
" transform="scale(0.015625)"/>
       <path id="DejaVuSans-29" d="M 513 4856 
L 1013 4856 
Q 1481 4119 1714 3412 
Q 1947 2706 1947 2009 
Q 1947 1309 1714 600 
Q 1481 -109 1013 -844 
L 513 -844 
Q 928 -128 1133 580 
Q 1338 1288 1338 2009 
Q 1338 2731 1133 3434 
Q 928 4138 513 4856 
z
" transform="scale(0.015625)"/>
      </defs>
      <use xlink:href="#DejaVuSans-47"/>
      <use xlink:href="#DejaVuSans-72" transform="translate(77.490234 0)"/>
      <use xlink:href="#DejaVuSans-6f" transform="translate(116.353516 0)"/>
      <use xlink:href="#DejaVuSans-75" transform="translate(177.535156 0)"/>
      <use xlink:href="#DejaVuSans-70" transform="translate(240.914062 0)"/>
      <use xlink:href="#DejaVuSans-20" transform="translate(304.390625 0)"/>
      <use xlink:href="#DejaVuSans-28" transform="translate(336.177734 0)"/>
      <use xlink:href="#DejaVuSans-52" transform="translate(375.191406 0)"/>
      <use xlink:href="#DejaVuSans-65" transform="translate(440.173828 0)"/>
      <use xlink:href="#DejaVuSans-61" transform="translate(501.697266 0)"/>
      <use xlink:href="#DejaVuSans-63" transform="translate(562.976562 0)"/>
      <use xlink:href="#DejaVuSans-74" transform="translate(617.957031 0)"/>
      <use xlink:href="#DejaVuSans-6f" transform="translate(657.166016 0)"/>
      <use xlink:href="#DejaVuSans-72" transform="translate(718.347656 0)"/>
      <use xlink:href="#DejaVuSans-2c" transform="translate(759.460938 0)"/>
      <use xlink:href="#DejaVuSans-20" transform="translate(791.248047 0)"/>
      <use xlink:href="#DejaVuSans-44" transform="translate(823.035156 0)"/>
      <use xlink:href="#DejaVuSans-65" transform="translate(900.037109 0)"/>
      <use xlink:href="#DejaVuSans-73" transform="translate(961.560547 0)"/>
      <use xlink:href="#DejaVuSans-74" transform="translate(1013.660156 0)"/>
      <use xlink:href="#DejaVuSans-69" transform="translate(1052.869141 0)"/>
      <use xlink:href="#DejaVuSans-6e" transform="translate(1080.652344 0)"/>
      <use xlink:href="#DejaVuSans-61" transform="translate(1144.03125 0)"/>
      <use xlink:href="#DejaVuSans-74" transform="translate(1205.310547 0)"/>
      <use xlink:href="#DejaVuSans-69" transform="translate(1244.519531 0)"/>
      <use xlink:href="#DejaVuSans-6f" transform="translate(1272.302734 0)"/>
      <use xlink:href="#DejaVuSans-6e" transform="translate(1333.484375 0)"/>
      <use xlink:href="#DejaVuSans-29" transform="translate(1396.863281 0)"/>
     </g>
    </g>
   </g>
   <g id="matplotlib.axis_2">
    <g id="ytick_1">
     <g id="line2d_6">
      <defs>
       <path id="me222b0a14f" d="M 0 0 
L -3.5 0 
" style="stroke: #000000; stroke-width: 0.8"/>
      </defs>
      <g>
       <use xlink:href="#me222b0a14f" x="63.47" y="473.694582" style="stroke: #000000; stroke-width: 0.8"/>
      </g>
     </g>
     <g id="text_7">
      <!-- 0 -->
      <g transform="translate(50.1075 477.493801) scale(0.1 -0.1)">
       <use xlink:href="#DejaVuSans-30"/>
      </g>
     </g>
    </g>
    <g id="ytick_2">
     <g id="line2d_7">
      <g>
       <use xlink:href="#me222b0a14f" x="63.47" y="408.540841" style="stroke: #000000; stroke-width: 0.8"/>
      </g>
     </g>
     <g id="text_8">
      <!-- 2000 -->
      <g transform="translate(31.02 412.34006) scale(0.1 -0.1)">
       <use xlink:href="#DejaVuSans-32"/>
       <use xlink:href="#DejaVuSans-30" transform="translate(63.623047 0)"/>
       <use xlink:href="#DejaVuSans-30" transform="translate(127.246094 0)"/>
       <use xlink:href="#DejaVuSans-30" transform="translate(190.869141 0)"/>
      </g>
     </g>
    </g>
    <g id="ytick_3">
     <g id="line2d_8">
      <g>
       <use xlink:href="#me222b0a14f" x="63.47" y="343.3871" style="stroke: #000000; stroke-width: 0.8"/>
      </g>
     </g>
     <g id="text_9">
      <!-- 4000 -->
      <g transform="translate(31.02 347.186319) scale(0.1 -0.1)">
       <defs>
        <path id="DejaVuSans-34" d="M 2419 4116 
L 825 1625 
L 2419 1625 
L 2419 4116 
z
M 2253 4666 
L 3047 4666 
L 3047 1625 
L 3713 1625 
L 3713 1100 
L 3047 1100 
L 3047 0 
L 2419 0 
L 2419 1100 
L 313 1100 
L 313 1709 
L 2253 4666 
z
" transform="scale(0.015625)"/>
       </defs>
       <use xlink:href="#DejaVuSans-34"/>
       <use xlink:href="#DejaVuSans-30" transform="translate(63.623047 0)"/>
       <use xlink:href="#DejaVuSans-30" transform="translate(127.246094 0)"/>
       <use xlink:href="#DejaVuSans-30" transform="translate(190.869141 0)"/>
      </g>
     </g>
    </g>
    <g id="ytick_4">
     <g id="line2d_9">
      <g>
       <use xlink:href="#me222b0a14f" x="63.47" y="278.233359" style="stroke: #000000; stroke-width: 0.8"/>
      </g>
     </g>
     <g id="text_10">
      <!-- 6000 -->
      <g transform="translate(31.02 282.032578) scale(0.1 -0.1)">
       <defs>
        <path id="DejaVuSans-36" d="M 2113 2584 
Q 1688 2584 1439 2293 
Q 1191 2003 1191 1497 
Q 1191 994 1439 701 
Q 1688 409 2113 409 
Q 2538 409 2786 701 
Q 3034 994 3034 1497 
Q 3034 2003 2786 2293 
Q 2538 2584 2113 2584 
z
M 3366 4563 
L 3366 3988 
Q 3128 4100 2886 4159 
Q 2644 4219 2406 4219 
Q 1781 4219 1451 3797 
Q 1122 3375 1075 2522 
Q 1259 2794 1537 2939 
Q 1816 3084 2150 3084 
Q 2853 3084 3261 2657 
Q 3669 2231 3669 1497 
Q 3669 778 3244 343 
Q 2819 -91 2113 -91 
Q 1303 -91 875 529 
Q 447 1150 447 2328 
Q 447 3434 972 4092 
Q 1497 4750 2381 4750 
Q 2619 4750 2861 4703 
Q 3103 4656 3366 4563 
z
" transform="scale(0.015625)"/>
       </defs>
       <use xlink:href="#DejaVuSans-36"/>
       <use xlink:href="#DejaVuSans-30" transform="translate(63.623047 0)"/>
       <use xlink:href="#DejaVuSans-30" transform="translate(127.246094 0)"/>
       <use xlink:href="#DejaVuSans-30" transform="translate(190.869141 0)"/>
      </g>
     </g>
    </g>
    <g id="ytick_5">
     <g id="line2d_10">
      <g>
       <use xlink:href="#me222b0a14f" x="63.47" y="213.079619" style="stroke: #000000; stroke-width: 0.8"/>
      </g>
     </g>
     <g id="text_11">
      <!-- 8000 -->
      <g transform="translate(31.02 216.878837) scale(0.1 -0.1)">
       <defs>
        <path id="DejaVuSans-38" d="M 2034 2216 
Q 1584 2216 1326 1975 
Q 1069 1734 1069 1313 
Q 1069 891 1326 650 
Q 1584 409 2034 409 
Q 2484 409 2743 651 
Q 3003 894 3003 1313 
Q 3003 1734 2745 1975 
Q 2488 2216 2034 2216 
z
M 1403 2484 
Q 997 2584 770 2862 
Q 544 3141 544 3541 
Q 544 4100 942 4425 
Q 1341 4750 2034 4750 
Q 2731 4750 3128 4425 
Q 3525 4100 3525 3541 
Q 3525 3141 3298 2862 
Q 3072 2584 2669 2484 
Q 3125 2378 3379 2068 
Q 3634 1759 3634 1313 
Q 3634 634 3220 271 
Q 2806 -91 2034 -91 
Q 1263 -91 848 271 
Q 434 634 434 1313 
Q 434 1759 690 2068 
Q 947 2378 1403 2484 
z
M 1172 3481 
Q 1172 3119 1398 2916 
Q 1625 2713 2034 2713 
Q 2441 2713 2670 2916 
Q 2900 3119 2900 3481 
Q 2900 3844 2670 4047 
Q 2441 4250 2034 4250 
Q 1625 4250 1398 4047 
Q 1172 3844 1172 3481 
z
" transform="scale(0.015625)"/>
       </defs>
       <use xlink:href="#DejaVuSans-38"/>
       <use xlink:href="#DejaVuSans-30" transform="translate(63.623047 0)"/>
       <use xlink:href="#DejaVuSans-30" transform="translate(127.246094 0)"/>
       <use xlink:href="#DejaVuSans-30" transform="translate(190.869141 0)"/>
      </g>
     </g>
    </g>
    <g id="ytick_6">
     <g id="line2d_11">
      <g>
       <use xlink:href="#me222b0a14f" x="63.47" y="147.925878" style="stroke: #000000; stroke-width: 0.8"/>
      </g>
     </g>
     <g id="text_12">
      <!-- 10000 -->
      <g transform="translate(24.6575 151.725096) scale(0.1 -0.1)">
       <use xlink:href="#DejaVuSans-31"/>
       <use xlink:href="#DejaVuSans-30" transform="translate(63.623047 0)"/>
       <use xlink:href="#DejaVuSans-30" transform="translate(127.246094 0)"/>
       <use xlink:href="#DejaVuSans-30" transform="translate(190.869141 0)"/>
       <use xlink:href="#DejaVuSans-30" transform="translate(254.492188 0)"/>
      </g>
     </g>
    </g>
    <g id="ytick_7">
     <g id="line2d_12">
      <g>
       <use xlink:href="#me222b0a14f" x="63.47" y="82.772137" style="stroke: #000000; stroke-width: 0.8"/>
      </g>
     </g>
     <g id="text_13">
      <!-- 12000 -->
      <g transform="translate(24.6575 86.571355) scale(0.1 -0.1)">
       <use xlink:href="#DejaVuSans-31"/>
       <use xlink:href="#DejaVuSans-32" transform="translate(63.623047 0)"/>
       <use xlink:href="#DejaVuSans-30" transform="translate(127.246094 0)"/>
       <use xlink:href="#DejaVuSans-30" transform="translate(190.869141 0)"/>
       <use xlink:href="#DejaVuSans-30" transform="translate(254.492188 0)"/>
      </g>
     </g>
    </g>
    <g id="text_14">
     <!-- Lag -->
     <g transform="translate(18.577813 265.854574) rotate(-90) scale(0.1 -0.1)">
      <defs>
       <path id="DejaVuSans-4c" d="M 628 4666 
L 1259 4666 
L 1259 531 
L 3531 531 
L 3531 0 
L 628 0 
L 628 4666 
z
" transform="scale(0.015625)"/>
       <path id="DejaVuSans-67" d="M 2906 1791 
Q 2906 2416 2648 2759 
Q 2391 3103 1925 3103 
Q 1463 3103 1205 2759 
Q 947 2416 947 1791 
Q 947 1169 1205 825 
Q 1463 481 1925 481 
Q 2391 481 2648 825 
Q 2906 1169 2906 1791 
z
M 3481 434 
Q 3481 -459 3084 -895 
Q 2688 -1331 1869 -1331 
Q 1566 -1331 1297 -1286 
Q 1028 -1241 775 -1147 
L 775 -588 
Q 1028 -725 1275 -790 
Q 1522 -856 1778 -856 
Q 2344 -856 2625 -561 
Q 2906 -266 2906 331 
L 2906 616 
Q 2728 306 2450 153 
Q 2172 0 1784 0 
Q 1141 0 747 490 
Q 353 981 353 1791 
Q 353 2603 747 3093 
Q 1141 3584 1784 3584 
Q 2172 3584 2450 3431 
Q 2728 3278 2906 2969 
L 2906 3500 
L 3481 3500 
L 3481 434 
z
" transform="scale(0.015625)"/>
      </defs>
      <use xlink:href="#DejaVuSans-4c"/>
      <use xlink:href="#DejaVuSans-61" transform="translate(55.712891 0)"/>
      <use xlink:href="#DejaVuSans-67" transform="translate(116.992188 0)"/>
     </g>
    </g>
   </g>
   <g id="patch_6">
    <path d="M 95.0592 438.12064 
L 126.6484 438.12064 
L 126.6484 432.680302 
L 95.0592 432.680302 
L 95.0592 438.12064 
z
" clip-path="url(#p981ef99f90)" style="fill: #d47d6f; stroke: #373737; stroke-linejoin: miter"/>
   </g>
   <g id="line2d_13">
    <path d="M 110.8538 438.12064 
L 110.8538 439.912368 
" clip-path="url(#p981ef99f90)" style="fill: none; stroke: #373737"/>
   </g>
   <g id="line2d_14">
    <path d="M 110.8538 432.680302 
L 110.8538 425.448237 
" clip-path="url(#p981ef99f90)" style="fill: none; stroke: #373737"/>
   </g>
   <g id="line2d_15">
    <path d="M 102.9565 439.912368 
L 118.7511 439.912368 
" clip-path="url(#p981ef99f90)" style="fill: none; stroke: #373737; stroke-linecap: square"/>
   </g>
   <g id="line2d_16">
    <path d="M 102.9565 425.448237 
L 118.7511 425.448237 
" clip-path="url(#p981ef99f90)" style="fill: none; stroke: #373737; stroke-linecap: square"/>
   </g>
   <g id="line2d_17">
    <defs>
     <path id="m62a004ddcc" d="M 0 1.5 
C 0.397805 1.5 0.77937 1.341951 1.06066 1.06066 
C 1.341951 0.77937 1.5 0.397805 1.5 0 
C 1.5 -0.397805 1.341951 -0.77937 1.06066 -1.06066 
C 0.77937 -1.341951 0.397805 -1.5 0 -1.5 
C -0.397805 -1.5 -0.77937 -1.341951 -1.06066 -1.06066 
C -1.341951 -0.77937 -1.5 -0.397805 -1.5 0 
C -1.5 0.397805 -1.341951 0.77937 -1.06066 1.06066 
C -0.77937 1.341951 -0.397805 1.5 0 1.5 
z
" style="stroke: #373737"/>
    </defs>
    <g clip-path="url(#p981ef99f90)">
     <use xlink:href="#m62a004ddcc" x="110.8538" y="394.695671" style="fill-opacity: 0; stroke: #373737"/>
     <use xlink:href="#m62a004ddcc" x="110.8538" y="420.62686" style="fill-opacity: 0; stroke: #373737"/>
     <use xlink:href="#m62a004ddcc" x="110.8538" y="423.623932" style="fill-opacity: 0; stroke: #373737"/>
     <use xlink:href="#m62a004ddcc" x="110.8538" y="408.540841" style="fill-opacity: 0; stroke: #373737"/>
     <use xlink:href="#m62a004ddcc" x="110.8538" y="424.242893" style="fill-opacity: 0; stroke: #373737"/>
     <use xlink:href="#m62a004ddcc" x="110.8538" y="400.103432" style="fill-opacity: 0; stroke: #373737"/>
     <use xlink:href="#m62a004ddcc" x="110.8538" y="423.623932" style="fill-opacity: 0; stroke: #373737"/>
     <use xlink:href="#m62a004ddcc" x="110.8538" y="420.62686" style="fill-opacity: 0; stroke: #373737"/>
     <use xlink:href="#m62a004ddcc" x="110.8538" y="409.159802" style="fill-opacity: 0; stroke: #373737"/>
     <use xlink:href="#m62a004ddcc" x="110.8538" y="424.242893" style="fill-opacity: 0; stroke: #373737"/>
     <use xlink:href="#m62a004ddcc" x="110.8538" y="412.189451" style="fill-opacity: 0; stroke: #373737"/>
     <use xlink:href="#m62a004ddcc" x="110.8538" y="415.805483" style="fill-opacity: 0; stroke: #373737"/>
    </g>
   </g>
   <g id="patch_7">
    <path d="M 253.0052 413.834583 
L 284.5944 413.834583 
L 284.5944 405.079549 
L 253.0052 405.079549 
L 253.0052 413.834583 
z
" clip-path="url(#p981ef99f90)" style="fill: #d47d6f; stroke: #373737; stroke-linejoin: miter"/>
   </g>
   <g id="line2d_18">
    <path d="M 268.7998 413.834583 
L 268.7998 415.805483 
" clip-path="url(#p981ef99f90)" style="fill: none; stroke: #373737"/>
   </g>
   <g id="line2d_19">
    <path d="M 268.7998 405.079549 
L 268.7998 392.871367 
" clip-path="url(#p981ef99f90)" style="fill: none; stroke: #373737"/>
   </g>
   <g id="line2d_20">
    <path d="M 260.9025 415.805483 
L 276.6971 415.805483 
" clip-path="url(#p981ef99f90)" style="fill: none; stroke: #373737; stroke-linecap: square"/>
   </g>
   <g id="line2d_21">
    <path d="M 260.9025 392.871367 
L 276.6971 392.871367 
" clip-path="url(#p981ef99f90)" style="fill: none; stroke: #373737; stroke-linecap: square"/>
   </g>
   <g id="line2d_22">
    <g clip-path="url(#p981ef99f90)">
     <use xlink:href="#m62a004ddcc" x="268.7998" y="380.817925" style="fill-opacity: 0; stroke: #373737"/>
     <use xlink:href="#m62a004ddcc" x="268.7998" y="388.636373" style="fill-opacity: 0; stroke: #373737"/>
     <use xlink:href="#m62a004ddcc" x="268.7998" y="371.142594" style="fill-opacity: 0; stroke: #373737"/>
     <use xlink:href="#m62a004ddcc" x="268.7998" y="366.940178" style="fill-opacity: 0; stroke: #373737"/>
     <use xlink:href="#m62a004ddcc" x="268.7998" y="379.61258" style="fill-opacity: 0; stroke: #373737"/>
     <use xlink:href="#m62a004ddcc" x="268.7998" y="386.225685" style="fill-opacity: 0; stroke: #373737"/>
    </g>
   </g>
   <g id="patch_8">
    <path d="M 410.9512 364.374749 
L 442.5404 364.374749 
L 442.5404 355.619715 
L 410.9512 355.619715 
L 410.9512 364.374749 
z
" clip-path="url(#p981ef99f90)" style="fill: #d47d6f; stroke: #373737; stroke-linejoin: miter"/>
   </g>
   <g id="line2d_23">
    <path d="M 426.7458 364.374749 
L 426.7458 366.940178 
" clip-path="url(#p981ef99f90)" style="fill: none; stroke: #373737"/>
   </g>
   <g id="line2d_24">
    <path d="M 426.7458 355.619715 
L 426.7458 345.211405 
" clip-path="url(#p981ef99f90)" style="fill: none; stroke: #373737"/>
   </g>
   <g id="line2d_25">
    <path d="M 418.8485 366.940178 
L 434.6431 366.940178 
" clip-path="url(#p981ef99f90)" style="fill: none; stroke: #373737; stroke-linecap: square"/>
   </g>
   <g id="line2d_26">
    <path d="M 418.8485 345.211405 
L 434.6431 345.211405 
" clip-path="url(#p981ef99f90)" style="fill: none; stroke: #373737; stroke-linecap: square"/>
   </g>
   <g id="line2d_27">
    <g clip-path="url(#p981ef99f90)">
     <use xlink:href="#m62a004ddcc" x="426.7458" y="326.512281" style="fill-opacity: 0; stroke: #373737"/>
     <use xlink:href="#m62a004ddcc" x="426.7458" y="333.157963" style="fill-opacity: 0; stroke: #373737"/>
     <use xlink:href="#m62a004ddcc" x="426.7458" y="327.717626" style="fill-opacity: 0; stroke: #373737"/>
     <use xlink:href="#m62a004ddcc" x="426.7458" y="342.181756" style="fill-opacity: 0; stroke: #373737"/>
     <use xlink:href="#m62a004ddcc" x="426.7458" y="336.155035" style="fill-opacity: 0; stroke: #373737"/>
     <use xlink:href="#m62a004ddcc" x="426.7458" y="305.988853" style="fill-opacity: 0; stroke: #373737"/>
     <use xlink:href="#m62a004ddcc" x="426.7458" y="339.184684" style="fill-opacity: 0; stroke: #373737"/>
     <use xlink:href="#m62a004ddcc" x="426.7458" y="340.390028" style="fill-opacity: 0; stroke: #373737"/>
     <use xlink:href="#m62a004ddcc" x="426.7458" y="317.455911" style="fill-opacity: 0; stroke: #373737"/>
    </g>
   </g>
   <g id="patch_9">
    <path d="M 568.8972 464.051829 
L 600.4864 464.051829 
L 600.4864 461.054757 
L 568.8972 461.054757 
L 568.8972 464.051829 
z
" clip-path="url(#p981ef99f90)" style="fill: #d47d6f; stroke: #373737; stroke-linejoin: miter"/>
   </g>
   <g id="line2d_28">
    <path d="M 584.6918 464.051829 
L 584.6918 465.876133 
" clip-path="url(#p981ef99f90)" style="fill: none; stroke: #373737"/>
   </g>
   <g id="line2d_29">
    <path d="M 584.6918 461.054757 
L 584.6918 457.406147 
" clip-path="url(#p981ef99f90)" style="fill: none; stroke: #373737"/>
   </g>
   <g id="line2d_30">
    <path d="M 576.7945 465.876133 
L 592.5891 465.876133 
" clip-path="url(#p981ef99f90)" style="fill: none; stroke: #373737; stroke-linecap: square"/>
   </g>
   <g id="line2d_31">
    <path d="M 576.7945 457.406147 
L 592.5891 457.406147 
" clip-path="url(#p981ef99f90)" style="fill: none; stroke: #373737; stroke-linecap: square"/>
   </g>
   <g id="line2d_32">
    <g clip-path="url(#p981ef99f90)">
     <use xlink:href="#m62a004ddcc" x="584.6918" y="455.614419" style="fill-opacity: 0; stroke: #373737"/>
     <use xlink:href="#m62a004ddcc" x="584.6918" y="456.200803" style="fill-opacity: 0; stroke: #373737"/>
     <use xlink:href="#m62a004ddcc" x="584.6918" y="456.200803" style="fill-opacity: 0; stroke: #373737"/>
     <use xlink:href="#m62a004ddcc" x="584.6918" y="454.409075" style="fill-opacity: 0; stroke: #373737"/>
     <use xlink:href="#m62a004ddcc" x="584.6918" y="439.912368" style="fill-opacity: 0; stroke: #373737"/>
     <use xlink:href="#m62a004ddcc" x="584.6918" y="435.709951" style="fill-opacity: 0; stroke: #373737"/>
     <use xlink:href="#m62a004ddcc" x="584.6918" y="453.790114" style="fill-opacity: 0; stroke: #373737"/>
     <use xlink:href="#m62a004ddcc" x="584.6918" y="445.971665" style="fill-opacity: 0; stroke: #373737"/>
     <use xlink:href="#m62a004ddcc" x="584.6918" y="456.200803" style="fill-opacity: 0; stroke: #373737"/>
     <use xlink:href="#m62a004ddcc" x="584.6918" y="453.790114" style="fill-opacity: 0; stroke: #373737"/>
     <use xlink:href="#m62a004ddcc" x="584.6918" y="456.200803" style="fill-opacity: 0; stroke: #373737"/>
    </g>
   </g>
   <g id="patch_10">
    <path d="M 726.8432 388.636373 
L 758.4324 388.636373 
L 758.4324 380.198964 
L 726.8432 380.198964 
L 726.8432 388.636373 
z
" clip-path="url(#p981ef99f90)" style="fill: #d47d6f; stroke: #373737; stroke-linejoin: miter"/>
   </g>
   <g id="line2d_33">
    <path d="M 742.6378 388.636373 
L 742.6378 391.047062 
" clip-path="url(#p981ef99f90)" style="fill: none; stroke: #373737"/>
   </g>
   <g id="line2d_34">
    <path d="M 742.6378 380.198964 
L 742.6378 369.350866 
" clip-path="url(#p981ef99f90)" style="fill: none; stroke: #373737"/>
   </g>
   <g id="line2d_35">
    <path d="M 734.7405 391.047062 
L 750.5351 391.047062 
" clip-path="url(#p981ef99f90)" style="fill: none; stroke: #373737; stroke-linecap: square"/>
   </g>
   <g id="line2d_36">
    <path d="M 734.7405 369.350866 
L 750.5351 369.350866 
" clip-path="url(#p981ef99f90)" style="fill: none; stroke: #373737; stroke-linecap: square"/>
   </g>
   <g id="line2d_37">
    <g clip-path="url(#p981ef99f90)">
     <use xlink:href="#m62a004ddcc" x="742.6378" y="353.648815" style="fill-opacity: 0; stroke: #373737"/>
     <use xlink:href="#m62a004ddcc" x="742.6378" y="344.006061" style="fill-opacity: 0; stroke: #373737"/>
     <use xlink:href="#m62a004ddcc" x="742.6378" y="350.651742" style="fill-opacity: 0; stroke: #373737"/>
     <use xlink:href="#m62a004ddcc" x="742.6378" y="361.49984" style="fill-opacity: 0; stroke: #373737"/>
     <use xlink:href="#m62a004ddcc" x="742.6378" y="363.910529" style="fill-opacity: 0; stroke: #373737"/>
     <use xlink:href="#m62a004ddcc" x="742.6378" y="366.940178" style="fill-opacity: 0; stroke: #373737"/>
     <use xlink:href="#m62a004ddcc" x="742.6378" y="359.089152" style="fill-opacity: 0; stroke: #373737"/>
     <use xlink:href="#m62a004ddcc" x="742.6378" y="339.184684" style="fill-opacity: 0; stroke: #373737"/>
     <use xlink:href="#m62a004ddcc" x="742.6378" y="365.734834" style="fill-opacity: 0; stroke: #373737"/>
    </g>
   </g>
   <g id="patch_11">
    <path d="M 126.6484 433.299263 
L 158.2376 433.299263 
L 158.2376 426.213794 
L 126.6484 426.213794 
L 126.6484 433.299263 
z
" clip-path="url(#p981ef99f90)" style="fill: #b1516e; stroke: #373737; stroke-linejoin: miter"/>
   </g>
   <g id="line2d_38">
    <path d="M 142.443 433.299263 
L 142.443 436.296335 
" clip-path="url(#p981ef99f90)" style="fill: none; stroke: #373737"/>
   </g>
   <g id="line2d_39">
    <path d="M 142.443 426.213794 
L 142.443 415.805483 
" clip-path="url(#p981ef99f90)" style="fill: none; stroke: #373737"/>
   </g>
   <g id="line2d_40">
    <path d="M 134.5457 436.296335 
L 150.3403 436.296335 
" clip-path="url(#p981ef99f90)" style="fill: none; stroke: #373737; stroke-linecap: square"/>
   </g>
   <g id="line2d_41">
    <path d="M 134.5457 415.805483 
L 150.3403 415.805483 
" clip-path="url(#p981ef99f90)" style="fill: none; stroke: #373737; stroke-linecap: square"/>
   </g>
   <g id="line2d_42">
    <g clip-path="url(#p981ef99f90)">
     <use xlink:href="#m62a004ddcc" x="142.443" y="393.490327" style="fill-opacity: 0; stroke: #373737"/>
     <use xlink:href="#m62a004ddcc" x="142.443" y="402.51412" style="fill-opacity: 0; stroke: #373737"/>
     <use xlink:href="#m62a004ddcc" x="142.443" y="413.394795" style="fill-opacity: 0; stroke: #373737"/>
     <use xlink:href="#m62a004ddcc" x="142.443" y="407.335497" style="fill-opacity: 0; stroke: #373737"/>
     <use xlink:href="#m62a004ddcc" x="142.443" y="412.775834" style="fill-opacity: 0; stroke: #373737"/>
     <use xlink:href="#m62a004ddcc" x="142.443" y="411.57049" style="fill-opacity: 0; stroke: #373737"/>
     <use xlink:href="#m62a004ddcc" x="142.443" y="398.311704" style="fill-opacity: 0; stroke: #373737"/>
     <use xlink:href="#m62a004ddcc" x="142.443" y="410.984107" style="fill-opacity: 0; stroke: #373737"/>
     <use xlink:href="#m62a004ddcc" x="142.443" y="374.758627" style="fill-opacity: 0; stroke: #373737"/>
     <use xlink:href="#m62a004ddcc" x="142.443" y="405.543769" style="fill-opacity: 0; stroke: #373737"/>
     <use xlink:href="#m62a004ddcc" x="142.443" y="382.023269" style="fill-opacity: 0; stroke: #373737"/>
     <use xlink:href="#m62a004ddcc" x="142.443" y="408.540841" style="fill-opacity: 0; stroke: #373737"/>
    </g>
   </g>
   <g id="patch_12">
    <path d="M 284.5944 405.389029 
L 316.1836 405.389029 
L 316.1836 395.901016 
L 284.5944 395.901016 
L 284.5944 405.389029 
z
" clip-path="url(#p981ef99f90)" style="fill: #b1516e; stroke: #373737; stroke-linejoin: miter"/>
   </g>
   <g id="line2d_43">
    <path d="M 300.389 405.389029 
L 300.389 408.540841 
" clip-path="url(#p981ef99f90)" style="fill: none; stroke: #373737"/>
   </g>
   <g id="line2d_44">
    <path d="M 300.389 395.901016 
L 300.389 383.228613 
" clip-path="url(#p981ef99f90)" style="fill: none; stroke: #373737"/>
   </g>
   <g id="line2d_45">
    <path d="M 292.4917 408.540841 
L 308.2863 408.540841 
" clip-path="url(#p981ef99f90)" style="fill: none; stroke: #373737; stroke-linecap: square"/>
   </g>
   <g id="line2d_46">
    <path d="M 292.4917 383.228613 
L 308.2863 383.228613 
" clip-path="url(#p981ef99f90)" style="fill: none; stroke: #373737; stroke-linecap: square"/>
   </g>
   <g id="line2d_47">
    <g clip-path="url(#p981ef99f90)">
     <use xlink:href="#m62a004ddcc" x="300.389" y="375.963971" style="fill-opacity: 0; stroke: #373737"/>
     <use xlink:href="#m62a004ddcc" x="300.389" y="378.407236" style="fill-opacity: 0; stroke: #373737"/>
     <use xlink:href="#m62a004ddcc" x="300.389" y="342.800717" style="fill-opacity: 0; stroke: #373737"/>
     <use xlink:href="#m62a004ddcc" x="300.389" y="380.817925" style="fill-opacity: 0; stroke: #373737"/>
     <use xlink:href="#m62a004ddcc" x="300.389" y="337.97934" style="fill-opacity: 0; stroke: #373737"/>
     <use xlink:href="#m62a004ddcc" x="300.389" y="359.089152" style="fill-opacity: 0; stroke: #373737"/>
     <use xlink:href="#m62a004ddcc" x="300.389" y="369.93725" style="fill-opacity: 0; stroke: #373737"/>
     <use xlink:href="#m62a004ddcc" x="300.389" y="380.817925" style="fill-opacity: 0; stroke: #373737"/>
     <use xlink:href="#m62a004ddcc" x="300.389" y="373.553282" style="fill-opacity: 0; stroke: #373737"/>
     <use xlink:href="#m62a004ddcc" x="300.389" y="374.172243" style="fill-opacity: 0; stroke: #373737"/>
     <use xlink:href="#m62a004ddcc" x="300.389" y="377.788276" style="fill-opacity: 0; stroke: #373737"/>
     <use xlink:href="#m62a004ddcc" x="300.389" y="363.910529" style="fill-opacity: 0; stroke: #373737"/>
    </g>
   </g>
   <g id="patch_13">
    <path d="M 442.5404 352.44347 
L 474.1296 352.44347 
L 474.1296 343.696581 
L 442.5404 343.696581 
L 442.5404 352.44347 
z
" clip-path="url(#p981ef99f90)" style="fill: #b1516e; stroke: #373737; stroke-linejoin: miter"/>
   </g>
   <g id="line2d_48">
    <path d="M 458.335 352.44347 
L 458.335 357.264847 
" clip-path="url(#p981ef99f90)" style="fill: none; stroke: #373737"/>
   </g>
   <g id="line2d_49">
    <path d="M 458.335 343.696581 
L 458.335 333.157963 
" clip-path="url(#p981ef99f90)" style="fill: none; stroke: #373737"/>
   </g>
   <g id="line2d_50">
    <path d="M 450.4377 357.264847 
L 466.2323 357.264847 
" clip-path="url(#p981ef99f90)" style="fill: none; stroke: #373737; stroke-linecap: square"/>
   </g>
   <g id="line2d_51">
    <path d="M 450.4377 333.157963 
L 466.2323 333.157963 
" clip-path="url(#p981ef99f90)" style="fill: none; stroke: #373737; stroke-linecap: square"/>
   </g>
   <g id="line2d_52">
    <g clip-path="url(#p981ef99f90)">
     <use xlink:href="#m62a004ddcc" x="458.335" y="325.893321" style="fill-opacity: 0; stroke: #373737"/>
     <use xlink:href="#m62a004ddcc" x="458.335" y="321.690905" style="fill-opacity: 0; stroke: #373737"/>
     <use xlink:href="#m62a004ddcc" x="458.335" y="320.48556" style="fill-opacity: 0; stroke: #373737"/>
     <use xlink:href="#m62a004ddcc" x="458.335" y="330.128314" style="fill-opacity: 0; stroke: #373737"/>
     <use xlink:href="#m62a004ddcc" x="458.335" y="298.756788" style="fill-opacity: 0; stroke: #373737"/>
     <use xlink:href="#m62a004ddcc" x="458.335" y="322.896249" style="fill-opacity: 0; stroke: #373737"/>
     <use xlink:href="#m62a004ddcc" x="458.335" y="321.690905" style="fill-opacity: 0; stroke: #373737"/>
     <use xlink:href="#m62a004ddcc" x="458.335" y="281.881969" style="fill-opacity: 0; stroke: #373737"/>
     <use xlink:href="#m62a004ddcc" x="458.335" y="320.48556" style="fill-opacity: 0; stroke: #373737"/>
     <use xlink:href="#m62a004ddcc" x="458.335" y="308.399542" style="fill-opacity: 0; stroke: #373737"/>
     <use xlink:href="#m62a004ddcc" x="458.335" y="309.604886" style="fill-opacity: 0; stroke: #373737"/>
     <use xlink:href="#m62a004ddcc" x="458.335" y="289.700418" style="fill-opacity: 0; stroke: #373737"/>
     <use xlink:href="#m62a004ddcc" x="458.335" y="320.48556" style="fill-opacity: 0; stroke: #373737"/>
     <use xlink:href="#m62a004ddcc" x="458.335" y="330.128314" style="fill-opacity: 0; stroke: #373737"/>
    </g>
   </g>
   <g id="patch_14">
    <path d="M 600.4864 463.465445 
L 632.0756 463.465445 
L 632.0756 459.385192 
L 600.4864 459.385192 
L 600.4864 463.465445 
z
" clip-path="url(#p981ef99f90)" style="fill: #b1516e; stroke: #373737; stroke-linejoin: miter"/>
   </g>
   <g id="line2d_53">
    <path d="M 616.281 463.465445 
L 616.281 465.257173 
" clip-path="url(#p981ef99f90)" style="fill: none; stroke: #373737"/>
   </g>
   <g id="line2d_54">
    <path d="M 616.281 459.385192 
L 616.281 453.790114 
" clip-path="url(#p981ef99f90)" style="fill: none; stroke: #373737"/>
   </g>
   <g id="line2d_55">
    <path d="M 608.3837 465.257173 
L 624.1783 465.257173 
" clip-path="url(#p981ef99f90)" style="fill: none; stroke: #373737; stroke-linecap: square"/>
   </g>
   <g id="line2d_56">
    <path d="M 608.3837 453.790114 
L 624.1783 453.790114 
" clip-path="url(#p981ef99f90)" style="fill: none; stroke: #373737; stroke-linecap: square"/>
   </g>
   <g id="line2d_57">
    <g clip-path="url(#p981ef99f90)">
     <use xlink:href="#m62a004ddcc" x="616.281" y="446.558049" style="fill-opacity: 0; stroke: #373737"/>
     <use xlink:href="#m62a004ddcc" x="616.281" y="435.709951" style="fill-opacity: 0; stroke: #373737"/>
     <use xlink:href="#m62a004ddcc" x="616.281" y="450.793042" style="fill-opacity: 0; stroke: #373737"/>
     <use xlink:href="#m62a004ddcc" x="616.281" y="443.560977" style="fill-opacity: 0; stroke: #373737"/>
     <use xlink:href="#m62a004ddcc" x="616.281" y="452.58477" style="fill-opacity: 0; stroke: #373737"/>
     <use xlink:href="#m62a004ddcc" x="616.281" y="453.203731" style="fill-opacity: 0; stroke: #373737"/>
     <use xlink:href="#m62a004ddcc" x="616.281" y="449.587698" style="fill-opacity: 0; stroke: #373737"/>
     <use xlink:href="#m62a004ddcc" x="616.281" y="451.379426" style="fill-opacity: 0; stroke: #373737"/>
     <use xlink:href="#m62a004ddcc" x="616.281" y="444.147361" style="fill-opacity: 0; stroke: #373737"/>
    </g>
   </g>
   <g id="patch_15">
    <path d="M 758.4324 378.99362 
L 790.0216 378.99362 
L 790.0216 369.033242 
L 758.4324 369.033242 
L 758.4324 378.99362 
z
" clip-path="url(#p981ef99f90)" style="fill: #b1516e; stroke: #373737; stroke-linejoin: miter"/>
   </g>
   <g id="line2d_58">
    <path d="M 774.227 378.99362 
L 774.227 383.228613 
" clip-path="url(#p981ef99f90)" style="fill: none; stroke: #373737"/>
   </g>
   <g id="line2d_59">
    <path d="M 774.227 369.033242 
L 774.227 354.267775 
" clip-path="url(#p981ef99f90)" style="fill: none; stroke: #373737"/>
   </g>
   <g id="line2d_60">
    <path d="M 766.3297 383.228613 
L 782.1243 383.228613 
" clip-path="url(#p981ef99f90)" style="fill: none; stroke: #373737; stroke-linecap: square"/>
   </g>
   <g id="line2d_61">
    <path d="M 766.3297 354.267775 
L 782.1243 354.267775 
" clip-path="url(#p981ef99f90)" style="fill: none; stroke: #373737; stroke-linecap: square"/>
   </g>
   <g id="line2d_62">
    <g clip-path="url(#p981ef99f90)">
     <use xlink:href="#m62a004ddcc" x="774.227" y="350.651742" style="fill-opacity: 0; stroke: #373737"/>
     <use xlink:href="#m62a004ddcc" x="774.227" y="324.687977" style="fill-opacity: 0; stroke: #373737"/>
     <use xlink:href="#m62a004ddcc" x="774.227" y="346.416749" style="fill-opacity: 0; stroke: #373737"/>
     <use xlink:href="#m62a004ddcc" x="774.227" y="307.813158" style="fill-opacity: 0; stroke: #373737"/>
     <use xlink:href="#m62a004ddcc" x="774.227" y="334.949691" style="fill-opacity: 0; stroke: #373737"/>
     <use xlink:href="#m62a004ddcc" x="774.227" y="349.446398" style="fill-opacity: 0; stroke: #373737"/>
     <use xlink:href="#m62a004ddcc" x="774.227" y="347.622094" style="fill-opacity: 0; stroke: #373737"/>
     <use xlink:href="#m62a004ddcc" x="774.227" y="315.045223" style="fill-opacity: 0; stroke: #373737"/>
     <use xlink:href="#m62a004ddcc" x="774.227" y="347.03571" style="fill-opacity: 0; stroke: #373737"/>
     <use xlink:href="#m62a004ddcc" x="774.227" y="352.44347" style="fill-opacity: 0; stroke: #373737"/>
     <use xlink:href="#m62a004ddcc" x="774.227" y="341.595373" style="fill-opacity: 0; stroke: #373737"/>
    </g>
   </g>
   <g id="patch_16">
    <path d="M 158.2376 316.869528 
L 189.8268 316.869528 
L 189.8268 285.945934 
L 158.2376 285.945934 
L 158.2376 316.869528 
z
" clip-path="url(#p981ef99f90)" style="fill: #7b3b6b; stroke: #373737; stroke-linejoin: miter"/>
   </g>
   <g id="line2d_63">
    <path d="M 174.0322 316.869528 
L 174.0322 322.896249 
" clip-path="url(#p981ef99f90)" style="fill: none; stroke: #373737"/>
   </g>
   <g id="line2d_64">
    <path d="M 174.0322 285.945934 
L 174.0322 254.712859 
" clip-path="url(#p981ef99f90)" style="fill: none; stroke: #373737"/>
   </g>
   <g id="line2d_65">
    <path d="M 166.1349 322.896249 
L 181.9295 322.896249 
" clip-path="url(#p981ef99f90)" style="fill: none; stroke: #373737; stroke-linecap: square"/>
   </g>
   <g id="line2d_66">
    <path d="M 166.1349 254.712859 
L 181.9295 254.712859 
" clip-path="url(#p981ef99f90)" style="fill: none; stroke: #373737; stroke-linecap: square"/>
   </g>
   <g id="line2d_67">
    <g clip-path="url(#p981ef99f90)">
     <use xlink:href="#m62a004ddcc" x="174.0322" y="209.463586" style="fill-opacity: 0; stroke: #373737"/>
     <use xlink:href="#m62a004ddcc" x="174.0322" y="239.043384" style="fill-opacity: 0; stroke: #373737"/>
     <use xlink:href="#m62a004ddcc" x="174.0322" y="229.987014" style="fill-opacity: 0; stroke: #373737"/>
     <use xlink:href="#m62a004ddcc" x="174.0322" y="228.78167" style="fill-opacity: 0; stroke: #373737"/>
    </g>
   </g>
   <g id="patch_17">
    <path d="M 316.1836 266.033321 
L 347.7728 266.033321 
L 347.7728 228.928266 
L 316.1836 228.928266 
L 316.1836 266.033321 
z
" clip-path="url(#p981ef99f90)" style="fill: #7b3b6b; stroke: #373737; stroke-linejoin: miter"/>
   </g>
   <g id="line2d_68">
    <path d="M 331.9782 266.033321 
L 331.9782 271.620255 
" clip-path="url(#p981ef99f90)" style="fill: none; stroke: #373737"/>
   </g>
   <g id="line2d_69">
    <path d="M 331.9782 228.928266 
L 331.9782 175.681371 
" clip-path="url(#p981ef99f90)" style="fill: none; stroke: #373737"/>
   </g>
   <g id="line2d_70">
    <path d="M 324.0809 271.620255 
L 339.8755 271.620255 
" clip-path="url(#p981ef99f90)" style="fill: none; stroke: #373737; stroke-linecap: square"/>
   </g>
   <g id="line2d_71">
    <path d="M 324.0809 175.681371 
L 339.8755 175.681371 
" clip-path="url(#p981ef99f90)" style="fill: none; stroke: #373737; stroke-linecap: square"/>
   </g>
   <g id="line2d_72">
    <g clip-path="url(#p981ef99f90)">
     <use xlink:href="#m62a004ddcc" x="331.9782" y="171.478955" style="fill-opacity: 0; stroke: #373737"/>
     <use xlink:href="#m62a004ddcc" x="331.9782" y="150.955527" style="fill-opacity: 0; stroke: #373737"/>
    </g>
   </g>
   <g id="patch_18">
    <path d="M 474.1296 165.419657 
L 505.7188 165.419657 
L 505.7188 125.912057 
L 474.1296 125.912057 
L 474.1296 165.419657 
z
" clip-path="url(#p981ef99f90)" style="fill: #7b3b6b; stroke: #373737; stroke-linejoin: miter"/>
   </g>
   <g id="line2d_73">
    <path d="M 489.9242 165.419657 
L 489.9242 173.270683 
" clip-path="url(#p981ef99f90)" style="fill: none; stroke: #373737"/>
   </g>
   <g id="line2d_74">
    <path d="M 489.9242 125.912057 
L 489.9242 67.689046 
" clip-path="url(#p981ef99f90)" style="fill: none; stroke: #373737"/>
   </g>
   <g id="line2d_75">
    <path d="M 482.0269 173.270683 
L 497.8215 173.270683 
" clip-path="url(#p981ef99f90)" style="fill: none; stroke: #373737; stroke-linecap: square"/>
   </g>
   <g id="line2d_76">
    <path d="M 482.0269 67.689046 
L 497.8215 67.689046 
" clip-path="url(#p981ef99f90)" style="fill: none; stroke: #373737; stroke-linecap: square"/>
   </g>
   <g id="line2d_77">
    <g clip-path="url(#p981ef99f90)">
     <use xlink:href="#m62a004ddcc" x="489.9242" y="47.784578" style="fill-opacity: 0; stroke: #373737"/>
    </g>
   </g>
   <g id="patch_19">
    <path d="M 632.0756 368.145522 
L 663.6648 368.145522 
L 663.6648 338.125936 
L 632.0756 338.125936 
L 632.0756 368.145522 
z
" clip-path="url(#p981ef99f90)" style="fill: #7b3b6b; stroke: #373737; stroke-linejoin: miter"/>
   </g>
   <g id="line2d_78">
    <path d="M 647.8702 368.145522 
L 647.8702 372.966899 
" clip-path="url(#p981ef99f90)" style="fill: none; stroke: #373737"/>
   </g>
   <g id="line2d_79">
    <path d="M 647.8702 338.125936 
L 647.8702 294.521795 
" clip-path="url(#p981ef99f90)" style="fill: none; stroke: #373737"/>
   </g>
   <g id="line2d_80">
    <path d="M 639.9729 372.966899 
L 655.7675 372.966899 
" clip-path="url(#p981ef99f90)" style="fill: none; stroke: #373737; stroke-linecap: square"/>
   </g>
   <g id="line2d_81">
    <path d="M 639.9729 294.521795 
L 655.7675 294.521795 
" clip-path="url(#p981ef99f90)" style="fill: none; stroke: #373737; stroke-linecap: square"/>
   </g>
   <g id="line2d_82">
    <g clip-path="url(#p981ef99f90)">
     <use xlink:href="#m62a004ddcc" x="647.8702" y="265.593534" style="fill-opacity: 0; stroke: #373737"/>
     <use xlink:href="#m62a004ddcc" x="647.8702" y="282.468353" style="fill-opacity: 0; stroke: #373737"/>
     <use xlink:href="#m62a004ddcc" x="647.8702" y="283.673697" style="fill-opacity: 0; stroke: #373737"/>
    </g>
   </g>
   <g id="patch_20">
    <path d="M 790.0216 214.903923 
L 821.6108 214.903923 
L 821.6108 175.998996 
L 790.0216 175.998996 
L 790.0216 214.903923 
z
" clip-path="url(#p981ef99f90)" style="fill: #7b3b6b; stroke: #373737; stroke-linejoin: miter"/>
   </g>
   <g id="line2d_83">
    <path d="M 805.8162 214.903923 
L 805.8162 222.754949 
" clip-path="url(#p981ef99f90)" style="fill: none; stroke: #373737"/>
   </g>
   <g id="line2d_84">
    <path d="M 805.8162 175.998996 
L 805.8162 119.584 
" clip-path="url(#p981ef99f90)" style="fill: none; stroke: #373737"/>
   </g>
   <g id="line2d_85">
    <path d="M 797.9189 222.754949 
L 813.7135 222.754949 
" clip-path="url(#p981ef99f90)" style="fill: none; stroke: #373737; stroke-linecap: square"/>
   </g>
   <g id="line2d_86">
    <path d="M 797.9189 119.584 
L 813.7135 119.584 
" clip-path="url(#p981ef99f90)" style="fill: none; stroke: #373737; stroke-linecap: square"/>
   </g>
   <g id="line2d_87">
    <g clip-path="url(#p981ef99f90)">
     <use xlink:href="#m62a004ddcc" x="805.8162" y="99.679532" style="fill-opacity: 0; stroke: #373737"/>
    </g>
   </g>
   <g id="line2d_88">
    <path d="M 95.0592 436.296335 
L 126.6484 436.296335 
" clip-path="url(#p981ef99f90)" style="fill: none; stroke: #373737"/>
   </g>
   <g id="line2d_89">
    <path d="M 253.0052 411.57049 
L 284.5944 411.57049 
" clip-path="url(#p981ef99f90)" style="fill: none; stroke: #373737"/>
   </g>
   <g id="line2d_90">
    <path d="M 410.9512 360.913457 
L 442.5404 360.913457 
" clip-path="url(#p981ef99f90)" style="fill: none; stroke: #373737"/>
   </g>
   <g id="line2d_91">
    <path d="M 568.8972 462.553293 
L 600.4864 462.553293 
" clip-path="url(#p981ef99f90)" style="fill: none; stroke: #373737"/>
   </g>
   <g id="line2d_92">
    <path d="M 726.8432 385.932493 
L 758.4324 385.932493 
" clip-path="url(#p981ef99f90)" style="fill: none; stroke: #373737"/>
   </g>
   <g id="line2d_93">
    <path d="M 126.6484 431.784438 
L 158.2376 431.784438 
" clip-path="url(#p981ef99f90)" style="fill: none; stroke: #373737"/>
   </g>
   <g id="line2d_94">
    <path d="M 284.5944 403.133081 
L 316.1836 403.133081 
" clip-path="url(#p981ef99f90)" style="fill: none; stroke: #373737"/>
   </g>
   <g id="line2d_95">
    <path d="M 442.5404 348.827438 
L 474.1296 348.827438 
" clip-path="url(#p981ef99f90)" style="fill: none; stroke: #373737"/>
   </g>
   <g id="line2d_96">
    <path d="M 600.4864 461.64114 
L 632.0756 461.64114 
" clip-path="url(#p981ef99f90)" style="fill: none; stroke: #373737"/>
   </g>
   <g id="line2d_97">
    <path d="M 758.4324 374.758627 
L 790.0216 374.758627 
" clip-path="url(#p981ef99f90)" style="fill: none; stroke: #373737"/>
   </g>
   <g id="line2d_98">
    <path d="M 158.2376 310.517038 
L 189.8268 310.517038 
" clip-path="url(#p981ef99f90)" style="fill: none; stroke: #373737"/>
   </g>
   <g id="line2d_99">
    <path d="M 316.1836 259.534236 
L 347.7728 259.534236 
" clip-path="url(#p981ef99f90)" style="fill: none; stroke: #373737"/>
   </g>
   <g id="line2d_100">
    <path d="M 474.1296 158.20388 
L 505.7188 158.20388 
" clip-path="url(#p981ef99f90)" style="fill: none; stroke: #373737"/>
   </g>
   <g id="line2d_101">
    <path d="M 632.0756 361.19036 
L 663.6648 361.19036 
" clip-path="url(#p981ef99f90)" style="fill: none; stroke: #373737"/>
   </g>
   <g id="line2d_102">
    <path d="M 790.0216 208.860914 
L 821.6108 208.860914 
" clip-path="url(#p981ef99f90)" style="fill: none; stroke: #373737"/>
   </g>
   <g id="patch_21">
    <path d="M 63.47 486.780711 
L 63.47 26.88 
" style="fill: none; stroke: #000000; stroke-width: 0.8; stroke-linejoin: miter; stroke-linecap: square"/>
   </g>
   <g id="patch_22">
    <path d="M 853.2 486.780711 
L 853.2 26.88 
" style="fill: none; stroke: #000000; stroke-width: 0.8; stroke-linejoin: miter; stroke-linecap: square"/>
   </g>
   <g id="patch_23">
    <path d="M 63.47 486.780711 
L 853.2 486.780711 
" style="fill: none; stroke: #000000; stroke-width: 0.8; stroke-linejoin: miter; stroke-linecap: square"/>
   </g>
   <g id="patch_24">
    <path d="M 63.47 26.88 
L 853.2 26.88 
" style="fill: none; stroke: #000000; stroke-width: 0.8; stroke-linejoin: miter; stroke-linecap: square"/>
   </g>
   <g id="text_15">
    <!-- Timing Accuracy: DY vs. STATIC (LB, EGS) -->
    <g transform="translate(334.538125 20.88) scale(0.12 -0.12)">
     <defs>
      <path id="DejaVuSans-54" d="M -19 4666 
L 3928 4666 
L 3928 4134 
L 2272 4134 
L 2272 0 
L 1638 0 
L 1638 4134 
L -19 4134 
L -19 4666 
z
" transform="scale(0.015625)"/>
      <path id="DejaVuSans-6d" d="M 3328 2828 
Q 3544 3216 3844 3400 
Q 4144 3584 4550 3584 
Q 5097 3584 5394 3201 
Q 5691 2819 5691 2113 
L 5691 0 
L 5113 0 
L 5113 2094 
Q 5113 2597 4934 2840 
Q 4756 3084 4391 3084 
Q 3944 3084 3684 2787 
Q 3425 2491 3425 1978 
L 3425 0 
L 2847 0 
L 2847 2094 
Q 2847 2600 2669 2842 
Q 2491 3084 2119 3084 
Q 1678 3084 1418 2786 
Q 1159 2488 1159 1978 
L 1159 0 
L 581 0 
L 581 3500 
L 1159 3500 
L 1159 2956 
Q 1356 3278 1631 3431 
Q 1906 3584 2284 3584 
Q 2666 3584 2933 3390 
Q 3200 3197 3328 2828 
z
" transform="scale(0.015625)"/>
      <path id="DejaVuSans-41" d="M 2188 4044 
L 1331 1722 
L 3047 1722 
L 2188 4044 
z
M 1831 4666 
L 2547 4666 
L 4325 0 
L 3669 0 
L 3244 1197 
L 1141 1197 
L 716 0 
L 50 0 
L 1831 4666 
z
" transform="scale(0.015625)"/>
      <path id="DejaVuSans-79" d="M 2059 -325 
Q 1816 -950 1584 -1140 
Q 1353 -1331 966 -1331 
L 506 -1331 
L 506 -850 
L 844 -850 
Q 1081 -850 1212 -737 
Q 1344 -625 1503 -206 
L 1606 56 
L 191 3500 
L 800 3500 
L 1894 763 
L 2988 3500 
L 3597 3500 
L 2059 -325 
z
" transform="scale(0.015625)"/>
      <path id="DejaVuSans-3a" d="M 750 794 
L 1409 794 
L 1409 0 
L 750 0 
L 750 794 
z
M 750 3309 
L 1409 3309 
L 1409 2516 
L 750 2516 
L 750 3309 
z
" transform="scale(0.015625)"/>
      <path id="DejaVuSans-59" d="M -13 4666 
L 666 4666 
L 1959 2747 
L 3244 4666 
L 3922 4666 
L 2272 2222 
L 2272 0 
L 1638 0 
L 1638 2222 
L -13 4666 
z
" transform="scale(0.015625)"/>
      <path id="DejaVuSans-76" d="M 191 3500 
L 800 3500 
L 1894 563 
L 2988 3500 
L 3597 3500 
L 2284 0 
L 1503 0 
L 191 3500 
z
" transform="scale(0.015625)"/>
      <path id="DejaVuSans-2e" d="M 684 794 
L 1344 794 
L 1344 0 
L 684 0 
L 684 794 
z
" transform="scale(0.015625)"/>
      <path id="DejaVuSans-53" d="M 3425 4513 
L 3425 3897 
Q 3066 4069 2747 4153 
Q 2428 4238 2131 4238 
Q 1616 4238 1336 4038 
Q 1056 3838 1056 3469 
Q 1056 3159 1242 3001 
Q 1428 2844 1947 2747 
L 2328 2669 
Q 3034 2534 3370 2195 
Q 3706 1856 3706 1288 
Q 3706 609 3251 259 
Q 2797 -91 1919 -91 
Q 1588 -91 1214 -16 
Q 841 59 441 206 
L 441 856 
Q 825 641 1194 531 
Q 1563 422 1919 422 
Q 2459 422 2753 634 
Q 3047 847 3047 1241 
Q 3047 1584 2836 1778 
Q 2625 1972 2144 2069 
L 1759 2144 
Q 1053 2284 737 2584 
Q 422 2884 422 3419 
Q 422 4038 858 4394 
Q 1294 4750 2059 4750 
Q 2388 4750 2728 4690 
Q 3069 4631 3425 4513 
z
" transform="scale(0.015625)"/>
      <path id="DejaVuSans-49" d="M 628 4666 
L 1259 4666 
L 1259 0 
L 628 0 
L 628 4666 
z
" transform="scale(0.015625)"/>
      <path id="DejaVuSans-43" d="M 4122 4306 
L 4122 3641 
Q 3803 3938 3442 4084 
Q 3081 4231 2675 4231 
Q 1875 4231 1450 3742 
Q 1025 3253 1025 2328 
Q 1025 1406 1450 917 
Q 1875 428 2675 428 
Q 3081 428 3442 575 
Q 3803 722 4122 1019 
L 4122 359 
Q 3791 134 3420 21 
Q 3050 -91 2638 -91 
Q 1578 -91 968 557 
Q 359 1206 359 2328 
Q 359 3453 968 4101 
Q 1578 4750 2638 4750 
Q 3056 4750 3426 4639 
Q 3797 4528 4122 4306 
z
" transform="scale(0.015625)"/>
      <path id="DejaVuSans-42" d="M 1259 2228 
L 1259 519 
L 2272 519 
Q 2781 519 3026 730 
Q 3272 941 3272 1375 
Q 3272 1813 3026 2020 
Q 2781 2228 2272 2228 
L 1259 2228 
z
M 1259 4147 
L 1259 2741 
L 2194 2741 
Q 2656 2741 2882 2914 
Q 3109 3088 3109 3444 
Q 3109 3797 2882 3972 
Q 2656 4147 2194 4147 
L 1259 4147 
z
M 628 4666 
L 2241 4666 
Q 2963 4666 3353 4366 
Q 3744 4066 3744 3513 
Q 3744 3084 3544 2831 
Q 3344 2578 2956 2516 
Q 3422 2416 3680 2098 
Q 3938 1781 3938 1306 
Q 3938 681 3513 340 
Q 3088 0 2303 0 
L 628 0 
L 628 4666 
z
" transform="scale(0.015625)"/>
      <path id="DejaVuSans-45" d="M 628 4666 
L 3578 4666 
L 3578 4134 
L 1259 4134 
L 1259 2753 
L 3481 2753 
L 3481 2222 
L 1259 2222 
L 1259 531 
L 3634 531 
L 3634 0 
L 628 0 
L 628 4666 
z
" transform="scale(0.015625)"/>
     </defs>
     <use xlink:href="#DejaVuSans-54"/>
     <use xlink:href="#DejaVuSans-69" transform="translate(57.958984 0)"/>
     <use xlink:href="#DejaVuSans-6d" transform="translate(85.742188 0)"/>
     <use xlink:href="#DejaVuSans-69" transform="translate(183.154297 0)"/>
     <use xlink:href="#DejaVuSans-6e" transform="translate(210.9375 0)"/>
     <use xlink:href="#DejaVuSans-67" transform="translate(274.316406 0)"/>
     <use xlink:href="#DejaVuSans-20" transform="translate(337.792969 0)"/>
     <use xlink:href="#DejaVuSans-41" transform="translate(369.580078 0)"/>
     <use xlink:href="#DejaVuSans-63" transform="translate(436.238281 0)"/>
     <use xlink:href="#DejaVuSans-63" transform="translate(491.21875 0)"/>
     <use xlink:href="#DejaVuSans-75" transform="translate(546.199219 0)"/>
     <use xlink:href="#DejaVuSans-72" transform="translate(609.578125 0)"/>
     <use xlink:href="#DejaVuSans-61" transform="translate(650.691406 0)"/>
     <use xlink:href="#DejaVuSans-63" transform="translate(711.970703 0)"/>
     <use xlink:href="#DejaVuSans-79" transform="translate(766.951172 0)"/>
     <use xlink:href="#DejaVuSans-3a" transform="translate(818.880859 0)"/>
     <use xlink:href="#DejaVuSans-20" transform="translate(852.572266 0)"/>
     <use xlink:href="#DejaVuSans-44" transform="translate(884.359375 0)"/>
     <use xlink:href="#DejaVuSans-59" transform="translate(955.861328 0)"/>
     <use xlink:href="#DejaVuSans-20" transform="translate(1016.945312 0)"/>
     <use xlink:href="#DejaVuSans-76" transform="translate(1048.732422 0)"/>
     <use xlink:href="#DejaVuSans-73" transform="translate(1107.912109 0)"/>
     <use xlink:href="#DejaVuSans-2e" transform="translate(1160.011719 0)"/>
     <use xlink:href="#DejaVuSans-20" transform="translate(1191.798828 0)"/>
     <use xlink:href="#DejaVuSans-53" transform="translate(1223.585938 0)"/>
     <use xlink:href="#DejaVuSans-54" transform="translate(1287.0625 0)"/>
     <use xlink:href="#DejaVuSans-41" transform="translate(1340.396484 0)"/>
     <use xlink:href="#DejaVuSans-54" transform="translate(1401.054688 0)"/>
     <use xlink:href="#DejaVuSans-49" transform="translate(1462.138672 0)"/>
     <use xlink:href="#DejaVuSans-43" transform="translate(1491.630859 0)"/>
     <use xlink:href="#DejaVuSans-20" transform="translate(1561.455078 0)"/>
     <use xlink:href="#DejaVuSans-28" transform="translate(1593.242188 0)"/>
     <use xlink:href="#DejaVuSans-4c" transform="translate(1632.255859 0)"/>
     <use xlink:href="#DejaVuSans-42" transform="translate(1687.96875 0)"/>
     <use xlink:href="#DejaVuSans-2c" transform="translate(1756.572266 0)"/>
     <use xlink:href="#DejaVuSans-20" transform="translate(1788.359375 0)"/>
     <use xlink:href="#DejaVuSans-45" transform="translate(1820.146484 0)"/>
     <use xlink:href="#DejaVuSans-47" transform="translate(1883.330078 0)"/>
     <use xlink:href="#DejaVuSans-53" transform="translate(1960.820312 0)"/>
     <use xlink:href="#DejaVuSans-29" transform="translate(2024.296875 0)"/>
    </g>
   </g>
   <g id="legend_1">
    <g id="patch_25">
     <path d="M 793.784375 93.5925 
L 846.2 93.5925 
Q 848.2 93.5925 848.2 91.5925 
L 848.2 33.88 
Q 848.2 31.88 846.2 31.88 
L 793.784375 31.88 
Q 791.784375 31.88 791.784375 33.88 
L 791.784375 91.5925 
Q 791.784375 93.5925 793.784375 93.5925 
z
" style="fill: #ffffff; opacity: 0.8; stroke: #cccccc; stroke-linejoin: miter"/>
    </g>
    <g id="text_16">
     <!-- Dataset -->
     <g transform="translate(800.4125 43.478438) scale(0.1 -0.1)">
      <use xlink:href="#DejaVuSans-44"/>
      <use xlink:href="#DejaVuSans-61" transform="translate(77.001953 0)"/>
      <use xlink:href="#DejaVuSans-74" transform="translate(138.28125 0)"/>
      <use xlink:href="#DejaVuSans-61" transform="translate(177.490234 0)"/>
      <use xlink:href="#DejaVuSans-73" transform="translate(238.769531 0)"/>
      <use xlink:href="#DejaVuSans-65" transform="translate(290.869141 0)"/>
      <use xlink:href="#DejaVuSans-74" transform="translate(352.392578 0)"/>
     </g>
    </g>
    <g id="patch_26">
     <path d="M 795.784375 58.156563 
L 815.784375 58.156563 
L 815.784375 51.156563 
L 795.784375 51.156563 
z
" style="fill: #d47d6f; stroke: #373737; stroke-linejoin: miter"/>
    </g>
    <g id="text_17">
     <!-- EGS -->
     <g transform="translate(823.784375 58.156563) scale(0.1 -0.1)">
      <use xlink:href="#DejaVuSans-45"/>
      <use xlink:href="#DejaVuSans-47" transform="translate(63.183594 0)"/>
      <use xlink:href="#DejaVuSans-53" transform="translate(140.673828 0)"/>
     </g>
    </g>
    <g id="patch_27">
     <path d="M 795.784375 72.834688 
L 815.784375 72.834688 
L 815.784375 65.834688 
L 795.784375 65.834688 
z
" style="fill: #b1516e; stroke: #373737; stroke-linejoin: miter"/>
    </g>
    <g id="text_18">
     <!-- LB -->
     <g transform="translate(823.784375 72.834688) scale(0.1 -0.1)">
      <use xlink:href="#DejaVuSans-4c"/>
      <use xlink:href="#DejaVuSans-42" transform="translate(55.712891 0)"/>
     </g>
    </g>
    <g id="patch_28">
     <path d="M 795.784375 87.512813 
L 815.784375 87.512813 
L 815.784375 80.512813 
L 795.784375 80.512813 
z
" style="fill: #7b3b6b; stroke: #373737; stroke-linejoin: miter"/>
    </g>
    <g id="text_19">
     <!-- DY -->
     <g transform="translate(823.784375 87.512813) scale(0.1 -0.1)">
      <use xlink:href="#DejaVuSans-44"/>
      <use xlink:href="#DejaVuSans-59" transform="translate(71.501953 0)"/>
     </g>
    </g>
   </g>
  </g>
 </g>
 <defs>
  <clipPath id="p981ef99f90">
   <rect x="63.47" y="26.88" width="789.73" height="459.900711"/>
  </clipPath>
 </defs>
</svg>
