<?xml version="1.0" encoding="utf-8" standalone="no"?>
<!DOCTYPE svg PUBLIC "-//W3C//DTD SVG 1.1//EN"
  "http://www.w3.org/Graphics/SVG/1.1/DTD/svg11.dtd">
<svg xmlns:xlink="http://www.w3.org/1999/xlink" width="864pt" height="576pt" viewBox="0 0 864 576" xmlns="http://www.w3.org/2000/svg" version="1.1">
 <metadata>
  <rdf:RDF xmlns:dc="http://purl.org/dc/elements/1.1/" xmlns:cc="http://creativecommons.org/ns#" xmlns:rdf="http://www.w3.org/1999/02/22-rdf-syntax-ns#">
   <cc:Work>
    <dc:type rdf:resource="http://purl.org/dc/dcmitype/StillImage"/>
    <dc:date>2025-03-28T12:55:50.953218</dc:date>
    <dc:format>image/svg+xml</dc:format>
    <dc:creator>
     <cc:Agent>
      <dc:title>Matplotlib v3.10.1, https://matplotlib.org/</dc:title>
     </cc:Agent>
    </dc:creator>
   </cc:Work>
  </rdf:RDF>
 </metadata>
 <defs>
  <style type="text/css">*{stroke-linejoin: round; stroke-linecap: butt}</style>
 </defs>
 <g id="figure_1">
  <g id="patch_1">
   <path d="M 0 576 
L 864 576 
L 864 0 
L 0 0 
z
" style="fill: #ffffff"/>
  </g>
  <g id="axes_1">
   <g id="patch_2">
    <path d="M 63.47 495.745941 
L 853.2 495.745941 
L 853.2 90.315397 
L 63.47 90.315397 
z
" style="fill: #ffffff"/>
   </g>
   <g id="patch_3">
    <path d="M 119.879286 480.148753 
L 119.879286 480.148753 
L 119.879286 480.148753 
L 119.879286 480.148753 
z
" clip-path="url(#p7fb02d1fb4)" style="fill: #72b6a1; stroke: #595959; stroke-linejoin: miter"/>
   </g>
   <g id="patch_4">
    <path d="M 119.879286 480.148753 
L 119.879286 480.148753 
L 119.879286 480.148753 
L 119.879286 480.148753 
z
" clip-path="url(#p7fb02d1fb4)" style="fill: #e99675; stroke: #595959; stroke-linejoin: miter"/>
   </g>
   <g id="patch_5">
    <path d="M 119.879286 480.148753 
L 119.879286 480.148753 
L 119.879286 480.148753 
L 119.879286 480.148753 
z
" clip-path="url(#p7fb02d1fb4)" style="fill: #95a3c3; stroke: #595959; stroke-linejoin: miter"/>
   </g>
   <g id="matplotlib.axis_1">
    <g id="xtick_1">
     <g id="line2d_1">
      <defs>
       <path id="m1a866f8cf5" d="M 0 0 
L 0 3.5 
" style="stroke: #000000; stroke-width: 0.8"/>
      </defs>
      <g>
       <use xlink:href="#m1a866f8cf5" x="119.879286" y="495.745941" style="stroke: #000000; stroke-width: 0.8"/>
      </g>
     </g>
     <g id="text_1">
      <!-- producer, 0 -->
      <g transform="translate(101.493957 548.791851) rotate(-45) scale(0.1 -0.1)">
       <defs>
        <path id="DejaVuSans-70" d="M 1159 525 
L 1159 -1331 
L 581 -1331 
L 581 3500 
L 1159 3500 
L 1159 2969 
Q 1341 3281 1617 3432 
Q 1894 3584 2278 3584 
Q 2916 3584 3314 3078 
Q 3713 2572 3713 1747 
Q 3713 922 3314 415 
Q 2916 -91 2278 -91 
Q 1894 -91 1617 61 
Q 1341 213 1159 525 
z
M 3116 1747 
Q 3116 2381 2855 2742 
Q 2594 3103 2138 3103 
Q 1681 3103 1420 2742 
Q 1159 2381 1159 1747 
Q 1159 1113 1420 752 
Q 1681 391 2138 391 
Q 2594 391 2855 752 
Q 3116 1113 3116 1747 
z
" transform="scale(0.015625)"/>
        <path id="DejaVuSans-72" d="M 2631 2963 
Q 2534 3019 2420 3045 
Q 2306 3072 2169 3072 
Q 1681 3072 1420 2755 
Q 1159 2438 1159 1844 
L 1159 0 
L 581 0 
L 581 3500 
L 1159 3500 
L 1159 2956 
Q 1341 3275 1631 3429 
Q 1922 3584 2338 3584 
Q 2397 3584 2469 3576 
Q 2541 3569 2628 3553 
L 2631 2963 
z
" transform="scale(0.015625)"/>
        <path id="DejaVuSans-6f" d="M 1959 3097 
Q 1497 3097 1228 2736 
Q 959 2375 959 1747 
Q 959 1119 1226 758 
Q 1494 397 1959 397 
Q 2419 397 2687 759 
Q 2956 1122 2956 1747 
Q 2956 2369 2687 2733 
Q 2419 3097 1959 3097 
z
M 1959 3584 
Q 2709 3584 3137 3096 
Q 3566 2609 3566 1747 
Q 3566 888 3137 398 
Q 2709 -91 1959 -91 
Q 1206 -91 779 398 
Q 353 888 353 1747 
Q 353 2609 779 3096 
Q 1206 3584 1959 3584 
z
" transform="scale(0.015625)"/>
        <path id="DejaVuSans-64" d="M 2906 2969 
L 2906 4863 
L 3481 4863 
L 3481 0 
L 2906 0 
L 2906 525 
Q 2725 213 2448 61 
Q 2172 -91 1784 -91 
Q 1150 -91 751 415 
Q 353 922 353 1747 
Q 353 2572 751 3078 
Q 1150 3584 1784 3584 
Q 2172 3584 2448 3432 
Q 2725 3281 2906 2969 
z
M 947 1747 
Q 947 1113 1208 752 
Q 1469 391 1925 391 
Q 2381 391 2643 752 
Q 2906 1113 2906 1747 
Q 2906 2381 2643 2742 
Q 2381 3103 1925 3103 
Q 1469 3103 1208 2742 
Q 947 2381 947 1747 
z
" transform="scale(0.015625)"/>
        <path id="DejaVuSans-75" d="M 544 1381 
L 544 3500 
L 1119 3500 
L 1119 1403 
Q 1119 906 1312 657 
Q 1506 409 1894 409 
Q 2359 409 2629 706 
Q 2900 1003 2900 1516 
L 2900 3500 
L 3475 3500 
L 3475 0 
L 2900 0 
L 2900 538 
Q 2691 219 2414 64 
Q 2138 -91 1772 -91 
Q 1169 -91 856 284 
Q 544 659 544 1381 
z
M 1991 3584 
L 1991 3584 
z
" transform="scale(0.015625)"/>
        <path id="DejaVuSans-63" d="M 3122 3366 
L 3122 2828 
Q 2878 2963 2633 3030 
Q 2388 3097 2138 3097 
Q 1578 3097 1268 2742 
Q 959 2388 959 1747 
Q 959 1106 1268 751 
Q 1578 397 2138 397 
Q 2388 397 2633 464 
Q 2878 531 3122 666 
L 3122 134 
Q 2881 22 2623 -34 
Q 2366 -91 2075 -91 
Q 1284 -91 818 406 
Q 353 903 353 1747 
Q 353 2603 823 3093 
Q 1294 3584 2113 3584 
Q 2378 3584 2631 3529 
Q 2884 3475 3122 3366 
z
" transform="scale(0.015625)"/>
        <path id="DejaVuSans-65" d="M 3597 1894 
L 3597 1613 
L 953 1613 
Q 991 1019 1311 708 
Q 1631 397 2203 397 
Q 2534 397 2845 478 
Q 3156 559 3463 722 
L 3463 178 
Q 3153 47 2828 -22 
Q 2503 -91 2169 -91 
Q 1331 -91 842 396 
Q 353 884 353 1716 
Q 353 2575 817 3079 
Q 1281 3584 2069 3584 
Q 2775 3584 3186 3129 
Q 3597 2675 3597 1894 
z
M 3022 2063 
Q 3016 2534 2758 2815 
Q 2500 3097 2075 3097 
Q 1594 3097 1305 2825 
Q 1016 2553 972 2059 
L 3022 2063 
z
" transform="scale(0.015625)"/>
        <path id="DejaVuSans-2c" d="M 750 794 
L 1409 794 
L 1409 256 
L 897 -744 
L 494 -744 
L 750 256 
L 750 794 
z
" transform="scale(0.015625)"/>
        <path id="DejaVuSans-20" transform="scale(0.015625)"/>
        <path id="DejaVuSans-30" d="M 2034 4250 
Q 1547 4250 1301 3770 
Q 1056 3291 1056 2328 
Q 1056 1369 1301 889 
Q 1547 409 2034 409 
Q 2525 409 2770 889 
Q 3016 1369 3016 2328 
Q 3016 3291 2770 3770 
Q 2525 4250 2034 4250 
z
M 2034 4750 
Q 2819 4750 3233 4129 
Q 3647 3509 3647 2328 
Q 3647 1150 3233 529 
Q 2819 -91 2034 -91 
Q 1250 -91 836 529 
Q 422 1150 422 2328 
Q 422 3509 836 4129 
Q 1250 4750 2034 4750 
z
" transform="scale(0.015625)"/>
       </defs>
       <use xlink:href="#DejaVuSans-70"/>
       <use xlink:href="#DejaVuSans-72" transform="translate(63.476562 0)"/>
       <use xlink:href="#DejaVuSans-6f" transform="translate(102.339844 0)"/>
       <use xlink:href="#DejaVuSans-64" transform="translate(163.521484 0)"/>
       <use xlink:href="#DejaVuSans-75" transform="translate(226.998047 0)"/>
       <use xlink:href="#DejaVuSans-63" transform="translate(290.376953 0)"/>
       <use xlink:href="#DejaVuSans-65" transform="translate(345.357422 0)"/>
       <use xlink:href="#DejaVuSans-72" transform="translate(406.880859 0)"/>
       <use xlink:href="#DejaVuSans-2c" transform="translate(447.994141 0)"/>
       <use xlink:href="#DejaVuSans-20" transform="translate(479.78125 0)"/>
       <use xlink:href="#DejaVuSans-30" transform="translate(511.568359 0)"/>
      </g>
     </g>
    </g>
    <g id="xtick_2">
     <g id="line2d_2">
      <g>
       <use xlink:href="#m1a866f8cf5" x="232.697857" y="495.745941" style="stroke: #000000; stroke-width: 0.8"/>
      </g>
     </g>
     <g id="text_2">
      <!-- runner, 0 -->
      <g transform="translate(218.348009 540.72089) rotate(-45) scale(0.1 -0.1)">
       <defs>
        <path id="DejaVuSans-6e" d="M 3513 2113 
L 3513 0 
L 2938 0 
L 2938 2094 
Q 2938 2591 2744 2837 
Q 2550 3084 2163 3084 
Q 1697 3084 1428 2787 
Q 1159 2491 1159 1978 
L 1159 0 
L 581 0 
L 581 3500 
L 1159 3500 
L 1159 2956 
Q 1366 3272 1645 3428 
Q 1925 3584 2291 3584 
Q 2894 3584 3203 3211 
Q 3513 2838 3513 2113 
z
" transform="scale(0.015625)"/>
       </defs>
       <use xlink:href="#DejaVuSans-72"/>
       <use xlink:href="#DejaVuSans-75" transform="translate(41.113281 0)"/>
       <use xlink:href="#DejaVuSans-6e" transform="translate(104.492188 0)"/>
       <use xlink:href="#DejaVuSans-6e" transform="translate(167.871094 0)"/>
       <use xlink:href="#DejaVuSans-65" transform="translate(231.25 0)"/>
       <use xlink:href="#DejaVuSans-72" transform="translate(292.773438 0)"/>
       <use xlink:href="#DejaVuSans-2c" transform="translate(333.886719 0)"/>
       <use xlink:href="#DejaVuSans-20" transform="translate(365.673828 0)"/>
       <use xlink:href="#DejaVuSans-30" transform="translate(397.460938 0)"/>
      </g>
     </g>
    </g>
    <g id="xtick_3">
     <g id="line2d_3">
      <g>
       <use xlink:href="#m1a866f8cf5" x="345.516429" y="495.745941" style="stroke: #000000; stroke-width: 0.8"/>
      </g>
     </g>
     <g id="text_3">
      <!-- runner, 1 -->
      <g transform="translate(331.16658 540.72089) rotate(-45) scale(0.1 -0.1)">
       <defs>
        <path id="DejaVuSans-31" d="M 794 531 
L 1825 531 
L 1825 4091 
L 703 3866 
L 703 4441 
L 1819 4666 
L 2450 4666 
L 2450 531 
L 3481 531 
L 3481 0 
L 794 0 
L 794 531 
z
" transform="scale(0.015625)"/>
       </defs>
       <use xlink:href="#DejaVuSans-72"/>
       <use xlink:href="#DejaVuSans-75" transform="translate(41.113281 0)"/>
       <use xlink:href="#DejaVuSans-6e" transform="translate(104.492188 0)"/>
       <use xlink:href="#DejaVuSans-6e" transform="translate(167.871094 0)"/>
       <use xlink:href="#DejaVuSans-65" transform="translate(231.25 0)"/>
       <use xlink:href="#DejaVuSans-72" transform="translate(292.773438 0)"/>
       <use xlink:href="#DejaVuSans-2c" transform="translate(333.886719 0)"/>
       <use xlink:href="#DejaVuSans-20" transform="translate(365.673828 0)"/>
       <use xlink:href="#DejaVuSans-31" transform="translate(397.460938 0)"/>
      </g>
     </g>
    </g>
    <g id="xtick_4">
     <g id="line2d_4">
      <g>
       <use xlink:href="#m1a866f8cf5" x="458.335" y="495.745941" style="stroke: #000000; stroke-width: 0.8"/>
      </g>
     </g>
     <g id="text_4">
      <!-- worker_0, 0 -->
      <g transform="translate(439.617663 549.259204) rotate(-45) scale(0.1 -0.1)">
       <defs>
        <path id="DejaVuSans-77" d="M 269 3500 
L 844 3500 
L 1563 769 
L 2278 3500 
L 2956 3500 
L 3675 769 
L 4391 3500 
L 4966 3500 
L 4050 0 
L 3372 0 
L 2619 2869 
L 1863 0 
L 1184 0 
L 269 3500 
z
" transform="scale(0.015625)"/>
        <path id="DejaVuSans-6b" d="M 581 4863 
L 1159 4863 
L 1159 1991 
L 2875 3500 
L 3609 3500 
L 1753 1863 
L 3688 0 
L 2938 0 
L 1159 1709 
L 1159 0 
L 581 0 
L 581 4863 
z
" transform="scale(0.015625)"/>
        <path id="DejaVuSans-5f" d="M 3263 -1063 
L 3263 -1509 
L -63 -1509 
L -63 -1063 
L 3263 -1063 
z
" transform="scale(0.015625)"/>
       </defs>
       <use xlink:href="#DejaVuSans-77"/>
       <use xlink:href="#DejaVuSans-6f" transform="translate(81.787109 0)"/>
       <use xlink:href="#DejaVuSans-72" transform="translate(142.96875 0)"/>
       <use xlink:href="#DejaVuSans-6b" transform="translate(184.082031 0)"/>
       <use xlink:href="#DejaVuSans-65" transform="translate(238.367188 0)"/>
       <use xlink:href="#DejaVuSans-72" transform="translate(299.890625 0)"/>
       <use xlink:href="#DejaVuSans-5f" transform="translate(341.003906 0)"/>
       <use xlink:href="#DejaVuSans-30" transform="translate(391.003906 0)"/>
       <use xlink:href="#DejaVuSans-2c" transform="translate(454.626953 0)"/>
       <use xlink:href="#DejaVuSans-20" transform="translate(486.414062 0)"/>
       <use xlink:href="#DejaVuSans-30" transform="translate(518.201172 0)"/>
      </g>
     </g>
    </g>
    <g id="xtick_5">
     <g id="line2d_5">
      <g>
       <use xlink:href="#m1a866f8cf5" x="571.153571" y="495.745941" style="stroke: #000000; stroke-width: 0.8"/>
      </g>
     </g>
     <g id="text_5">
      <!-- worker_1, 0 -->
      <g transform="translate(552.436234 549.259204) rotate(-45) scale(0.1 -0.1)">
       <use xlink:href="#DejaVuSans-77"/>
       <use xlink:href="#DejaVuSans-6f" transform="translate(81.787109 0)"/>
       <use xlink:href="#DejaVuSans-72" transform="translate(142.96875 0)"/>
       <use xlink:href="#DejaVuSans-6b" transform="translate(184.082031 0)"/>
       <use xlink:href="#DejaVuSans-65" transform="translate(238.367188 0)"/>
       <use xlink:href="#DejaVuSans-72" transform="translate(299.890625 0)"/>
       <use xlink:href="#DejaVuSans-5f" transform="translate(341.003906 0)"/>
       <use xlink:href="#DejaVuSans-31" transform="translate(391.003906 0)"/>
       <use xlink:href="#DejaVuSans-2c" transform="translate(454.626953 0)"/>
       <use xlink:href="#DejaVuSans-20" transform="translate(486.414062 0)"/>
       <use xlink:href="#DejaVuSans-30" transform="translate(518.201172 0)"/>
      </g>
     </g>
    </g>
    <g id="xtick_6">
     <g id="line2d_6">
      <g>
       <use xlink:href="#m1a866f8cf5" x="683.972143" y="495.745941" style="stroke: #000000; stroke-width: 0.8"/>
      </g>
     </g>
     <g id="text_6">
      <!-- worker_2, 0 -->
      <g transform="translate(665.254805 549.259204) rotate(-45) scale(0.1 -0.1)">
       <defs>
        <path id="DejaVuSans-32" d="M 1228 531 
L 3431 531 
L 3431 0 
L 469 0 
L 469 531 
Q 828 903 1448 1529 
Q 2069 2156 2228 2338 
Q 2531 2678 2651 2914 
Q 2772 3150 2772 3378 
Q 2772 3750 2511 3984 
Q 2250 4219 1831 4219 
Q 1534 4219 1204 4116 
Q 875 4013 500 3803 
L 500 4441 
Q 881 4594 1212 4672 
Q 1544 4750 1819 4750 
Q 2544 4750 2975 4387 
Q 3406 4025 3406 3419 
Q 3406 3131 3298 2873 
Q 3191 2616 2906 2266 
Q 2828 2175 2409 1742 
Q 1991 1309 1228 531 
z
" transform="scale(0.015625)"/>
       </defs>
       <use xlink:href="#DejaVuSans-77"/>
       <use xlink:href="#DejaVuSans-6f" transform="translate(81.787109 0)"/>
       <use xlink:href="#DejaVuSans-72" transform="translate(142.96875 0)"/>
       <use xlink:href="#DejaVuSans-6b" transform="translate(184.082031 0)"/>
       <use xlink:href="#DejaVuSans-65" transform="translate(238.367188 0)"/>
       <use xlink:href="#DejaVuSans-72" transform="translate(299.890625 0)"/>
       <use xlink:href="#DejaVuSans-5f" transform="translate(341.003906 0)"/>
       <use xlink:href="#DejaVuSans-32" transform="translate(391.003906 0)"/>
       <use xlink:href="#DejaVuSans-2c" transform="translate(454.626953 0)"/>
       <use xlink:href="#DejaVuSans-20" transform="translate(486.414062 0)"/>
       <use xlink:href="#DejaVuSans-30" transform="translate(518.201172 0)"/>
      </g>
     </g>
    </g>
    <g id="xtick_7">
     <g id="line2d_7">
      <g>
       <use xlink:href="#m1a866f8cf5" x="796.790714" y="495.745941" style="stroke: #000000; stroke-width: 0.8"/>
      </g>
     </g>
     <g id="text_7">
      <!-- runner, 2 -->
      <g transform="translate(782.440866 540.72089) rotate(-45) scale(0.1 -0.1)">
       <use xlink:href="#DejaVuSans-72"/>
       <use xlink:href="#DejaVuSans-75" transform="translate(41.113281 0)"/>
       <use xlink:href="#DejaVuSans-6e" transform="translate(104.492188 0)"/>
       <use xlink:href="#DejaVuSans-6e" transform="translate(167.871094 0)"/>
       <use xlink:href="#DejaVuSans-65" transform="translate(231.25 0)"/>
       <use xlink:href="#DejaVuSans-72" transform="translate(292.773438 0)"/>
       <use xlink:href="#DejaVuSans-2c" transform="translate(333.886719 0)"/>
       <use xlink:href="#DejaVuSans-20" transform="translate(365.673828 0)"/>
       <use xlink:href="#DejaVuSans-32" transform="translate(397.460938 0)"/>
      </g>
     </g>
    </g>
    <g id="text_8">
     <!-- Group (Reactor, Destination) -->
     <g transform="translate(386.542031 562.524867) scale(0.1 -0.1)">
      <defs>
       <path id="DejaVuSans-47" d="M 3809 666 
L 3809 1919 
L 2778 1919 
L 2778 2438 
L 4434 2438 
L 4434 434 
Q 4069 175 3628 42 
Q 3188 -91 2688 -91 
Q 1594 -91 976 548 
Q 359 1188 359 2328 
Q 359 3472 976 4111 
Q 1594 4750 2688 4750 
Q 3144 4750 3555 4637 
Q 3966 4525 4313 4306 
L 4313 3634 
Q 3963 3931 3569 4081 
Q 3175 4231 2741 4231 
Q 1884 4231 1454 3753 
Q 1025 3275 1025 2328 
Q 1025 1384 1454 906 
Q 1884 428 2741 428 
Q 3075 428 3337 486 
Q 3600 544 3809 666 
z
" transform="scale(0.015625)"/>
       <path id="DejaVuSans-28" d="M 1984 4856 
Q 1566 4138 1362 3434 
Q 1159 2731 1159 2009 
Q 1159 1288 1364 580 
Q 1569 -128 1984 -844 
L 1484 -844 
Q 1016 -109 783 600 
Q 550 1309 550 2009 
Q 550 2706 781 3412 
Q 1013 4119 1484 4856 
L 1984 4856 
z
" transform="scale(0.015625)"/>
       <path id="DejaVuSans-52" d="M 2841 2188 
Q 3044 2119 3236 1894 
Q 3428 1669 3622 1275 
L 4263 0 
L 3584 0 
L 2988 1197 
Q 2756 1666 2539 1819 
Q 2322 1972 1947 1972 
L 1259 1972 
L 1259 0 
L 628 0 
L 628 4666 
L 2053 4666 
Q 2853 4666 3247 4331 
Q 3641 3997 3641 3322 
Q 3641 2881 3436 2590 
Q 3231 2300 2841 2188 
z
M 1259 4147 
L 1259 2491 
L 2053 2491 
Q 2509 2491 2742 2702 
Q 2975 2913 2975 3322 
Q 2975 3731 2742 3939 
Q 2509 4147 2053 4147 
L 1259 4147 
z
" transform="scale(0.015625)"/>
       <path id="DejaVuSans-61" d="M 2194 1759 
Q 1497 1759 1228 1600 
Q 959 1441 959 1056 
Q 959 750 1161 570 
Q 1363 391 1709 391 
Q 2188 391 2477 730 
Q 2766 1069 2766 1631 
L 2766 1759 
L 2194 1759 
z
M 3341 1997 
L 3341 0 
L 2766 0 
L 2766 531 
Q 2569 213 2275 61 
Q 1981 -91 1556 -91 
Q 1019 -91 701 211 
Q 384 513 384 1019 
Q 384 1609 779 1909 
Q 1175 2209 1959 2209 
L 2766 2209 
L 2766 2266 
Q 2766 2663 2505 2880 
Q 2244 3097 1772 3097 
Q 1472 3097 1187 3025 
Q 903 2953 641 2809 
L 641 3341 
Q 956 3463 1253 3523 
Q 1550 3584 1831 3584 
Q 2591 3584 2966 3190 
Q 3341 2797 3341 1997 
z
" transform="scale(0.015625)"/>
       <path id="DejaVuSans-74" d="M 1172 4494 
L 1172 3500 
L 2356 3500 
L 2356 3053 
L 1172 3053 
L 1172 1153 
Q 1172 725 1289 603 
Q 1406 481 1766 481 
L 2356 481 
L 2356 0 
L 1766 0 
Q 1100 0 847 248 
Q 594 497 594 1153 
L 594 3053 
L 172 3053 
L 172 3500 
L 594 3500 
L 594 4494 
L 1172 4494 
z
" transform="scale(0.015625)"/>
       <path id="DejaVuSans-44" d="M 1259 4147 
L 1259 519 
L 2022 519 
Q 2988 519 3436 956 
Q 3884 1394 3884 2338 
Q 3884 3275 3436 3711 
Q 2988 4147 2022 4147 
L 1259 4147 
z
M 628 4666 
L 1925 4666 
Q 3281 4666 3915 4102 
Q 4550 3538 4550 2338 
Q 4550 1131 3912 565 
Q 3275 0 1925 0 
L 628 0 
L 628 4666 
z
" transform="scale(0.015625)"/>
       <path id="DejaVuSans-73" d="M 2834 3397 
L 2834 2853 
Q 2591 2978 2328 3040 
Q 2066 3103 1784 3103 
Q 1356 3103 1142 2972 
Q 928 2841 928 2578 
Q 928 2378 1081 2264 
Q 1234 2150 1697 2047 
L 1894 2003 
Q 2506 1872 2764 1633 
Q 3022 1394 3022 966 
Q 3022 478 2636 193 
Q 2250 -91 1575 -91 
Q 1294 -91 989 -36 
Q 684 19 347 128 
L 347 722 
Q 666 556 975 473 
Q 1284 391 1588 391 
Q 1994 391 2212 530 
Q 2431 669 2431 922 
Q 2431 1156 2273 1281 
Q 2116 1406 1581 1522 
L 1381 1569 
Q 847 1681 609 1914 
Q 372 2147 372 2553 
Q 372 3047 722 3315 
Q 1072 3584 1716 3584 
Q 2034 3584 2315 3537 
Q 2597 3491 2834 3397 
z
" transform="scale(0.015625)"/>
       <path id="DejaVuSans-69" d="M 603 3500 
L 1178 3500 
L 1178 0 
L 603 0 
L 603 3500 
z
M 603 4863 
L 1178 4863 
L 1178 4134 
L 603 4134 
L 603 4863 
z
" transform="scale(0.015625)"/>
       <path id="DejaVuSans-29" d="M 513 4856 
L 1013 4856 
Q 1481 4119 1714 3412 
Q 1947 2706 1947 2009 
Q 1947 1309 1714 600 
Q 1481 -109 1013 -844 
L 513 -844 
Q 928 -128 1133 580 
Q 1338 1288 1338 2009 
Q 1338 2731 1133 3434 
Q 928 4138 513 4856 
z
" transform="scale(0.015625)"/>
      </defs>
      <use xlink:href="#DejaVuSans-47"/>
      <use xlink:href="#DejaVuSans-72" transform="translate(77.490234 0)"/>
      <use xlink:href="#DejaVuSans-6f" transform="translate(116.353516 0)"/>
      <use xlink:href="#DejaVuSans-75" transform="translate(177.535156 0)"/>
      <use xlink:href="#DejaVuSans-70" transform="translate(240.914062 0)"/>
      <use xlink:href="#DejaVuSans-20" transform="translate(304.390625 0)"/>
      <use xlink:href="#DejaVuSans-28" transform="translate(336.177734 0)"/>
      <use xlink:href="#DejaVuSans-52" transform="translate(375.191406 0)"/>
      <use xlink:href="#DejaVuSans-65" transform="translate(440.173828 0)"/>
      <use xlink:href="#DejaVuSans-61" transform="translate(501.697266 0)"/>
      <use xlink:href="#DejaVuSans-63" transform="translate(562.976562 0)"/>
      <use xlink:href="#DejaVuSans-74" transform="translate(617.957031 0)"/>
      <use xlink:href="#DejaVuSans-6f" transform="translate(657.166016 0)"/>
      <use xlink:href="#DejaVuSans-72" transform="translate(718.347656 0)"/>
      <use xlink:href="#DejaVuSans-2c" transform="translate(759.460938 0)"/>
      <use xlink:href="#DejaVuSans-20" transform="translate(791.248047 0)"/>
      <use xlink:href="#DejaVuSans-44" transform="translate(823.035156 0)"/>
      <use xlink:href="#DejaVuSans-65" transform="translate(900.037109 0)"/>
      <use xlink:href="#DejaVuSans-73" transform="translate(961.560547 0)"/>
      <use xlink:href="#DejaVuSans-74" transform="translate(1013.660156 0)"/>
      <use xlink:href="#DejaVuSans-69" transform="translate(1052.869141 0)"/>
      <use xlink:href="#DejaVuSans-6e" transform="translate(1080.652344 0)"/>
      <use xlink:href="#DejaVuSans-61" transform="translate(1144.03125 0)"/>
      <use xlink:href="#DejaVuSans-74" transform="translate(1205.310547 0)"/>
      <use xlink:href="#DejaVuSans-69" transform="translate(1244.519531 0)"/>
      <use xlink:href="#DejaVuSans-6f" transform="translate(1272.302734 0)"/>
      <use xlink:href="#DejaVuSans-6e" transform="translate(1333.484375 0)"/>
      <use xlink:href="#DejaVuSans-29" transform="translate(1396.863281 0)"/>
     </g>
    </g>
   </g>
   <g id="matplotlib.axis_2">
    <g id="ytick_1">
     <g id="line2d_8">
      <defs>
       <path id="m77bf9d6903" d="M 0 0 
L -3.5 0 
" style="stroke: #000000; stroke-width: 0.8"/>
      </defs>
      <g>
       <use xlink:href="#m77bf9d6903" x="63.47" y="480.148753" style="stroke: #000000; stroke-width: 0.8"/>
      </g>
     </g>
     <g id="text_9">
      <!-- 0 -->
      <g transform="translate(50.1075 483.947972) scale(0.1 -0.1)">
       <use xlink:href="#DejaVuSans-30"/>
      </g>
     </g>
    </g>
    <g id="ytick_2">
     <g id="line2d_9">
      <g>
       <use xlink:href="#m77bf9d6903" x="63.47" y="421.404496" style="stroke: #000000; stroke-width: 0.8"/>
      </g>
     </g>
     <g id="text_10">
      <!-- 5000 -->
      <g transform="translate(31.02 425.203714) scale(0.1 -0.1)">
       <defs>
        <path id="DejaVuSans-35" d="M 691 4666 
L 3169 4666 
L 3169 4134 
L 1269 4134 
L 1269 2991 
Q 1406 3038 1543 3061 
Q 1681 3084 1819 3084 
Q 2600 3084 3056 2656 
Q 3513 2228 3513 1497 
Q 3513 744 3044 326 
Q 2575 -91 1722 -91 
Q 1428 -91 1123 -41 
Q 819 9 494 109 
L 494 744 
Q 775 591 1075 516 
Q 1375 441 1709 441 
Q 2250 441 2565 725 
Q 2881 1009 2881 1497 
Q 2881 1984 2565 2268 
Q 2250 2553 1709 2553 
Q 1456 2553 1204 2497 
Q 953 2441 691 2322 
L 691 4666 
z
" transform="scale(0.015625)"/>
       </defs>
       <use xlink:href="#DejaVuSans-35"/>
       <use xlink:href="#DejaVuSans-30" transform="translate(63.623047 0)"/>
       <use xlink:href="#DejaVuSans-30" transform="translate(127.246094 0)"/>
       <use xlink:href="#DejaVuSans-30" transform="translate(190.869141 0)"/>
      </g>
     </g>
    </g>
    <g id="ytick_3">
     <g id="line2d_10">
      <g>
       <use xlink:href="#m77bf9d6903" x="63.47" y="362.660238" style="stroke: #000000; stroke-width: 0.8"/>
      </g>
     </g>
     <g id="text_11">
      <!-- 10000 -->
      <g transform="translate(24.6575 366.459457) scale(0.1 -0.1)">
       <use xlink:href="#DejaVuSans-31"/>
       <use xlink:href="#DejaVuSans-30" transform="translate(63.623047 0)"/>
       <use xlink:href="#DejaVuSans-30" transform="translate(127.246094 0)"/>
       <use xlink:href="#DejaVuSans-30" transform="translate(190.869141 0)"/>
       <use xlink:href="#DejaVuSans-30" transform="translate(254.492188 0)"/>
      </g>
     </g>
    </g>
    <g id="ytick_4">
     <g id="line2d_11">
      <g>
       <use xlink:href="#m77bf9d6903" x="63.47" y="303.91598" style="stroke: #000000; stroke-width: 0.8"/>
      </g>
     </g>
     <g id="text_12">
      <!-- 15000 -->
      <g transform="translate(24.6575 307.715199) scale(0.1 -0.1)">
       <use xlink:href="#DejaVuSans-31"/>
       <use xlink:href="#DejaVuSans-35" transform="translate(63.623047 0)"/>
       <use xlink:href="#DejaVuSans-30" transform="translate(127.246094 0)"/>
       <use xlink:href="#DejaVuSans-30" transform="translate(190.869141 0)"/>
       <use xlink:href="#DejaVuSans-30" transform="translate(254.492188 0)"/>
      </g>
     </g>
    </g>
    <g id="ytick_5">
     <g id="line2d_12">
      <g>
       <use xlink:href="#m77bf9d6903" x="63.47" y="245.171723" style="stroke: #000000; stroke-width: 0.8"/>
      </g>
     </g>
     <g id="text_13">
      <!-- 20000 -->
      <g transform="translate(24.6575 248.970941) scale(0.1 -0.1)">
       <use xlink:href="#DejaVuSans-32"/>
       <use xlink:href="#DejaVuSans-30" transform="translate(63.623047 0)"/>
       <use xlink:href="#DejaVuSans-30" transform="translate(127.246094 0)"/>
       <use xlink:href="#DejaVuSans-30" transform="translate(190.869141 0)"/>
       <use xlink:href="#DejaVuSans-30" transform="translate(254.492188 0)"/>
      </g>
     </g>
    </g>
    <g id="ytick_6">
     <g id="line2d_13">
      <g>
       <use xlink:href="#m77bf9d6903" x="63.47" y="186.427465" style="stroke: #000000; stroke-width: 0.8"/>
      </g>
     </g>
     <g id="text_14">
      <!-- 25000 -->
      <g transform="translate(24.6575 190.226684) scale(0.1 -0.1)">
       <use xlink:href="#DejaVuSans-32"/>
       <use xlink:href="#DejaVuSans-35" transform="translate(63.623047 0)"/>
       <use xlink:href="#DejaVuSans-30" transform="translate(127.246094 0)"/>
       <use xlink:href="#DejaVuSans-30" transform="translate(190.869141 0)"/>
       <use xlink:href="#DejaVuSans-30" transform="translate(254.492188 0)"/>
      </g>
     </g>
    </g>
    <g id="ytick_7">
     <g id="line2d_14">
      <g>
       <use xlink:href="#m77bf9d6903" x="63.47" y="127.683207" style="stroke: #000000; stroke-width: 0.8"/>
      </g>
     </g>
     <g id="text_15">
      <!-- 30000 -->
      <g transform="translate(24.6575 131.482426) scale(0.1 -0.1)">
       <defs>
        <path id="DejaVuSans-33" d="M 2597 2516 
Q 3050 2419 3304 2112 
Q 3559 1806 3559 1356 
Q 3559 666 3084 287 
Q 2609 -91 1734 -91 
Q 1441 -91 1130 -33 
Q 819 25 488 141 
L 488 750 
Q 750 597 1062 519 
Q 1375 441 1716 441 
Q 2309 441 2620 675 
Q 2931 909 2931 1356 
Q 2931 1769 2642 2001 
Q 2353 2234 1838 2234 
L 1294 2234 
L 1294 2753 
L 1863 2753 
Q 2328 2753 2575 2939 
Q 2822 3125 2822 3475 
Q 2822 3834 2567 4026 
Q 2313 4219 1838 4219 
Q 1578 4219 1281 4162 
Q 984 4106 628 3988 
L 628 4550 
Q 988 4650 1302 4700 
Q 1616 4750 1894 4750 
Q 2613 4750 3031 4423 
Q 3450 4097 3450 3541 
Q 3450 3153 3228 2886 
Q 3006 2619 2597 2516 
z
" transform="scale(0.015625)"/>
       </defs>
       <use xlink:href="#DejaVuSans-33"/>
       <use xlink:href="#DejaVuSans-30" transform="translate(63.623047 0)"/>
       <use xlink:href="#DejaVuSans-30" transform="translate(127.246094 0)"/>
       <use xlink:href="#DejaVuSans-30" transform="translate(190.869141 0)"/>
       <use xlink:href="#DejaVuSans-30" transform="translate(254.492188 0)"/>
      </g>
     </g>
    </g>
    <g id="text_16">
     <!-- Execution Time -->
     <g transform="translate(18.577812 331.387701) rotate(-90) scale(0.1 -0.1)">
      <defs>
       <path id="DejaVuSans-45" d="M 628 4666 
L 3578 4666 
L 3578 4134 
L 1259 4134 
L 1259 2753 
L 3481 2753 
L 3481 2222 
L 1259 2222 
L 1259 531 
L 3634 531 
L 3634 0 
L 628 0 
L 628 4666 
z
" transform="scale(0.015625)"/>
       <path id="DejaVuSans-78" d="M 3513 3500 
L 2247 1797 
L 3578 0 
L 2900 0 
L 1881 1375 
L 863 0 
L 184 0 
L 1544 1831 
L 300 3500 
L 978 3500 
L 1906 2253 
L 2834 3500 
L 3513 3500 
z
" transform="scale(0.015625)"/>
       <path id="DejaVuSans-54" d="M -19 4666 
L 3928 4666 
L 3928 4134 
L 2272 4134 
L 2272 0 
L 1638 0 
L 1638 4134 
L -19 4134 
L -19 4666 
z
" transform="scale(0.015625)"/>
       <path id="DejaVuSans-6d" d="M 3328 2828 
Q 3544 3216 3844 3400 
Q 4144 3584 4550 3584 
Q 5097 3584 5394 3201 
Q 5691 2819 5691 2113 
L 5691 0 
L 5113 0 
L 5113 2094 
Q 5113 2597 4934 2840 
Q 4756 3084 4391 3084 
Q 3944 3084 3684 2787 
Q 3425 2491 3425 1978 
L 3425 0 
L 2847 0 
L 2847 2094 
Q 2847 2600 2669 2842 
Q 2491 3084 2119 3084 
Q 1678 3084 1418 2786 
Q 1159 2488 1159 1978 
L 1159 0 
L 581 0 
L 581 3500 
L 1159 3500 
L 1159 2956 
Q 1356 3278 1631 3431 
Q 1906 3584 2284 3584 
Q 2666 3584 2933 3390 
Q 3200 3197 3328 2828 
z
" transform="scale(0.015625)"/>
      </defs>
      <use xlink:href="#DejaVuSans-45"/>
      <use xlink:href="#DejaVuSans-78" transform="translate(63.183594 0)"/>
      <use xlink:href="#DejaVuSans-65" transform="translate(119.238281 0)"/>
      <use xlink:href="#DejaVuSans-63" transform="translate(180.761719 0)"/>
      <use xlink:href="#DejaVuSans-75" transform="translate(235.742188 0)"/>
      <use xlink:href="#DejaVuSans-74" transform="translate(299.121094 0)"/>
      <use xlink:href="#DejaVuSans-69" transform="translate(338.330078 0)"/>
      <use xlink:href="#DejaVuSans-6f" transform="translate(366.113281 0)"/>
      <use xlink:href="#DejaVuSans-6e" transform="translate(427.294922 0)"/>
      <use xlink:href="#DejaVuSans-20" transform="translate(490.673828 0)"/>
      <use xlink:href="#DejaVuSans-54" transform="translate(522.460938 0)"/>
      <use xlink:href="#DejaVuSans-69" transform="translate(580.419922 0)"/>
      <use xlink:href="#DejaVuSans-6d" transform="translate(608.203125 0)"/>
      <use xlink:href="#DejaVuSans-65" transform="translate(705.615234 0)"/>
     </g>
    </g>
   </g>
   <g id="patch_6">
    <path d="M 74.751857 474.485807 
L 104.83681 474.485807 
L 104.83681 474.485807 
L 74.751857 474.485807 
L 74.751857 474.485807 
z
" clip-path="url(#p7fb02d1fb4)" style="fill: #72b6a1; stroke: #595959; stroke-linejoin: miter"/>
   </g>
   <g id="line2d_15">
    <path d="M 89.794333 474.485807 
L 89.794333 474.485807 
" clip-path="url(#p7fb02d1fb4)" style="fill: none; stroke: #595959"/>
   </g>
   <g id="line2d_16">
    <path d="M 89.794333 474.485807 
L 89.794333 474.485807 
" clip-path="url(#p7fb02d1fb4)" style="fill: none; stroke: #595959"/>
   </g>
   <g id="line2d_17">
    <path d="M 82.273095 474.485807 
L 97.315571 474.485807 
" clip-path="url(#p7fb02d1fb4)" style="fill: none; stroke: #595959; stroke-linecap: square"/>
   </g>
   <g id="line2d_18">
    <path d="M 82.273095 474.485807 
L 97.315571 474.485807 
" clip-path="url(#p7fb02d1fb4)" style="fill: none; stroke: #595959; stroke-linecap: square"/>
   </g>
   <g id="line2d_19"/>
   <g id="patch_7">
    <path d="M 187.570429 438.816294 
L 217.655381 438.816294 
L 217.655381 438.816294 
L 187.570429 438.816294 
L 187.570429 438.816294 
z
" clip-path="url(#p7fb02d1fb4)" style="fill: #72b6a1; stroke: #595959; stroke-linejoin: miter"/>
   </g>
   <g id="line2d_20">
    <path d="M 202.612905 438.816294 
L 202.612905 438.816294 
" clip-path="url(#p7fb02d1fb4)" style="fill: none; stroke: #595959"/>
   </g>
   <g id="line2d_21">
    <path d="M 202.612905 438.816294 
L 202.612905 438.816294 
" clip-path="url(#p7fb02d1fb4)" style="fill: none; stroke: #595959"/>
   </g>
   <g id="line2d_22">
    <path d="M 195.091667 438.816294 
L 210.134143 438.816294 
" clip-path="url(#p7fb02d1fb4)" style="fill: none; stroke: #595959; stroke-linecap: square"/>
   </g>
   <g id="line2d_23">
    <path d="M 195.091667 438.816294 
L 210.134143 438.816294 
" clip-path="url(#p7fb02d1fb4)" style="fill: none; stroke: #595959; stroke-linecap: square"/>
   </g>
   <g id="line2d_24"/>
   <g id="patch_8">
    <path d="M 300.389 430.321874 
L 330.473952 430.321874 
L 330.473952 430.321874 
L 300.389 430.321874 
L 300.389 430.321874 
z
" clip-path="url(#p7fb02d1fb4)" style="fill: #72b6a1; stroke: #595959; stroke-linejoin: miter"/>
   </g>
   <g id="line2d_25">
    <path d="M 315.431476 430.321874 
L 315.431476 430.321874 
" clip-path="url(#p7fb02d1fb4)" style="fill: none; stroke: #595959"/>
   </g>
   <g id="line2d_26">
    <path d="M 315.431476 430.321874 
L 315.431476 430.321874 
" clip-path="url(#p7fb02d1fb4)" style="fill: none; stroke: #595959"/>
   </g>
   <g id="line2d_27">
    <path d="M 307.910238 430.321874 
L 322.952714 430.321874 
" clip-path="url(#p7fb02d1fb4)" style="fill: none; stroke: #595959; stroke-linecap: square"/>
   </g>
   <g id="line2d_28">
    <path d="M 307.910238 430.321874 
L 322.952714 430.321874 
" clip-path="url(#p7fb02d1fb4)" style="fill: none; stroke: #595959; stroke-linecap: square"/>
   </g>
   <g id="line2d_29"/>
   <g id="patch_9">
    <path d="M 413.207571 477.31728 
L 443.292524 477.31728 
L 443.292524 477.31728 
L 413.207571 477.31728 
L 413.207571 477.31728 
z
" clip-path="url(#p7fb02d1fb4)" style="fill: #72b6a1; stroke: #595959; stroke-linejoin: miter"/>
   </g>
   <g id="line2d_30">
    <path d="M 428.250048 477.31728 
L 428.250048 477.31728 
" clip-path="url(#p7fb02d1fb4)" style="fill: none; stroke: #595959"/>
   </g>
   <g id="line2d_31">
    <path d="M 428.250048 477.31728 
L 428.250048 477.31728 
" clip-path="url(#p7fb02d1fb4)" style="fill: none; stroke: #595959"/>
   </g>
   <g id="line2d_32">
    <path d="M 420.72881 477.31728 
L 435.771286 477.31728 
" clip-path="url(#p7fb02d1fb4)" style="fill: none; stroke: #595959; stroke-linecap: square"/>
   </g>
   <g id="line2d_33">
    <path d="M 420.72881 477.31728 
L 435.771286 477.31728 
" clip-path="url(#p7fb02d1fb4)" style="fill: none; stroke: #595959; stroke-linecap: square"/>
   </g>
   <g id="line2d_34"/>
   <g id="patch_10">
    <path d="M 526.026143 476.882573 
L 556.111095 476.882573 
L 556.111095 476.882573 
L 526.026143 476.882573 
L 526.026143 476.882573 
z
" clip-path="url(#p7fb02d1fb4)" style="fill: #72b6a1; stroke: #595959; stroke-linejoin: miter"/>
   </g>
   <g id="line2d_35">
    <path d="M 541.068619 476.882573 
L 541.068619 476.882573 
" clip-path="url(#p7fb02d1fb4)" style="fill: none; stroke: #595959"/>
   </g>
   <g id="line2d_36">
    <path d="M 541.068619 476.882573 
L 541.068619 476.882573 
" clip-path="url(#p7fb02d1fb4)" style="fill: none; stroke: #595959"/>
   </g>
   <g id="line2d_37">
    <path d="M 533.547381 476.882573 
L 548.589857 476.882573 
" clip-path="url(#p7fb02d1fb4)" style="fill: none; stroke: #595959; stroke-linecap: square"/>
   </g>
   <g id="line2d_38">
    <path d="M 533.547381 476.882573 
L 548.589857 476.882573 
" clip-path="url(#p7fb02d1fb4)" style="fill: none; stroke: #595959; stroke-linecap: square"/>
   </g>
   <g id="line2d_39"/>
   <g id="patch_11">
    <path d="M 638.844714 452.303975 
L 668.929667 452.303975 
L 668.929667 452.303975 
L 638.844714 452.303975 
L 638.844714 452.303975 
z
" clip-path="url(#p7fb02d1fb4)" style="fill: #72b6a1; stroke: #595959; stroke-linejoin: miter"/>
   </g>
   <g id="line2d_40">
    <path d="M 653.88719 452.303975 
L 653.88719 452.303975 
" clip-path="url(#p7fb02d1fb4)" style="fill: none; stroke: #595959"/>
   </g>
   <g id="line2d_41">
    <path d="M 653.88719 452.303975 
L 653.88719 452.303975 
" clip-path="url(#p7fb02d1fb4)" style="fill: none; stroke: #595959"/>
   </g>
   <g id="line2d_42">
    <path d="M 646.365952 452.303975 
L 661.408429 452.303975 
" clip-path="url(#p7fb02d1fb4)" style="fill: none; stroke: #595959; stroke-linecap: square"/>
   </g>
   <g id="line2d_43">
    <path d="M 646.365952 452.303975 
L 661.408429 452.303975 
" clip-path="url(#p7fb02d1fb4)" style="fill: none; stroke: #595959; stroke-linecap: square"/>
   </g>
   <g id="line2d_44"/>
   <g id="patch_12">
    <path d="M 104.83681 472.958456 
L 134.921762 472.958456 
L 134.921762 472.958456 
L 104.83681 472.958456 
L 104.83681 472.958456 
z
" clip-path="url(#p7fb02d1fb4)" style="fill: #e99675; stroke: #595959; stroke-linejoin: miter"/>
   </g>
   <g id="line2d_45">
    <path d="M 119.879286 472.958456 
L 119.879286 472.958456 
" clip-path="url(#p7fb02d1fb4)" style="fill: none; stroke: #595959"/>
   </g>
   <g id="line2d_46">
    <path d="M 119.879286 472.958456 
L 119.879286 472.958456 
" clip-path="url(#p7fb02d1fb4)" style="fill: none; stroke: #595959"/>
   </g>
   <g id="line2d_47">
    <path d="M 112.358048 472.958456 
L 127.400524 472.958456 
" clip-path="url(#p7fb02d1fb4)" style="fill: none; stroke: #595959; stroke-linecap: square"/>
   </g>
   <g id="line2d_48">
    <path d="M 112.358048 472.958456 
L 127.400524 472.958456 
" clip-path="url(#p7fb02d1fb4)" style="fill: none; stroke: #595959; stroke-linecap: square"/>
   </g>
   <g id="line2d_49"/>
   <g id="patch_13">
    <path d="M 217.655381 430.756581 
L 247.740333 430.756581 
L 247.740333 430.756581 
L 217.655381 430.756581 
L 217.655381 430.756581 
z
" clip-path="url(#p7fb02d1fb4)" style="fill: #e99675; stroke: #595959; stroke-linejoin: miter"/>
   </g>
   <g id="line2d_50">
    <path d="M 232.697857 430.756581 
L 232.697857 430.756581 
" clip-path="url(#p7fb02d1fb4)" style="fill: none; stroke: #595959"/>
   </g>
   <g id="line2d_51">
    <path d="M 232.697857 430.756581 
L 232.697857 430.756581 
" clip-path="url(#p7fb02d1fb4)" style="fill: none; stroke: #595959"/>
   </g>
   <g id="line2d_52">
    <path d="M 225.176619 430.756581 
L 240.219095 430.756581 
" clip-path="url(#p7fb02d1fb4)" style="fill: none; stroke: #595959; stroke-linecap: square"/>
   </g>
   <g id="line2d_53">
    <path d="M 225.176619 430.756581 
L 240.219095 430.756581 
" clip-path="url(#p7fb02d1fb4)" style="fill: none; stroke: #595959; stroke-linecap: square"/>
   </g>
   <g id="line2d_54"/>
   <g id="patch_14">
    <path d="M 330.473952 433.153347 
L 360.558905 433.153347 
L 360.558905 433.153347 
L 330.473952 433.153347 
L 330.473952 433.153347 
z
" clip-path="url(#p7fb02d1fb4)" style="fill: #e99675; stroke: #595959; stroke-linejoin: miter"/>
   </g>
   <g id="line2d_55">
    <path d="M 345.516429 433.153347 
L 345.516429 433.153347 
" clip-path="url(#p7fb02d1fb4)" style="fill: none; stroke: #595959"/>
   </g>
   <g id="line2d_56">
    <path d="M 345.516429 433.153347 
L 345.516429 433.153347 
" clip-path="url(#p7fb02d1fb4)" style="fill: none; stroke: #595959"/>
   </g>
   <g id="line2d_57">
    <path d="M 337.99519 433.153347 
L 353.037667 433.153347 
" clip-path="url(#p7fb02d1fb4)" style="fill: none; stroke: #595959; stroke-linecap: square"/>
   </g>
   <g id="line2d_58">
    <path d="M 337.99519 433.153347 
L 353.037667 433.153347 
" clip-path="url(#p7fb02d1fb4)" style="fill: none; stroke: #595959; stroke-linecap: square"/>
   </g>
   <g id="line2d_59"/>
   <g id="patch_15">
    <path d="M 443.292524 476.671093 
L 473.377476 476.671093 
L 473.377476 476.671093 
L 443.292524 476.671093 
L 443.292524 476.671093 
z
" clip-path="url(#p7fb02d1fb4)" style="fill: #e99675; stroke: #595959; stroke-linejoin: miter"/>
   </g>
   <g id="line2d_60">
    <path d="M 458.335 476.671093 
L 458.335 476.671093 
" clip-path="url(#p7fb02d1fb4)" style="fill: none; stroke: #595959"/>
   </g>
   <g id="line2d_61">
    <path d="M 458.335 476.671093 
L 458.335 476.671093 
" clip-path="url(#p7fb02d1fb4)" style="fill: none; stroke: #595959"/>
   </g>
   <g id="line2d_62">
    <path d="M 450.813762 476.671093 
L 465.856238 476.671093 
" clip-path="url(#p7fb02d1fb4)" style="fill: none; stroke: #595959; stroke-linecap: square"/>
   </g>
   <g id="line2d_63">
    <path d="M 450.813762 476.671093 
L 465.856238 476.671093 
" clip-path="url(#p7fb02d1fb4)" style="fill: none; stroke: #595959; stroke-linecap: square"/>
   </g>
   <g id="line2d_64"/>
   <g id="patch_16">
    <path d="M 556.111095 476.659344 
L 586.196048 476.659344 
L 586.196048 476.659344 
L 556.111095 476.659344 
L 556.111095 476.659344 
z
" clip-path="url(#p7fb02d1fb4)" style="fill: #e99675; stroke: #595959; stroke-linejoin: miter"/>
   </g>
   <g id="line2d_65">
    <path d="M 571.153571 476.659344 
L 571.153571 476.659344 
" clip-path="url(#p7fb02d1fb4)" style="fill: none; stroke: #595959"/>
   </g>
   <g id="line2d_66">
    <path d="M 571.153571 476.659344 
L 571.153571 476.659344 
" clip-path="url(#p7fb02d1fb4)" style="fill: none; stroke: #595959"/>
   </g>
   <g id="line2d_67">
    <path d="M 563.632333 476.659344 
L 578.67481 476.659344 
" clip-path="url(#p7fb02d1fb4)" style="fill: none; stroke: #595959; stroke-linecap: square"/>
   </g>
   <g id="line2d_68">
    <path d="M 563.632333 476.659344 
L 578.67481 476.659344 
" clip-path="url(#p7fb02d1fb4)" style="fill: none; stroke: #595959; stroke-linecap: square"/>
   </g>
   <g id="line2d_69"/>
   <g id="patch_17">
    <path d="M 668.929667 454.031056 
L 699.014619 454.031056 
L 699.014619 454.031056 
L 668.929667 454.031056 
L 668.929667 454.031056 
z
" clip-path="url(#p7fb02d1fb4)" style="fill: #e99675; stroke: #595959; stroke-linejoin: miter"/>
   </g>
   <g id="line2d_70">
    <path d="M 683.972143 454.031056 
L 683.972143 454.031056 
" clip-path="url(#p7fb02d1fb4)" style="fill: none; stroke: #595959"/>
   </g>
   <g id="line2d_71">
    <path d="M 683.972143 454.031056 
L 683.972143 454.031056 
" clip-path="url(#p7fb02d1fb4)" style="fill: none; stroke: #595959"/>
   </g>
   <g id="line2d_72">
    <path d="M 676.450905 454.031056 
L 691.493381 454.031056 
" clip-path="url(#p7fb02d1fb4)" style="fill: none; stroke: #595959; stroke-linecap: square"/>
   </g>
   <g id="line2d_73">
    <path d="M 676.450905 454.031056 
L 691.493381 454.031056 
" clip-path="url(#p7fb02d1fb4)" style="fill: none; stroke: #595959; stroke-linecap: square"/>
   </g>
   <g id="line2d_74"/>
   <g id="patch_18">
    <path d="M 781.748238 108.744058 
L 811.83319 108.744058 
L 811.83319 108.744058 
L 781.748238 108.744058 
L 781.748238 108.744058 
z
" clip-path="url(#p7fb02d1fb4)" style="fill: #e99675; stroke: #595959; stroke-linejoin: miter"/>
   </g>
   <g id="line2d_75">
    <path d="M 796.790714 108.744058 
L 796.790714 108.744058 
" clip-path="url(#p7fb02d1fb4)" style="fill: none; stroke: #595959"/>
   </g>
   <g id="line2d_76">
    <path d="M 796.790714 108.744058 
L 796.790714 108.744058 
" clip-path="url(#p7fb02d1fb4)" style="fill: none; stroke: #595959"/>
   </g>
   <g id="line2d_77">
    <path d="M 789.269476 108.744058 
L 804.311952 108.744058 
" clip-path="url(#p7fb02d1fb4)" style="fill: none; stroke: #595959; stroke-linecap: square"/>
   </g>
   <g id="line2d_78">
    <path d="M 789.269476 108.744058 
L 804.311952 108.744058 
" clip-path="url(#p7fb02d1fb4)" style="fill: none; stroke: #595959; stroke-linecap: square"/>
   </g>
   <g id="line2d_79"/>
   <g id="patch_19">
    <path d="M 134.921762 472.746977 
L 165.006714 472.746977 
L 165.006714 472.746977 
L 134.921762 472.746977 
L 134.921762 472.746977 
z
" clip-path="url(#p7fb02d1fb4)" style="fill: #95a3c3; stroke: #595959; stroke-linejoin: miter"/>
   </g>
   <g id="line2d_80">
    <path d="M 149.964238 472.746977 
L 149.964238 472.746977 
" clip-path="url(#p7fb02d1fb4)" style="fill: none; stroke: #595959"/>
   </g>
   <g id="line2d_81">
    <path d="M 149.964238 472.746977 
L 149.964238 472.746977 
" clip-path="url(#p7fb02d1fb4)" style="fill: none; stroke: #595959"/>
   </g>
   <g id="line2d_82">
    <path d="M 142.443 472.746977 
L 157.485476 472.746977 
" clip-path="url(#p7fb02d1fb4)" style="fill: none; stroke: #595959; stroke-linecap: square"/>
   </g>
   <g id="line2d_83">
    <path d="M 142.443 472.746977 
L 157.485476 472.746977 
" clip-path="url(#p7fb02d1fb4)" style="fill: none; stroke: #595959; stroke-linecap: square"/>
   </g>
   <g id="line2d_84"/>
   <g id="patch_20">
    <path d="M 247.740333 433.799534 
L 277.825286 433.799534 
L 277.825286 433.799534 
L 247.740333 433.799534 
L 247.740333 433.799534 
z
" clip-path="url(#p7fb02d1fb4)" style="fill: #95a3c3; stroke: #595959; stroke-linejoin: miter"/>
   </g>
   <g id="line2d_85">
    <path d="M 262.78281 433.799534 
L 262.78281 433.799534 
" clip-path="url(#p7fb02d1fb4)" style="fill: none; stroke: #595959"/>
   </g>
   <g id="line2d_86">
    <path d="M 262.78281 433.799534 
L 262.78281 433.799534 
" clip-path="url(#p7fb02d1fb4)" style="fill: none; stroke: #595959"/>
   </g>
   <g id="line2d_87">
    <path d="M 255.261571 433.799534 
L 270.304048 433.799534 
" clip-path="url(#p7fb02d1fb4)" style="fill: none; stroke: #595959; stroke-linecap: square"/>
   </g>
   <g id="line2d_88">
    <path d="M 255.261571 433.799534 
L 270.304048 433.799534 
" clip-path="url(#p7fb02d1fb4)" style="fill: none; stroke: #595959; stroke-linecap: square"/>
   </g>
   <g id="line2d_89"/>
   <g id="patch_21">
    <path d="M 360.558905 430.97981 
L 390.643857 430.97981 
L 390.643857 430.97981 
L 360.558905 430.97981 
L 360.558905 430.97981 
z
" clip-path="url(#p7fb02d1fb4)" style="fill: #95a3c3; stroke: #595959; stroke-linejoin: miter"/>
   </g>
   <g id="line2d_90">
    <path d="M 375.601381 430.97981 
L 375.601381 430.97981 
" clip-path="url(#p7fb02d1fb4)" style="fill: none; stroke: #595959"/>
   </g>
   <g id="line2d_91">
    <path d="M 375.601381 430.97981 
L 375.601381 430.97981 
" clip-path="url(#p7fb02d1fb4)" style="fill: none; stroke: #595959"/>
   </g>
   <g id="line2d_92">
    <path d="M 368.080143 430.97981 
L 383.122619 430.97981 
" clip-path="url(#p7fb02d1fb4)" style="fill: none; stroke: #595959; stroke-linecap: square"/>
   </g>
   <g id="line2d_93">
    <path d="M 368.080143 430.97981 
L 383.122619 430.97981 
" clip-path="url(#p7fb02d1fb4)" style="fill: none; stroke: #595959; stroke-linecap: square"/>
   </g>
   <g id="line2d_94"/>
   <g id="patch_22">
    <path d="M 473.377476 477.094052 
L 503.462429 477.094052 
L 503.462429 477.094052 
L 473.377476 477.094052 
L 473.377476 477.094052 
z
" clip-path="url(#p7fb02d1fb4)" style="fill: #95a3c3; stroke: #595959; stroke-linejoin: miter"/>
   </g>
   <g id="line2d_95">
    <path d="M 488.419952 477.094052 
L 488.419952 477.094052 
" clip-path="url(#p7fb02d1fb4)" style="fill: none; stroke: #595959"/>
   </g>
   <g id="line2d_96">
    <path d="M 488.419952 477.094052 
L 488.419952 477.094052 
" clip-path="url(#p7fb02d1fb4)" style="fill: none; stroke: #595959"/>
   </g>
   <g id="line2d_97">
    <path d="M 480.898714 477.094052 
L 495.94119 477.094052 
" clip-path="url(#p7fb02d1fb4)" style="fill: none; stroke: #595959; stroke-linecap: square"/>
   </g>
   <g id="line2d_98">
    <path d="M 480.898714 477.094052 
L 495.94119 477.094052 
" clip-path="url(#p7fb02d1fb4)" style="fill: none; stroke: #595959; stroke-linecap: square"/>
   </g>
   <g id="line2d_99"/>
   <g id="patch_23">
    <path d="M 586.196048 454.031056 
L 616.281 454.031056 
L 616.281 454.031056 
L 586.196048 454.031056 
L 586.196048 454.031056 
z
" clip-path="url(#p7fb02d1fb4)" style="fill: #95a3c3; stroke: #595959; stroke-linejoin: miter"/>
   </g>
   <g id="line2d_100">
    <path d="M 601.238524 454.031056 
L 601.238524 454.031056 
" clip-path="url(#p7fb02d1fb4)" style="fill: none; stroke: #595959"/>
   </g>
   <g id="line2d_101">
    <path d="M 601.238524 454.031056 
L 601.238524 454.031056 
" clip-path="url(#p7fb02d1fb4)" style="fill: none; stroke: #595959"/>
   </g>
   <g id="line2d_102">
    <path d="M 593.717286 454.031056 
L 608.759762 454.031056 
" clip-path="url(#p7fb02d1fb4)" style="fill: none; stroke: #595959; stroke-linecap: square"/>
   </g>
   <g id="line2d_103">
    <path d="M 593.717286 454.031056 
L 608.759762 454.031056 
" clip-path="url(#p7fb02d1fb4)" style="fill: none; stroke: #595959; stroke-linecap: square"/>
   </g>
   <g id="line2d_104"/>
   <g id="patch_24">
    <path d="M 699.014619 477.31728 
L 729.099571 477.31728 
L 729.099571 477.31728 
L 699.014619 477.31728 
L 699.014619 477.31728 
z
" clip-path="url(#p7fb02d1fb4)" style="fill: #95a3c3; stroke: #595959; stroke-linejoin: miter"/>
   </g>
   <g id="line2d_105">
    <path d="M 714.057095 477.31728 
L 714.057095 477.31728 
" clip-path="url(#p7fb02d1fb4)" style="fill: none; stroke: #595959"/>
   </g>
   <g id="line2d_106">
    <path d="M 714.057095 477.31728 
L 714.057095 477.31728 
" clip-path="url(#p7fb02d1fb4)" style="fill: none; stroke: #595959"/>
   </g>
   <g id="line2d_107">
    <path d="M 706.535857 477.31728 
L 721.578333 477.31728 
" clip-path="url(#p7fb02d1fb4)" style="fill: none; stroke: #595959; stroke-linecap: square"/>
   </g>
   <g id="line2d_108">
    <path d="M 706.535857 477.31728 
L 721.578333 477.31728 
" clip-path="url(#p7fb02d1fb4)" style="fill: none; stroke: #595959; stroke-linecap: square"/>
   </g>
   <g id="line2d_109"/>
   <g id="patch_25">
    <path d="M 811.83319 112.456696 
L 841.918143 112.456696 
L 841.918143 112.456696 
L 811.83319 112.456696 
L 811.83319 112.456696 
z
" clip-path="url(#p7fb02d1fb4)" style="fill: #95a3c3; stroke: #595959; stroke-linejoin: miter"/>
   </g>
   <g id="line2d_110">
    <path d="M 826.875667 112.456696 
L 826.875667 112.456696 
" clip-path="url(#p7fb02d1fb4)" style="fill: none; stroke: #595959"/>
   </g>
   <g id="line2d_111">
    <path d="M 826.875667 112.456696 
L 826.875667 112.456696 
" clip-path="url(#p7fb02d1fb4)" style="fill: none; stroke: #595959"/>
   </g>
   <g id="line2d_112">
    <path d="M 819.354429 112.456696 
L 834.396905 112.456696 
" clip-path="url(#p7fb02d1fb4)" style="fill: none; stroke: #595959; stroke-linecap: square"/>
   </g>
   <g id="line2d_113">
    <path d="M 819.354429 112.456696 
L 834.396905 112.456696 
" clip-path="url(#p7fb02d1fb4)" style="fill: none; stroke: #595959; stroke-linecap: square"/>
   </g>
   <g id="line2d_114"/>
   <g id="line2d_115">
    <path d="M 74.751857 474.485807 
L 104.83681 474.485807 
" clip-path="url(#p7fb02d1fb4)" style="fill: none; stroke: #595959"/>
   </g>
   <g id="line2d_116">
    <path d="M 187.570429 438.816294 
L 217.655381 438.816294 
" clip-path="url(#p7fb02d1fb4)" style="fill: none; stroke: #595959"/>
   </g>
   <g id="line2d_117">
    <path d="M 300.389 430.321874 
L 330.473952 430.321874 
" clip-path="url(#p7fb02d1fb4)" style="fill: none; stroke: #595959"/>
   </g>
   <g id="line2d_118">
    <path d="M 413.207571 477.31728 
L 443.292524 477.31728 
" clip-path="url(#p7fb02d1fb4)" style="fill: none; stroke: #595959"/>
   </g>
   <g id="line2d_119">
    <path d="M 526.026143 476.882573 
L 556.111095 476.882573 
" clip-path="url(#p7fb02d1fb4)" style="fill: none; stroke: #595959"/>
   </g>
   <g id="line2d_120">
    <path d="M 638.844714 452.303975 
L 668.929667 452.303975 
" clip-path="url(#p7fb02d1fb4)" style="fill: none; stroke: #595959"/>
   </g>
   <g id="line2d_121">
    <path d="M 104.83681 472.958456 
L 134.921762 472.958456 
" clip-path="url(#p7fb02d1fb4)" style="fill: none; stroke: #595959"/>
   </g>
   <g id="line2d_122">
    <path d="M 217.655381 430.756581 
L 247.740333 430.756581 
" clip-path="url(#p7fb02d1fb4)" style="fill: none; stroke: #595959"/>
   </g>
   <g id="line2d_123">
    <path d="M 330.473952 433.153347 
L 360.558905 433.153347 
" clip-path="url(#p7fb02d1fb4)" style="fill: none; stroke: #595959"/>
   </g>
   <g id="line2d_124">
    <path d="M 443.292524 476.671093 
L 473.377476 476.671093 
" clip-path="url(#p7fb02d1fb4)" style="fill: none; stroke: #595959"/>
   </g>
   <g id="line2d_125">
    <path d="M 556.111095 476.659344 
L 586.196048 476.659344 
" clip-path="url(#p7fb02d1fb4)" style="fill: none; stroke: #595959"/>
   </g>
   <g id="line2d_126">
    <path d="M 668.929667 454.031056 
L 699.014619 454.031056 
" clip-path="url(#p7fb02d1fb4)" style="fill: none; stroke: #595959"/>
   </g>
   <g id="line2d_127">
    <path d="M 781.748238 108.744058 
L 811.83319 108.744058 
" clip-path="url(#p7fb02d1fb4)" style="fill: none; stroke: #595959"/>
   </g>
   <g id="line2d_128">
    <path d="M 134.921762 472.746977 
L 165.006714 472.746977 
" clip-path="url(#p7fb02d1fb4)" style="fill: none; stroke: #595959"/>
   </g>
   <g id="line2d_129">
    <path d="M 247.740333 433.799534 
L 277.825286 433.799534 
" clip-path="url(#p7fb02d1fb4)" style="fill: none; stroke: #595959"/>
   </g>
   <g id="line2d_130">
    <path d="M 360.558905 430.97981 
L 390.643857 430.97981 
" clip-path="url(#p7fb02d1fb4)" style="fill: none; stroke: #595959"/>
   </g>
   <g id="line2d_131">
    <path d="M 473.377476 477.094052 
L 503.462429 477.094052 
" clip-path="url(#p7fb02d1fb4)" style="fill: none; stroke: #595959"/>
   </g>
   <g id="line2d_132">
    <path d="M 586.196048 454.031056 
L 616.281 454.031056 
" clip-path="url(#p7fb02d1fb4)" style="fill: none; stroke: #595959"/>
   </g>
   <g id="line2d_133">
    <path d="M 699.014619 477.31728 
L 729.099571 477.31728 
" clip-path="url(#p7fb02d1fb4)" style="fill: none; stroke: #595959"/>
   </g>
   <g id="line2d_134">
    <path d="M 811.83319 112.456696 
L 841.918143 112.456696 
" clip-path="url(#p7fb02d1fb4)" style="fill: none; stroke: #595959"/>
   </g>
   <g id="patch_26">
    <path d="M 63.47 495.745941 
L 63.47 90.315397 
" style="fill: none; stroke: #000000; stroke-width: 0.8; stroke-linejoin: miter; stroke-linecap: square"/>
   </g>
   <g id="patch_27">
    <path d="M 853.2 495.745941 
L 853.2 90.315397 
" style="fill: none; stroke: #000000; stroke-width: 0.8; stroke-linejoin: miter; stroke-linecap: square"/>
   </g>
   <g id="patch_28">
    <path d="M 63.47 495.745941 
L 853.2 495.745941 
" style="fill: none; stroke: #000000; stroke-width: 0.8; stroke-linejoin: miter; stroke-linecap: square"/>
   </g>
   <g id="patch_29">
    <path d="M 63.47 90.315397 
L 853.2 90.315397 
" style="fill: none; stroke: #000000; stroke-width: 0.8; stroke-linejoin: miter; stroke-linecap: square"/>
   </g>
   <g id="text_17">
    <!-- Mean: 574.67 -->
    <g transform="translate(102.156163 82.781452) rotate(-70) scale(0.09 -0.09)">
     <defs>
      <path id="DejaVuSans-4d" d="M 628 4666 
L 1569 4666 
L 2759 1491 
L 3956 4666 
L 4897 4666 
L 4897 0 
L 4281 0 
L 4281 4097 
L 3078 897 
L 2444 897 
L 1241 4097 
L 1241 0 
L 628 0 
L 628 4666 
z
" transform="scale(0.015625)"/>
      <path id="DejaVuSans-3a" d="M 750 794 
L 1409 794 
L 1409 0 
L 750 0 
L 750 794 
z
M 750 3309 
L 1409 3309 
L 1409 2516 
L 750 2516 
L 750 3309 
z
" transform="scale(0.015625)"/>
      <path id="DejaVuSans-37" d="M 525 4666 
L 3525 4666 
L 3525 4397 
L 1831 0 
L 1172 0 
L 2766 4134 
L 525 4134 
L 525 4666 
z
" transform="scale(0.015625)"/>
      <path id="DejaVuSans-34" d="M 2419 4116 
L 825 1625 
L 2419 1625 
L 2419 4116 
z
M 2253 4666 
L 3047 4666 
L 3047 1625 
L 3713 1625 
L 3713 1100 
L 3047 1100 
L 3047 0 
L 2419 0 
L 2419 1100 
L 313 1100 
L 313 1709 
L 2253 4666 
z
" transform="scale(0.015625)"/>
      <path id="DejaVuSans-2e" d="M 684 794 
L 1344 794 
L 1344 0 
L 684 0 
L 684 794 
z
" transform="scale(0.015625)"/>
      <path id="DejaVuSans-36" d="M 2113 2584 
Q 1688 2584 1439 2293 
Q 1191 2003 1191 1497 
Q 1191 994 1439 701 
Q 1688 409 2113 409 
Q 2538 409 2786 701 
Q 3034 994 3034 1497 
Q 3034 2003 2786 2293 
Q 2538 2584 2113 2584 
z
M 3366 4563 
L 3366 3988 
Q 3128 4100 2886 4159 
Q 2644 4219 2406 4219 
Q 1781 4219 1451 3797 
Q 1122 3375 1075 2522 
Q 1259 2794 1537 2939 
Q 1816 3084 2150 3084 
Q 2853 3084 3261 2657 
Q 3669 2231 3669 1497 
Q 3669 778 3244 343 
Q 2819 -91 2113 -91 
Q 1303 -91 875 529 
Q 447 1150 447 2328 
Q 447 3434 972 4092 
Q 1497 4750 2381 4750 
Q 2619 4750 2861 4703 
Q 3103 4656 3366 4563 
z
" transform="scale(0.015625)"/>
     </defs>
     <use xlink:href="#DejaVuSans-4d"/>
     <use xlink:href="#DejaVuSans-65" transform="translate(86.279297 0)"/>
     <use xlink:href="#DejaVuSans-61" transform="translate(147.802734 0)"/>
     <use xlink:href="#DejaVuSans-6e" transform="translate(209.082031 0)"/>
     <use xlink:href="#DejaVuSans-3a" transform="translate(272.460938 0)"/>
     <use xlink:href="#DejaVuSans-20" transform="translate(306.152344 0)"/>
     <use xlink:href="#DejaVuSans-35" transform="translate(337.939453 0)"/>
     <use xlink:href="#DejaVuSans-37" transform="translate(401.5625 0)"/>
     <use xlink:href="#DejaVuSans-34" transform="translate(465.185547 0)"/>
     <use xlink:href="#DejaVuSans-2e" transform="translate(528.808594 0)"/>
     <use xlink:href="#DejaVuSans-36" transform="translate(560.595703 0)"/>
     <use xlink:href="#DejaVuSans-37" transform="translate(624.21875 0)"/>
    </g>
    <!-- STD: 80.75 -->
    <g transform="translate(113.696973 80.539531) rotate(-70) scale(0.09 -0.09)">
     <defs>
      <path id="DejaVuSans-53" d="M 3425 4513 
L 3425 3897 
Q 3066 4069 2747 4153 
Q 2428 4238 2131 4238 
Q 1616 4238 1336 4038 
Q 1056 3838 1056 3469 
Q 1056 3159 1242 3001 
Q 1428 2844 1947 2747 
L 2328 2669 
Q 3034 2534 3370 2195 
Q 3706 1856 3706 1288 
Q 3706 609 3251 259 
Q 2797 -91 1919 -91 
Q 1588 -91 1214 -16 
Q 841 59 441 206 
L 441 856 
Q 825 641 1194 531 
Q 1563 422 1919 422 
Q 2459 422 2753 634 
Q 3047 847 3047 1241 
Q 3047 1584 2836 1778 
Q 2625 1972 2144 2069 
L 1759 2144 
Q 1053 2284 737 2584 
Q 422 2884 422 3419 
Q 422 4038 858 4394 
Q 1294 4750 2059 4750 
Q 2388 4750 2728 4690 
Q 3069 4631 3425 4513 
z
" transform="scale(0.015625)"/>
      <path id="DejaVuSans-38" d="M 2034 2216 
Q 1584 2216 1326 1975 
Q 1069 1734 1069 1313 
Q 1069 891 1326 650 
Q 1584 409 2034 409 
Q 2484 409 2743 651 
Q 3003 894 3003 1313 
Q 3003 1734 2745 1975 
Q 2488 2216 2034 2216 
z
M 1403 2484 
Q 997 2584 770 2862 
Q 544 3141 544 3541 
Q 544 4100 942 4425 
Q 1341 4750 2034 4750 
Q 2731 4750 3128 4425 
Q 3525 4100 3525 3541 
Q 3525 3141 3298 2862 
Q 3072 2584 2669 2484 
Q 3125 2378 3379 2068 
Q 3634 1759 3634 1313 
Q 3634 634 3220 271 
Q 2806 -91 2034 -91 
Q 1263 -91 848 271 
Q 434 634 434 1313 
Q 434 1759 690 2068 
Q 947 2378 1403 2484 
z
M 1172 3481 
Q 1172 3119 1398 2916 
Q 1625 2713 2034 2713 
Q 2441 2713 2670 2916 
Q 2900 3119 2900 3481 
Q 2900 3844 2670 4047 
Q 2441 4250 2034 4250 
Q 1625 4250 1398 4047 
Q 1172 3844 1172 3481 
z
" transform="scale(0.015625)"/>
     </defs>
     <use xlink:href="#DejaVuSans-53"/>
     <use xlink:href="#DejaVuSans-54" transform="translate(63.476562 0)"/>
     <use xlink:href="#DejaVuSans-44" transform="translate(124.560547 0)"/>
     <use xlink:href="#DejaVuSans-3a" transform="translate(201.5625 0)"/>
     <use xlink:href="#DejaVuSans-20" transform="translate(235.253906 0)"/>
     <use xlink:href="#DejaVuSans-38" transform="translate(267.041016 0)"/>
     <use xlink:href="#DejaVuSans-30" transform="translate(330.664062 0)"/>
     <use xlink:href="#DejaVuSans-2e" transform="translate(394.287109 0)"/>
     <use xlink:href="#DejaVuSans-37" transform="translate(426.074219 0)"/>
     <use xlink:href="#DejaVuSans-35" transform="translate(489.697266 0)"/>
    </g>
    <!-- Max: 630 -->
    <g transform="translate(124.555773 80.171416) rotate(-70) scale(0.09 -0.09)">
     <use xlink:href="#DejaVuSans-4d"/>
     <use xlink:href="#DejaVuSans-61" transform="translate(86.279297 0)"/>
     <use xlink:href="#DejaVuSans-78" transform="translate(147.558594 0)"/>
     <use xlink:href="#DejaVuSans-3a" transform="translate(206.738281 0)"/>
     <use xlink:href="#DejaVuSans-20" transform="translate(240.429688 0)"/>
     <use xlink:href="#DejaVuSans-36" transform="translate(272.216797 0)"/>
     <use xlink:href="#DejaVuSans-33" transform="translate(335.839844 0)"/>
     <use xlink:href="#DejaVuSans-30" transform="translate(399.462891 0)"/>
    </g>
   </g>
   <g id="text_18">
    <!-- Mean: 3889.00 -->
    <g transform="translate(213.995488 82.781452) rotate(-70) scale(0.09 -0.09)">
     <defs>
      <path id="DejaVuSans-39" d="M 703 97 
L 703 672 
Q 941 559 1184 500 
Q 1428 441 1663 441 
Q 2288 441 2617 861 
Q 2947 1281 2994 2138 
Q 2813 1869 2534 1725 
Q 2256 1581 1919 1581 
Q 1219 1581 811 2004 
Q 403 2428 403 3163 
Q 403 3881 828 4315 
Q 1253 4750 1959 4750 
Q 2769 4750 3195 4129 
Q 3622 3509 3622 2328 
Q 3622 1225 3098 567 
Q 2575 -91 1691 -91 
Q 1453 -91 1209 -44 
Q 966 3 703 97 
z
M 1959 2075 
Q 2384 2075 2632 2365 
Q 2881 2656 2881 3163 
Q 2881 3666 2632 3958 
Q 2384 4250 1959 4250 
Q 1534 4250 1286 3958 
Q 1038 3666 1038 3163 
Q 1038 2656 1286 2365 
Q 1534 2075 1959 2075 
z
" transform="scale(0.015625)"/>
     </defs>
     <use xlink:href="#DejaVuSans-4d"/>
     <use xlink:href="#DejaVuSans-65" transform="translate(86.279297 0)"/>
     <use xlink:href="#DejaVuSans-61" transform="translate(147.802734 0)"/>
     <use xlink:href="#DejaVuSans-6e" transform="translate(209.082031 0)"/>
     <use xlink:href="#DejaVuSans-3a" transform="translate(272.460938 0)"/>
     <use xlink:href="#DejaVuSans-20" transform="translate(306.152344 0)"/>
     <use xlink:href="#DejaVuSans-33" transform="translate(337.939453 0)"/>
     <use xlink:href="#DejaVuSans-38" transform="translate(401.5625 0)"/>
     <use xlink:href="#DejaVuSans-38" transform="translate(465.185547 0)"/>
     <use xlink:href="#DejaVuSans-39" transform="translate(528.808594 0)"/>
     <use xlink:href="#DejaVuSans-2e" transform="translate(592.431641 0)"/>
     <use xlink:href="#DejaVuSans-30" transform="translate(624.21875 0)"/>
     <use xlink:href="#DejaVuSans-30" transform="translate(687.841797 0)"/>
    </g>
    <!-- STD: 346.41 -->
    <g transform="translate(225.536298 80.539531) rotate(-70) scale(0.09 -0.09)">
     <use xlink:href="#DejaVuSans-53"/>
     <use xlink:href="#DejaVuSans-54" transform="translate(63.476562 0)"/>
     <use xlink:href="#DejaVuSans-44" transform="translate(124.560547 0)"/>
     <use xlink:href="#DejaVuSans-3a" transform="translate(201.5625 0)"/>
     <use xlink:href="#DejaVuSans-20" transform="translate(235.253906 0)"/>
     <use xlink:href="#DejaVuSans-33" transform="translate(267.041016 0)"/>
     <use xlink:href="#DejaVuSans-34" transform="translate(330.664062 0)"/>
     <use xlink:href="#DejaVuSans-36" transform="translate(394.287109 0)"/>
     <use xlink:href="#DejaVuSans-2e" transform="translate(457.910156 0)"/>
     <use xlink:href="#DejaVuSans-34" transform="translate(489.697266 0)"/>
     <use xlink:href="#DejaVuSans-31" transform="translate(553.320312 0)"/>
    </g>
    <!-- Max: 4204 -->
    <g transform="translate(236.395098 80.171416) rotate(-70) scale(0.09 -0.09)">
     <use xlink:href="#DejaVuSans-4d"/>
     <use xlink:href="#DejaVuSans-61" transform="translate(86.279297 0)"/>
     <use xlink:href="#DejaVuSans-78" transform="translate(147.558594 0)"/>
     <use xlink:href="#DejaVuSans-3a" transform="translate(206.738281 0)"/>
     <use xlink:href="#DejaVuSans-20" transform="translate(240.429688 0)"/>
     <use xlink:href="#DejaVuSans-34" transform="translate(272.216797 0)"/>
     <use xlink:href="#DejaVuSans-32" transform="translate(335.839844 0)"/>
     <use xlink:href="#DejaVuSans-30" transform="translate(399.462891 0)"/>
     <use xlink:href="#DejaVuSans-34" transform="translate(463.085938 0)"/>
    </g>
   </g>
   <g id="text_19">
    <!-- Mean: 4142.00 -->
    <g transform="translate(326.81406 82.781452) rotate(-70) scale(0.09 -0.09)">
     <use xlink:href="#DejaVuSans-4d"/>
     <use xlink:href="#DejaVuSans-65" transform="translate(86.279297 0)"/>
     <use xlink:href="#DejaVuSans-61" transform="translate(147.802734 0)"/>
     <use xlink:href="#DejaVuSans-6e" transform="translate(209.082031 0)"/>
     <use xlink:href="#DejaVuSans-3a" transform="translate(272.460938 0)"/>
     <use xlink:href="#DejaVuSans-20" transform="translate(306.152344 0)"/>
     <use xlink:href="#DejaVuSans-34" transform="translate(337.939453 0)"/>
     <use xlink:href="#DejaVuSans-31" transform="translate(401.5625 0)"/>
     <use xlink:href="#DejaVuSans-34" transform="translate(465.185547 0)"/>
     <use xlink:href="#DejaVuSans-32" transform="translate(528.808594 0)"/>
     <use xlink:href="#DejaVuSans-2e" transform="translate(592.431641 0)"/>
     <use xlink:href="#DejaVuSans-30" transform="translate(624.21875 0)"/>
     <use xlink:href="#DejaVuSans-30" transform="translate(687.841797 0)"/>
    </g>
    <!-- STD: 126.12 -->
    <g transform="translate(338.354869 80.539531) rotate(-70) scale(0.09 -0.09)">
     <use xlink:href="#DejaVuSans-53"/>
     <use xlink:href="#DejaVuSans-54" transform="translate(63.476562 0)"/>
     <use xlink:href="#DejaVuSans-44" transform="translate(124.560547 0)"/>
     <use xlink:href="#DejaVuSans-3a" transform="translate(201.5625 0)"/>
     <use xlink:href="#DejaVuSans-20" transform="translate(235.253906 0)"/>
     <use xlink:href="#DejaVuSans-31" transform="translate(267.041016 0)"/>
     <use xlink:href="#DejaVuSans-32" transform="translate(330.664062 0)"/>
     <use xlink:href="#DejaVuSans-36" transform="translate(394.287109 0)"/>
     <use xlink:href="#DejaVuSans-2e" transform="translate(457.910156 0)"/>
     <use xlink:href="#DejaVuSans-31" transform="translate(489.697266 0)"/>
     <use xlink:href="#DejaVuSans-32" transform="translate(553.320312 0)"/>
    </g>
    <!-- Max: 4241 -->
    <g transform="translate(349.213669 80.171416) rotate(-70) scale(0.09 -0.09)">
     <use xlink:href="#DejaVuSans-4d"/>
     <use xlink:href="#DejaVuSans-61" transform="translate(86.279297 0)"/>
     <use xlink:href="#DejaVuSans-78" transform="translate(147.558594 0)"/>
     <use xlink:href="#DejaVuSans-3a" transform="translate(206.738281 0)"/>
     <use xlink:href="#DejaVuSans-20" transform="translate(240.429688 0)"/>
     <use xlink:href="#DejaVuSans-34" transform="translate(272.216797 0)"/>
     <use xlink:href="#DejaVuSans-32" transform="translate(335.839844 0)"/>
     <use xlink:href="#DejaVuSans-34" transform="translate(399.462891 0)"/>
     <use xlink:href="#DejaVuSans-31" transform="translate(463.085938 0)"/>
    </g>
   </g>
   <g id="text_20">
    <!-- Mean: 265.67 -->
    <g transform="translate(440.611877 82.781452) rotate(-70) scale(0.09 -0.09)">
     <use xlink:href="#DejaVuSans-4d"/>
     <use xlink:href="#DejaVuSans-65" transform="translate(86.279297 0)"/>
     <use xlink:href="#DejaVuSans-61" transform="translate(147.802734 0)"/>
     <use xlink:href="#DejaVuSans-6e" transform="translate(209.082031 0)"/>
     <use xlink:href="#DejaVuSans-3a" transform="translate(272.460938 0)"/>
     <use xlink:href="#DejaVuSans-20" transform="translate(306.152344 0)"/>
     <use xlink:href="#DejaVuSans-32" transform="translate(337.939453 0)"/>
     <use xlink:href="#DejaVuSans-36" transform="translate(401.5625 0)"/>
     <use xlink:href="#DejaVuSans-35" transform="translate(465.185547 0)"/>
     <use xlink:href="#DejaVuSans-2e" transform="translate(528.808594 0)"/>
     <use xlink:href="#DejaVuSans-36" transform="translate(560.595703 0)"/>
     <use xlink:href="#DejaVuSans-37" transform="translate(624.21875 0)"/>
    </g>
    <!-- STD: 27.93 -->
    <g transform="translate(452.152687 80.539531) rotate(-70) scale(0.09 -0.09)">
     <use xlink:href="#DejaVuSans-53"/>
     <use xlink:href="#DejaVuSans-54" transform="translate(63.476562 0)"/>
     <use xlink:href="#DejaVuSans-44" transform="translate(124.560547 0)"/>
     <use xlink:href="#DejaVuSans-3a" transform="translate(201.5625 0)"/>
     <use xlink:href="#DejaVuSans-20" transform="translate(235.253906 0)"/>
     <use xlink:href="#DejaVuSans-32" transform="translate(267.041016 0)"/>
     <use xlink:href="#DejaVuSans-37" transform="translate(330.664062 0)"/>
     <use xlink:href="#DejaVuSans-2e" transform="translate(394.287109 0)"/>
     <use xlink:href="#DejaVuSans-39" transform="translate(426.074219 0)"/>
     <use xlink:href="#DejaVuSans-33" transform="translate(489.697266 0)"/>
    </g>
    <!-- Max: 296 -->
    <g transform="translate(463.011487 80.171416) rotate(-70) scale(0.09 -0.09)">
     <use xlink:href="#DejaVuSans-4d"/>
     <use xlink:href="#DejaVuSans-61" transform="translate(86.279297 0)"/>
     <use xlink:href="#DejaVuSans-78" transform="translate(147.558594 0)"/>
     <use xlink:href="#DejaVuSans-3a" transform="translate(206.738281 0)"/>
     <use xlink:href="#DejaVuSans-20" transform="translate(240.429688 0)"/>
     <use xlink:href="#DejaVuSans-32" transform="translate(272.216797 0)"/>
     <use xlink:href="#DejaVuSans-39" transform="translate(335.839844 0)"/>
     <use xlink:href="#DejaVuSans-36" transform="translate(399.462891 0)"/>
    </g>
   </g>
   <g id="text_21">
    <!-- Mean: 932.67 -->
    <g transform="translate(553.430449 82.781452) rotate(-70) scale(0.09 -0.09)">
     <use xlink:href="#DejaVuSans-4d"/>
     <use xlink:href="#DejaVuSans-65" transform="translate(86.279297 0)"/>
     <use xlink:href="#DejaVuSans-61" transform="translate(147.802734 0)"/>
     <use xlink:href="#DejaVuSans-6e" transform="translate(209.082031 0)"/>
     <use xlink:href="#DejaVuSans-3a" transform="translate(272.460938 0)"/>
     <use xlink:href="#DejaVuSans-20" transform="translate(306.152344 0)"/>
     <use xlink:href="#DejaVuSans-39" transform="translate(337.939453 0)"/>
     <use xlink:href="#DejaVuSans-33" transform="translate(401.5625 0)"/>
     <use xlink:href="#DejaVuSans-32" transform="translate(465.185547 0)"/>
     <use xlink:href="#DejaVuSans-2e" transform="translate(528.808594 0)"/>
     <use xlink:href="#DejaVuSans-36" transform="translate(560.595703 0)"/>
     <use xlink:href="#DejaVuSans-37" transform="translate(624.21875 0)"/>
    </g>
    <!-- STD: 1117.50 -->
    <g transform="translate(563.012766 85.920446) rotate(-70) scale(0.09 -0.09)">
     <use xlink:href="#DejaVuSans-53"/>
     <use xlink:href="#DejaVuSans-54" transform="translate(63.476562 0)"/>
     <use xlink:href="#DejaVuSans-44" transform="translate(124.560547 0)"/>
     <use xlink:href="#DejaVuSans-3a" transform="translate(201.5625 0)"/>
     <use xlink:href="#DejaVuSans-20" transform="translate(235.253906 0)"/>
     <use xlink:href="#DejaVuSans-31" transform="translate(267.041016 0)"/>
     <use xlink:href="#DejaVuSans-31" transform="translate(330.664062 0)"/>
     <use xlink:href="#DejaVuSans-31" transform="translate(394.287109 0)"/>
     <use xlink:href="#DejaVuSans-37" transform="translate(457.910156 0)"/>
     <use xlink:href="#DejaVuSans-2e" transform="translate(521.533203 0)"/>
     <use xlink:href="#DejaVuSans-35" transform="translate(553.320312 0)"/>
     <use xlink:href="#DejaVuSans-30" transform="translate(616.943359 0)"/>
    </g>
    <!-- Max: 2223 -->
    <g transform="translate(574.850812 82.861873) rotate(-70) scale(0.09 -0.09)">
     <use xlink:href="#DejaVuSans-4d"/>
     <use xlink:href="#DejaVuSans-61" transform="translate(86.279297 0)"/>
     <use xlink:href="#DejaVuSans-78" transform="translate(147.558594 0)"/>
     <use xlink:href="#DejaVuSans-3a" transform="translate(206.738281 0)"/>
     <use xlink:href="#DejaVuSans-20" transform="translate(240.429688 0)"/>
     <use xlink:href="#DejaVuSans-32" transform="translate(272.216797 0)"/>
     <use xlink:href="#DejaVuSans-32" transform="translate(335.839844 0)"/>
     <use xlink:href="#DejaVuSans-32" transform="translate(399.462891 0)"/>
     <use xlink:href="#DejaVuSans-33" transform="translate(463.085938 0)"/>
    </g>
   </g>
   <g id="text_22">
    <!-- Mean: 1611.33 -->
    <g transform="translate(665.269774 82.781452) rotate(-70) scale(0.09 -0.09)">
     <use xlink:href="#DejaVuSans-4d"/>
     <use xlink:href="#DejaVuSans-65" transform="translate(86.279297 0)"/>
     <use xlink:href="#DejaVuSans-61" transform="translate(147.802734 0)"/>
     <use xlink:href="#DejaVuSans-6e" transform="translate(209.082031 0)"/>
     <use xlink:href="#DejaVuSans-3a" transform="translate(272.460938 0)"/>
     <use xlink:href="#DejaVuSans-20" transform="translate(306.152344 0)"/>
     <use xlink:href="#DejaVuSans-31" transform="translate(337.939453 0)"/>
     <use xlink:href="#DejaVuSans-36" transform="translate(401.5625 0)"/>
     <use xlink:href="#DejaVuSans-31" transform="translate(465.185547 0)"/>
     <use xlink:href="#DejaVuSans-31" transform="translate(528.808594 0)"/>
     <use xlink:href="#DejaVuSans-2e" transform="translate(592.431641 0)"/>
     <use xlink:href="#DejaVuSans-33" transform="translate(624.21875 0)"/>
     <use xlink:href="#DejaVuSans-33" transform="translate(687.841797 0)"/>
    </g>
    <!-- STD: 1189.02 -->
    <g transform="translate(675.831337 83.229989) rotate(-70) scale(0.09 -0.09)">
     <use xlink:href="#DejaVuSans-53"/>
     <use xlink:href="#DejaVuSans-54" transform="translate(63.476562 0)"/>
     <use xlink:href="#DejaVuSans-44" transform="translate(124.560547 0)"/>
     <use xlink:href="#DejaVuSans-3a" transform="translate(201.5625 0)"/>
     <use xlink:href="#DejaVuSans-20" transform="translate(235.253906 0)"/>
     <use xlink:href="#DejaVuSans-31" transform="translate(267.041016 0)"/>
     <use xlink:href="#DejaVuSans-31" transform="translate(330.664062 0)"/>
     <use xlink:href="#DejaVuSans-38" transform="translate(394.287109 0)"/>
     <use xlink:href="#DejaVuSans-39" transform="translate(457.910156 0)"/>
     <use xlink:href="#DejaVuSans-2e" transform="translate(521.533203 0)"/>
     <use xlink:href="#DejaVuSans-30" transform="translate(553.320312 0)"/>
     <use xlink:href="#DejaVuSans-32" transform="translate(616.943359 0)"/>
    </g>
    <!-- Max: 2370 -->
    <g transform="translate(687.669383 80.171416) rotate(-70) scale(0.09 -0.09)">
     <use xlink:href="#DejaVuSans-4d"/>
     <use xlink:href="#DejaVuSans-61" transform="translate(86.279297 0)"/>
     <use xlink:href="#DejaVuSans-78" transform="translate(147.558594 0)"/>
     <use xlink:href="#DejaVuSans-3a" transform="translate(206.738281 0)"/>
     <use xlink:href="#DejaVuSans-20" transform="translate(240.429688 0)"/>
     <use xlink:href="#DejaVuSans-32" transform="translate(272.216797 0)"/>
     <use xlink:href="#DejaVuSans-33" transform="translate(335.839844 0)"/>
     <use xlink:href="#DejaVuSans-37" transform="translate(399.462891 0)"/>
     <use xlink:href="#DejaVuSans-30" transform="translate(463.085938 0)"/>
    </g>
   </g>
   <g id="text_23">
    <!-- Mean: 31454.00 -->
    <g transform="translate(777.109099 82.781452) rotate(-70) scale(0.09 -0.09)">
     <use xlink:href="#DejaVuSans-4d"/>
     <use xlink:href="#DejaVuSans-65" transform="translate(86.279297 0)"/>
     <use xlink:href="#DejaVuSans-61" transform="translate(147.802734 0)"/>
     <use xlink:href="#DejaVuSans-6e" transform="translate(209.082031 0)"/>
     <use xlink:href="#DejaVuSans-3a" transform="translate(272.460938 0)"/>
     <use xlink:href="#DejaVuSans-20" transform="translate(306.152344 0)"/>
     <use xlink:href="#DejaVuSans-33" transform="translate(337.939453 0)"/>
     <use xlink:href="#DejaVuSans-31" transform="translate(401.5625 0)"/>
     <use xlink:href="#DejaVuSans-34" transform="translate(465.185547 0)"/>
     <use xlink:href="#DejaVuSans-35" transform="translate(528.808594 0)"/>
     <use xlink:href="#DejaVuSans-34" transform="translate(592.431641 0)"/>
     <use xlink:href="#DejaVuSans-2e" transform="translate(656.054688 0)"/>
     <use xlink:href="#DejaVuSans-30" transform="translate(687.841797 0)"/>
     <use xlink:href="#DejaVuSans-30" transform="translate(751.464844 0)"/>
    </g>
    <!-- STD: 223.45 -->
    <g transform="translate(789.629155 77.849074) rotate(-70) scale(0.09 -0.09)">
     <use xlink:href="#DejaVuSans-53"/>
     <use xlink:href="#DejaVuSans-54" transform="translate(63.476562 0)"/>
     <use xlink:href="#DejaVuSans-44" transform="translate(124.560547 0)"/>
     <use xlink:href="#DejaVuSans-3a" transform="translate(201.5625 0)"/>
     <use xlink:href="#DejaVuSans-20" transform="translate(235.253906 0)"/>
     <use xlink:href="#DejaVuSans-32" transform="translate(267.041016 0)"/>
     <use xlink:href="#DejaVuSans-32" transform="translate(330.664062 0)"/>
     <use xlink:href="#DejaVuSans-33" transform="translate(394.287109 0)"/>
     <use xlink:href="#DejaVuSans-2e" transform="translate(457.910156 0)"/>
     <use xlink:href="#DejaVuSans-34" transform="translate(489.697266 0)"/>
     <use xlink:href="#DejaVuSans-35" transform="translate(553.320312 0)"/>
    </g>
    <!-- Max: 31612 -->
    <g transform="translate(799.508708 80.171416) rotate(-70) scale(0.09 -0.09)">
     <use xlink:href="#DejaVuSans-4d"/>
     <use xlink:href="#DejaVuSans-61" transform="translate(86.279297 0)"/>
     <use xlink:href="#DejaVuSans-78" transform="translate(147.558594 0)"/>
     <use xlink:href="#DejaVuSans-3a" transform="translate(206.738281 0)"/>
     <use xlink:href="#DejaVuSans-20" transform="translate(240.429688 0)"/>
     <use xlink:href="#DejaVuSans-33" transform="translate(272.216797 0)"/>
     <use xlink:href="#DejaVuSans-31" transform="translate(335.839844 0)"/>
     <use xlink:href="#DejaVuSans-36" transform="translate(399.462891 0)"/>
     <use xlink:href="#DejaVuSans-31" transform="translate(463.085938 0)"/>
     <use xlink:href="#DejaVuSans-32" transform="translate(526.708984 0)"/>
    </g>
   </g>
   <g id="text_24">
    <!-- Execution Times: DY vs. STATIC (LB, EGS) -->
    <g transform="translate(334.516563 84.315397) scale(0.12 -0.12)">
     <defs>
      <path id="DejaVuSans-59" d="M -13 4666 
L 666 4666 
L 1959 2747 
L 3244 4666 
L 3922 4666 
L 2272 2222 
L 2272 0 
L 1638 0 
L 1638 2222 
L -13 4666 
z
" transform="scale(0.015625)"/>
      <path id="DejaVuSans-76" d="M 191 3500 
L 800 3500 
L 1894 563 
L 2988 3500 
L 3597 3500 
L 2284 0 
L 1503 0 
L 191 3500 
z
" transform="scale(0.015625)"/>
      <path id="DejaVuSans-41" d="M 2188 4044 
L 1331 1722 
L 3047 1722 
L 2188 4044 
z
M 1831 4666 
L 2547 4666 
L 4325 0 
L 3669 0 
L 3244 1197 
L 1141 1197 
L 716 0 
L 50 0 
L 1831 4666 
z
" transform="scale(0.015625)"/>
      <path id="DejaVuSans-49" d="M 628 4666 
L 1259 4666 
L 1259 0 
L 628 0 
L 628 4666 
z
" transform="scale(0.015625)"/>
      <path id="DejaVuSans-43" d="M 4122 4306 
L 4122 3641 
Q 3803 3938 3442 4084 
Q 3081 4231 2675 4231 
Q 1875 4231 1450 3742 
Q 1025 3253 1025 2328 
Q 1025 1406 1450 917 
Q 1875 428 2675 428 
Q 3081 428 3442 575 
Q 3803 722 4122 1019 
L 4122 359 
Q 3791 134 3420 21 
Q 3050 -91 2638 -91 
Q 1578 -91 968 557 
Q 359 1206 359 2328 
Q 359 3453 968 4101 
Q 1578 4750 2638 4750 
Q 3056 4750 3426 4639 
Q 3797 4528 4122 4306 
z
" transform="scale(0.015625)"/>
      <path id="DejaVuSans-4c" d="M 628 4666 
L 1259 4666 
L 1259 531 
L 3531 531 
L 3531 0 
L 628 0 
L 628 4666 
z
" transform="scale(0.015625)"/>
      <path id="DejaVuSans-42" d="M 1259 2228 
L 1259 519 
L 2272 519 
Q 2781 519 3026 730 
Q 3272 941 3272 1375 
Q 3272 1813 3026 2020 
Q 2781 2228 2272 2228 
L 1259 2228 
z
M 1259 4147 
L 1259 2741 
L 2194 2741 
Q 2656 2741 2882 2914 
Q 3109 3088 3109 3444 
Q 3109 3797 2882 3972 
Q 2656 4147 2194 4147 
L 1259 4147 
z
M 628 4666 
L 2241 4666 
Q 2963 4666 3353 4366 
Q 3744 4066 3744 3513 
Q 3744 3084 3544 2831 
Q 3344 2578 2956 2516 
Q 3422 2416 3680 2098 
Q 3938 1781 3938 1306 
Q 3938 681 3513 340 
Q 3088 0 2303 0 
L 628 0 
L 628 4666 
z
" transform="scale(0.015625)"/>
     </defs>
     <use xlink:href="#DejaVuSans-45"/>
     <use xlink:href="#DejaVuSans-78" transform="translate(63.183594 0)"/>
     <use xlink:href="#DejaVuSans-65" transform="translate(119.238281 0)"/>
     <use xlink:href="#DejaVuSans-63" transform="translate(180.761719 0)"/>
     <use xlink:href="#DejaVuSans-75" transform="translate(235.742188 0)"/>
     <use xlink:href="#DejaVuSans-74" transform="translate(299.121094 0)"/>
     <use xlink:href="#DejaVuSans-69" transform="translate(338.330078 0)"/>
     <use xlink:href="#DejaVuSans-6f" transform="translate(366.113281 0)"/>
     <use xlink:href="#DejaVuSans-6e" transform="translate(427.294922 0)"/>
     <use xlink:href="#DejaVuSans-20" transform="translate(490.673828 0)"/>
     <use xlink:href="#DejaVuSans-54" transform="translate(522.460938 0)"/>
     <use xlink:href="#DejaVuSans-69" transform="translate(580.419922 0)"/>
     <use xlink:href="#DejaVuSans-6d" transform="translate(608.203125 0)"/>
     <use xlink:href="#DejaVuSans-65" transform="translate(705.615234 0)"/>
     <use xlink:href="#DejaVuSans-73" transform="translate(767.138672 0)"/>
     <use xlink:href="#DejaVuSans-3a" transform="translate(819.238281 0)"/>
     <use xlink:href="#DejaVuSans-20" transform="translate(852.929688 0)"/>
     <use xlink:href="#DejaVuSans-44" transform="translate(884.716797 0)"/>
     <use xlink:href="#DejaVuSans-59" transform="translate(956.21875 0)"/>
     <use xlink:href="#DejaVuSans-20" transform="translate(1017.302734 0)"/>
     <use xlink:href="#DejaVuSans-76" transform="translate(1049.089844 0)"/>
     <use xlink:href="#DejaVuSans-73" transform="translate(1108.269531 0)"/>
     <use xlink:href="#DejaVuSans-2e" transform="translate(1160.369141 0)"/>
     <use xlink:href="#DejaVuSans-20" transform="translate(1192.15625 0)"/>
     <use xlink:href="#DejaVuSans-53" transform="translate(1223.943359 0)"/>
     <use xlink:href="#DejaVuSans-54" transform="translate(1287.419922 0)"/>
     <use xlink:href="#DejaVuSans-41" transform="translate(1340.753906 0)"/>
     <use xlink:href="#DejaVuSans-54" transform="translate(1401.412109 0)"/>
     <use xlink:href="#DejaVuSans-49" transform="translate(1462.496094 0)"/>
     <use xlink:href="#DejaVuSans-43" transform="translate(1491.988281 0)"/>
     <use xlink:href="#DejaVuSans-20" transform="translate(1561.8125 0)"/>
     <use xlink:href="#DejaVuSans-28" transform="translate(1593.599609 0)"/>
     <use xlink:href="#DejaVuSans-4c" transform="translate(1632.613281 0)"/>
     <use xlink:href="#DejaVuSans-42" transform="translate(1688.326172 0)"/>
     <use xlink:href="#DejaVuSans-2c" transform="translate(1756.929688 0)"/>
     <use xlink:href="#DejaVuSans-20" transform="translate(1788.716797 0)"/>
     <use xlink:href="#DejaVuSans-45" transform="translate(1820.503906 0)"/>
     <use xlink:href="#DejaVuSans-47" transform="translate(1883.6875 0)"/>
     <use xlink:href="#DejaVuSans-53" transform="translate(1961.177734 0)"/>
     <use xlink:href="#DejaVuSans-29" transform="translate(2024.654297 0)"/>
    </g>
   </g>
   <g id="legend_1">
    <g id="patch_30">
     <path d="M 70.47 157.027897 
L 122.885625 157.027897 
Q 124.885625 157.027897 124.885625 155.027897 
L 124.885625 97.315397 
Q 124.885625 95.315397 122.885625 95.315397 
L 70.47 95.315397 
Q 68.47 95.315397 68.47 97.315397 
L 68.47 155.027897 
Q 68.47 157.027897 70.47 157.027897 
z
" style="fill: #ffffff; opacity: 0.8; stroke: #cccccc; stroke-linejoin: miter"/>
    </g>
    <g id="text_25">
     <!-- Dataset -->
     <g transform="translate(77.098125 106.913835) scale(0.1 -0.1)">
      <use xlink:href="#DejaVuSans-44"/>
      <use xlink:href="#DejaVuSans-61" transform="translate(77.001953 0)"/>
      <use xlink:href="#DejaVuSans-74" transform="translate(138.28125 0)"/>
      <use xlink:href="#DejaVuSans-61" transform="translate(177.490234 0)"/>
      <use xlink:href="#DejaVuSans-73" transform="translate(238.769531 0)"/>
      <use xlink:href="#DejaVuSans-65" transform="translate(290.869141 0)"/>
      <use xlink:href="#DejaVuSans-74" transform="translate(352.392578 0)"/>
     </g>
    </g>
    <g id="patch_31">
     <path d="M 72.47 121.59196 
L 92.47 121.59196 
L 92.47 114.59196 
L 72.47 114.59196 
z
" style="fill: #72b6a1; stroke: #595959; stroke-linejoin: miter"/>
    </g>
    <g id="text_26">
     <!-- DY -->
     <g transform="translate(100.47 121.59196) scale(0.1 -0.1)">
      <use xlink:href="#DejaVuSans-44"/>
      <use xlink:href="#DejaVuSans-59" transform="translate(71.501953 0)"/>
     </g>
    </g>
    <g id="patch_32">
     <path d="M 72.47 136.270085 
L 92.47 136.270085 
L 92.47 129.270085 
L 72.47 129.270085 
z
" style="fill: #e99675; stroke: #595959; stroke-linejoin: miter"/>
    </g>
    <g id="text_27">
     <!-- LB -->
     <g transform="translate(100.47 136.270085) scale(0.1 -0.1)">
      <use xlink:href="#DejaVuSans-4c"/>
      <use xlink:href="#DejaVuSans-42" transform="translate(55.712891 0)"/>
     </g>
    </g>
    <g id="patch_33">
     <path d="M 72.47 150.94821 
L 92.47 150.94821 
L 92.47 143.94821 
L 72.47 143.94821 
z
" style="fill: #95a3c3; stroke: #595959; stroke-linejoin: miter"/>
    </g>
    <g id="text_28">
     <!-- EGS -->
     <g transform="translate(100.47 150.94821) scale(0.1 -0.1)">
      <use xlink:href="#DejaVuSans-45"/>
      <use xlink:href="#DejaVuSans-47" transform="translate(63.183594 0)"/>
      <use xlink:href="#DejaVuSans-53" transform="translate(140.673828 0)"/>
     </g>
    </g>
   </g>
  </g>
 </g>
 <defs>
  <clipPath id="p7fb02d1fb4">
   <rect x="63.47" y="90.315397" width="789.73" height="405.430544"/>
  </clipPath>
 </defs>
</svg>
